<svg width="86" height="86" viewBox="0 0 86 86" fill="none" xmlns="http://www.w3.org/2000/svg">
<path d="M28.04 52.3634L42.3684 60.6359C42.5633 60.7484 42.7808 60.8047 42.9983 60.8047C43.2158 60.8047 43.4334 60.7484 43.6282 60.6359L57.9566 52.3634C58.3463 52.1383 58.5865 51.7226 58.5865 51.2725V34.7275C58.5865 34.2774 58.3463 33.8617 57.9566 33.6366L43.6282 25.3641C43.2385 25.139 42.7581 25.139 42.3684 25.3641L28.04 33.6366C27.6504 33.8617 27.4102 34.2774 27.4102 34.7275V51.2725C27.4102 51.7226 27.6504 52.1383 28.04 52.3634ZM29.9297 36.9095L41.7386 43.7273V57.363L29.9297 50.5452V36.9095ZM42.9983 41.5454L31.1895 34.7275L35.8341 32.0459L47.643 38.8638L42.9983 41.5454ZM44.2581 57.363V43.7273L56.067 36.9095V50.5452L44.2581 57.363ZM42.9983 27.9097L54.8072 34.7275L50.1625 37.4092L38.3537 30.5913L42.9983 27.9097Z" fill="black"/>
<path d="M43 65.8438C55.5961 65.8438 65.8438 55.5961 65.8438 43C65.8438 30.4039 55.5961 20.1562 43 20.1562C30.4039 20.1562 20.1562 30.4039 20.1562 43C20.1562 55.5961 30.4039 65.8438 43 65.8438ZM43 22.6758C54.2069 22.6758 63.3242 31.7931 63.3242 43C63.3242 54.2069 54.2069 63.3242 43 63.3242C31.7931 63.3242 22.6758 54.2069 22.6758 43C22.6758 31.7931 31.7931 22.6758 43 22.6758Z" fill="black"/>
<path d="M83.316 39.3909C83.1343 39.319 82.9327 39.2671 82.7328 39.2066L78.0601 37.793C77.6651 35.111 76.9641 32.4878 75.9707 29.9749L79.7235 25.9744C80.8706 24.7507 81.0778 22.9528 80.2392 21.5C79.4003 20.0474 77.7405 19.3277 76.1076 19.7098C75.9711 19.7304 75.8465 19.7704 75.7413 19.7951L70.7553 20.9615C69.073 18.8453 67.1549 16.9274 65.0385 15.2447L66.2906 9.89353C66.6722 8.2602 65.9526 6.59949 64.5 5.76082C63.0471 4.92182 61.2538 5.13447 60.0307 6.28203C59.883 6.40079 59.7393 6.54541 59.5822 6.69288L56.0255 10.0292C53.5122 9.03588 50.889 8.33495 48.207 7.93988L46.617 2.6838C46.1309 1.07853 44.6773 0 43 0C41.3225 0 39.8751 1.08054 39.3892 2.68582C39.3301 2.83666 39.2892 2.99371 39.2451 3.14001L37.793 7.93988C35.111 8.33495 32.4878 9.03588 29.9749 10.0292L25.9744 6.27649C24.7509 5.12943 22.9529 4.92232 21.5002 5.76082C20.0472 6.59966 19.3277 8.26054 19.7098 9.8937C19.7232 9.94358 19.7338 9.99616 19.7464 10.0507L20.9615 15.2447C18.8453 16.9272 16.9272 18.8453 15.2447 20.9615L9.89353 19.7095C8.2602 19.328 6.59966 20.0476 5.76082 21.5002C4.92216 22.9529 5.1348 24.7462 6.2822 25.9695C6.40095 26.1171 6.54557 26.2609 6.69305 26.418L10.0294 29.9747C9.03588 32.4878 8.33495 35.111 7.93988 37.793L2.6838 39.383C1.07853 39.8691 0 41.3227 0 43C0 44.6777 1.08038 46.1249 2.68582 46.6108C2.83666 46.67 2.99354 46.7108 3.14001 46.7549L7.93988 48.207C8.33495 50.889 9.03588 53.5122 10.0292 56.0253L6.27649 60.0258C5.12943 61.2493 4.92216 63.0474 5.76082 64.5C6.59966 65.9528 8.26054 66.6727 9.89353 66.2904L9.89101 66.2796C10.066 66.2501 10.2617 66.2044 10.4871 66.1516L15.2445 65.0387C16.9271 67.1551 18.8449 69.073 20.9613 70.7555L19.7093 76.1066C19.3277 77.7398 20.0472 79.4007 21.4998 80.2393C22.9524 81.078 24.7457 80.8655 25.9691 79.7181C26.1168 79.5994 26.2606 79.4548 26.4178 79.3073L29.9745 75.9709C32.4877 76.9643 35.1108 77.6652 37.7928 78.0603L39.3828 83.3165C39.8691 84.9215 41.3227 86 43 86C44.6777 86 46.1257 84.9198 46.6115 83.3145C46.6637 83.1806 46.6985 83.0461 46.7345 82.9275L48.207 78.0601C50.889 77.6651 53.5122 76.9641 56.0253 75.9707L60.0258 79.7235C61.2495 80.8707 63.0477 81.0778 64.5 80.2392C65.9529 79.4003 66.667 77.7408 66.2848 76.1076C66.2642 75.9709 66.2296 75.8466 66.2049 75.7413L65.0385 70.7553C67.1547 69.073 69.0726 67.1549 70.7553 65.0385L76.1065 66.2906C77.739 66.6718 79.4005 65.9526 80.2392 64.5C81.078 63.0471 80.8706 61.2491 79.7232 60.0257C79.6866 59.9894 79.6513 59.9489 79.6132 59.9082L75.9709 56.0251C76.9643 53.5122 77.6652 50.889 78.0603 48.2069L83.3164 46.6169C84.9215 46.1309 86 44.6773 86 43C86 41.3225 84.9215 39.8768 83.316 39.3909ZM82.5864 44.2055L76.5558 46.0298C76.0786 46.1741 75.7314 46.5863 75.6703 47.0811C75.2984 50.0901 74.5138 53.0259 73.3383 55.8068C73.1443 56.2657 73.2391 56.7958 73.5799 57.1591C75.3869 59.0854 77.8357 61.6961 77.8834 61.747C78.2617 62.1505 78.3324 62.7635 78.0573 63.2401C77.782 63.7168 77.2156 63.9618 76.6803 63.837L70.5428 62.4011C70.0586 62.2877 69.5525 62.4701 69.2518 62.8667C67.425 65.2769 65.2767 67.425 62.8668 69.2517C62.4703 69.5523 62.2879 70.0581 62.4012 70.5427L62.8349 72.3964C63.3286 74.5064 63.8125 76.5753 63.8355 76.6739C63.9622 77.2157 63.7169 77.782 63.2402 78.0571C62.7635 78.3321 62.1503 78.2617 61.7493 77.8856L57.1593 73.5799C56.7958 73.2391 56.2657 73.1443 55.8069 73.3383C53.0259 74.5138 50.0901 75.2984 47.0813 75.6703C46.5865 75.7314 46.1744 76.0786 46.03 76.5556L45.5617 78.1038C44.9043 80.277 44.2327 82.4965 44.207 82.5815C44.0461 83.1128 43.5504 83.4805 43 83.4805C42.4496 83.4805 41.9537 83.1128 41.7945 82.5865L39.9702 76.5558C39.8259 76.0786 39.4137 75.7314 38.9189 75.6703C35.91 75.2984 32.9743 74.5138 30.1932 73.3383C30.035 73.2715 29.8684 73.2389 29.7031 73.2389C29.3888 73.2389 29.0791 73.3565 28.8409 73.5799C26.9175 75.384 24.3116 77.8287 24.2535 77.8827C23.8495 78.2617 23.2363 78.3322 22.7598 78.0571C22.2831 77.7818 22.0377 77.2154 22.1628 76.6801L23.5988 70.5427C23.7121 70.0583 23.5297 69.5523 23.1332 69.2517C20.7231 67.425 18.575 65.2767 16.7482 62.8667C16.4475 62.4701 15.9411 62.2877 15.4572 62.4011C12.883 63.0032 9.38677 63.8214 9.32243 63.8362C8.78409 63.9622 8.21787 63.7168 7.94274 63.2401C7.66761 62.7635 7.73815 62.1503 8.11423 61.7492L12.4199 57.1591C12.7608 56.7956 12.8555 56.2657 12.6615 55.8068C11.4859 53.0257 10.7015 50.09 10.3296 47.0811C10.2684 46.5865 9.92124 46.1743 9.44421 46.0298L8.47705 45.7372C6.12448 45.0255 3.48182 44.226 3.41716 44.2064C2.88721 44.0461 2.51953 43.5504 2.51953 43C2.51953 42.4497 2.88721 41.9539 3.41363 41.7945L9.44421 39.9702C9.92141 39.8259 10.2684 39.4137 10.3296 38.9189C10.7015 35.9099 11.486 32.9743 12.6615 30.1932C12.8555 29.7343 12.7608 29.2042 12.4199 28.8409C10.6158 26.9175 8.17134 24.3116 8.11709 24.2535C7.73815 23.8495 7.66761 23.2363 7.94257 22.7598C8.2177 22.2831 8.78393 22.0378 9.31958 22.1626L15.457 23.5986C15.9409 23.712 16.4473 23.5296 16.748 23.133C18.5747 20.723 20.723 18.5748 23.133 16.748C23.5296 16.4473 23.712 15.9416 23.5986 15.457C22.9976 12.8886 22.1818 9.40172 22.1638 9.32344C22.0377 8.78393 22.2829 8.2177 22.7596 7.94257C23.2361 7.66727 23.8494 7.73798 24.2505 8.11407L28.8406 12.4198C29.2039 12.7604 29.7338 12.8552 30.1929 12.6613C32.9739 11.4859 35.9097 10.7013 38.9185 10.3294C39.4134 10.2683 39.8254 9.92107 39.9698 9.44404L40.2624 8.47688C40.9741 6.12431 41.7737 3.48166 41.7933 3.41699C41.9539 2.88721 42.4496 2.51953 43 2.51953C43.5504 2.51953 44.0463 2.88738 44.2055 3.41363L46.0298 9.44421C46.1741 9.92141 46.5863 10.2686 47.0811 10.3297C50.09 10.7016 53.0257 11.4862 55.8068 12.6617C56.2657 12.8555 56.7958 12.7609 57.1591 12.4201C59.0825 10.616 61.6884 8.17134 61.7465 8.11726C62.1503 7.73832 62.7634 7.6676 63.2404 7.94291C63.7169 8.21804 63.9625 8.78443 63.8374 9.31975L62.4014 15.4572C62.288 15.9416 62.4704 16.4475 62.867 16.7482C65.2772 18.575 67.4253 20.7233 69.252 23.1332C69.5525 23.5297 70.0584 23.7118 70.543 23.5988L72.3967 23.1651C74.5111 22.6704 76.5843 22.1853 76.6749 22.1643C77.2164 22.038 77.7823 22.2832 78.0574 22.7596C78.3327 23.2363 78.262 23.8495 77.8859 24.2507L73.5802 28.8407C73.2394 29.2042 73.1447 29.7342 73.3387 30.1931C74.5141 32.9739 75.2987 35.9097 75.6706 38.9187C75.7317 39.4135 76.0789 39.8256 76.556 39.97C79.0879 40.736 82.5257 41.776 82.5844 41.7938C83.113 41.9537 83.4806 42.4494 83.4806 42.9998C83.4805 43.5504 83.1128 44.0463 82.5864 44.2055Z" fill="black"/>
<path d="M43 12.5977C36.0056 12.5977 29.1762 15.0322 23.7694 19.453C23.2308 19.8934 23.1511 20.687 23.5915 21.2257C24.032 21.7642 24.8254 21.8438 25.3643 21.4036C30.3222 17.3497 36.5854 15.1172 43 15.1172C58.3747 15.1172 70.8828 27.6253 70.8828 43C70.8828 58.3747 58.3747 70.8828 43 70.8828C27.6253 70.8828 15.1172 58.3747 15.1172 43C15.1172 36.3007 17.5282 29.8249 21.906 24.7651C22.3612 24.2391 22.3037 23.4434 21.7775 22.9882C21.2514 22.533 20.4559 22.5905 20.0005 23.1167C15.2267 28.634 12.5977 35.6954 12.5977 43C12.5977 59.764 26.236 73.4023 43 73.4023C59.764 73.4023 73.4023 59.764 73.4023 43C73.4023 26.236 59.764 12.5977 43 12.5977Z" fill="black"/>
</svg>
