<svg width="22" height="22" viewBox="0 0 22 22" fill="none" xmlns="http://www.w3.org/2000/svg">
<path d="M19.6807 14.2841C19.6807 17.4956 17.7662 19.4101 14.5547 19.4101H13.5048C13.0195 19.4101 12.6225 19.0131 12.6225 18.5278V13.4371C12.6225 13.1989 12.8166 12.9959 13.0548 12.9959L14.6076 12.9695C14.7311 12.9606 14.837 12.8724 14.8635 12.7489L15.1723 11.0637C15.1988 10.9049 15.0752 10.7549 14.9076 10.7549L13.0283 10.7814C12.7813 10.7814 12.5872 10.5873 12.5784 10.3491L12.5431 8.18751C12.5431 8.04635 12.6578 7.92284 12.8078 7.92284L14.9252 7.88754C15.0752 7.88754 15.1899 7.77285 15.1899 7.62287L15.1546 5.50538C15.1546 5.35539 15.0399 5.2407 14.89 5.2407L12.5078 5.276C11.0432 5.30247 9.87862 6.50236 9.90509 7.96694L9.94919 10.3932C9.95802 10.6402 9.76392 10.8344 9.51689 10.8432L8.45814 10.8608C8.30815 10.8608 8.19347 10.9755 8.19347 11.1255L8.21994 12.8018C8.21994 12.9518 8.33462 13.0665 8.48461 13.0665L9.54335 13.0489C9.79039 13.0489 9.98447 13.243 9.9933 13.4812L10.0727 18.5102C10.0815 19.0043 9.6845 19.4101 9.19042 19.4101H7.16119C3.9497 19.4101 2.03516 17.4955 2.03516 14.2752V6.89056C2.03516 3.67907 3.9497 1.76453 7.16119 1.76453H14.5547C17.7662 1.76453 19.6807 3.67907 19.6807 6.89056V14.2841V14.2841Z" fill="white"/>
</svg>
