<svg width="47" height="41" viewBox="0 0 47 41" fill="none" xmlns="http://www.w3.org/2000/svg">
<g clip-path="url(#clip0_187_771)">
<path d="M34.5156 0C30.6294 0 27.2519 1.85235 24.7485 5.35693C24.2537 6.04943 23.8404 6.74101 23.5 7.38368C23.1596 6.74101 22.7463 6.04943 22.2515 5.35693C19.7481 1.85235 16.3706 0 12.4844 0C5.2875 0 0 5.99878 0 13.3538C0 21.5515 6.65114 27.1616 16.7189 35.6535C18.5942 37.2354 20.5333 38.871 22.5982 40.6632C22.857 40.8878 23.1784 41.0001 23.5 41.0001C23.8216 41.0001 24.143 40.8878 24.4018 40.6632C26.4667 38.871 28.4058 37.2354 30.2811 35.6535C40.3489 27.1615 47 21.5515 47 13.3538C47 6.00071 41.715 0 34.5156 0ZM28.5071 33.5443C26.8991 34.9006 25.2443 36.2963 23.5 37.7993C21.7557 36.2963 20.1009 34.9006 18.4929 33.5443C13.0815 28.9796 8.71951 25.2997 5.97185 21.6951H12.4844C13.006 21.6951 13.4828 21.4 13.7159 20.9328L15.2383 17.8838L19.5145 26.4485C19.7477 26.9157 20.2245 27.2108 20.7461 27.2108C21.2677 27.2108 21.7445 26.9157 21.9776 26.4485L23.5 23.3994L25.0224 26.4484C25.2555 26.9156 25.7323 27.2107 26.2539 27.2107C26.7755 27.2107 27.2523 26.9156 27.4855 26.4484L31.7617 17.8838L33.2841 20.9328C33.5172 21.4 33.994 21.6859 34.5156 21.6859H41.0282C38.2805 25.2906 33.9185 28.9796 28.5071 33.5443ZM35.3666 18.9372L32.9933 14.1838C32.7601 13.7166 32.2833 13.4215 31.7617 13.4215C31.2401 13.4215 30.7633 13.7166 30.5302 14.1838L26.2539 22.7484L24.7315 19.6994C24.4984 19.2323 24.0216 18.9372 23.5 18.9372C22.9784 18.9372 22.5016 19.2323 22.2685 19.6995L20.7461 22.7484L16.4698 14.1837C16.2367 13.7166 15.7599 13.4215 15.2383 13.4215C14.7167 13.4215 14.2399 13.7166 14.0067 14.1838L11.6333 18.9372H4.19328C3.25704 17.1413 2.75391 15.313 2.75391 13.3538C2.75391 7.31308 6.93709 2.75785 12.4844 2.75785C15.4629 2.75785 17.9802 4.15093 19.9665 6.89839C21.53 9.06137 22.166 11.2827 22.1737 11.31C22.3397 11.9059 22.8819 12.3184 23.5 12.3184C24.1189 12.3184 24.6618 11.9048 24.827 11.3075C24.8507 11.222 27.275 2.75785 34.5156 2.75785C40.0629 2.75785 44.2461 7.31308 44.2461 13.3538C44.2461 15.3131 43.743 17.1413 42.8067 18.9372H35.3666Z" fill="white"/>
</g>
<defs>
<clipPath id="clip0_187_771">
<rect width="47" height="41" fill="white"/>
</clipPath>
</defs>
</svg>
