<svg width="45" height="47" viewBox="0 0 45 47" fill="none" xmlns="http://www.w3.org/2000/svg">
<path d="M40.4436 31.6599C43.2449 29.8988 44.9949 26.8215 44.9949 23.5C44.9949 20.1785 43.2449 17.1012 40.4436 15.3401C40.6551 14.6565 40.7772 13.879 40.7772 13.1324C40.7772 8.68523 36.884 5.15535 32.3417 5.56065V5.52941C32.3417 2.4805 29.8189 0 26.7181 0C25.0396 0 23.5316 0.727763 22.5004 1.87788C21.4691 0.727763 19.9611 0 18.2827 0C15.1818 0 12.659 2.4805 12.659 5.52941V5.56065C7.22303 5.07452 2.96201 10.1632 4.55753 15.3398C1.75603 17.1008 0.00585938 20.1783 0.00585938 23.5C0.00585938 26.8244 1.75369 29.8976 4.55753 31.6602C2.96398 36.8305 7.21751 41.9249 12.659 41.4393V41.4706C12.659 44.5195 15.1818 47 18.2827 47C19.9611 47 21.4691 46.2722 22.5004 45.1221C23.5316 46.2722 25.0396 47 26.7181 47C29.8189 47 32.3417 44.5195 32.3417 41.4706V41.4393C37.785 41.9251 42.0408 36.8239 40.4436 31.6599ZM18.2827 44.2353C16.7322 44.2353 15.4708 42.9951 15.4708 41.4706V37.7778C13.9112 38.2677 13.2371 38.7059 11.9561 38.7059C8.82727 38.7059 6.46263 35.8467 7.15509 32.8085C10.3074 33.6911 13.8259 32.985 16.4085 30.7122L14.5332 28.6522C13.2438 29.7869 11.5796 30.4118 9.84724 30.4118C5.89501 30.4118 2.81767 27.2337 2.81767 23.5C2.81767 20.8101 4.42444 18.3444 6.91102 17.2183L8.24241 16.6154C7.80977 15.6442 7.0354 14.7877 7.0354 13.1324C7.0354 10.4646 9.24276 8.29411 11.9561 8.29411C13.5701 8.29411 15.1182 9.07819 16.049 10.4457L18.3859 8.90789C17.6379 7.809 16.6294 6.94089 15.4708 6.35956V5.52941C15.4708 4.00495 16.7322 2.7647 18.2827 2.7647C19.833 2.7647 21.0944 4.00495 21.0944 5.52941V19.353C21.0944 20.8774 19.833 22.1176 18.2827 22.1176C16.7322 22.1176 15.4708 20.8774 15.4708 19.353H12.659C12.659 23.6111 17.3708 26.2621 21.0944 24.1384V41.4706C21.0944 42.9951 19.833 44.2353 18.2827 44.2353ZM31.4046 38.4296L29.5299 37.7778V41.4706C29.5299 42.9951 28.2685 44.2353 26.7181 44.2353C25.1677 44.2353 23.9063 42.9951 23.9063 41.4706V35.1973C24.734 35.6694 25.6942 35.9411 26.7181 35.9411V33.1765C25.1677 33.1765 23.9063 31.9362 23.9063 30.4118V19.9914C24.734 20.4635 25.6942 20.7353 26.7181 20.7353V17.9706C25.1677 17.9706 23.9063 16.7303 23.9063 15.2059V5.52941C23.9063 4.00495 25.1677 2.7647 26.7181 2.7647C28.2685 2.7647 29.5299 4.00495 29.5299 5.52941V9.22219C31.0896 8.73223 31.7636 8.29411 33.0446 8.29411C35.758 8.29411 37.9653 10.4646 37.9653 13.1324C37.9653 15.7812 35.7733 17.9706 33.0446 17.9706V20.7353C35.5171 20.7353 37.7205 19.5872 39.1369 17.806C41.0179 19.0827 42.1831 21.2098 42.1831 23.5C42.1831 25.7902 41.0179 27.9173 39.1369 29.194C37.7205 27.4129 35.5171 26.2647 33.0446 26.2647V29.0294C35.7583 29.0294 37.9653 31.2032 37.9653 33.8676C37.9653 37.197 34.603 39.5416 31.4046 38.4296Z" fill="white"/>
</svg>
