<svg width="47" height="47" viewBox="0 0 47 47" fill="none" xmlns="http://www.w3.org/2000/svg">
<g clip-path="url(#clip0_185_766)">
<path d="M31.3328 6.83389V3.13333H32.8995V0H20.3662V3.13333H21.9328V6.8404C17.202 7.96089 12.9336 10.781 10.085 14.7541L12.6308 16.5793C15.2623 12.9105 19.3174 10.383 23.7604 9.644C25.679 9.31968 27.5845 9.31894 29.5076 9.64482C37.8274 11.0363 43.8662 18.1811 43.8662 26.6333C43.8662 36.1358 36.1354 43.8667 26.6328 43.8667C21.0952 43.8667 15.8613 41.1824 12.63 36.6859L10.0857 38.5141C13.9037 43.8277 20.0893 47 26.6328 47C37.8634 47 46.9995 37.8639 46.9995 26.6333C46.9995 17.0944 40.4829 8.97946 31.3328 6.83389ZM25.0662 6.33436V3.13333H28.1995V6.33445C27.1547 6.25308 26.1094 6.25318 25.0662 6.33436Z" fill="white"/>
<path d="M0 25.0667H14.1V28.2H0V25.0667Z" fill="white"/>
<path d="M3.13379 31.3333H17.2338V34.4666H3.13379V31.3333Z" fill="white"/>
<path d="M34.3775 16.6741L28.6473 22.4042C28.0346 22.111 27.357 21.9332 26.6336 21.9332C24.0419 21.9332 21.9336 24.0415 21.9336 26.6332C21.9336 29.225 24.0419 31.3332 26.6336 31.3332C29.2254 31.3332 31.3336 29.225 31.3336 26.6332C31.3336 25.9098 31.1559 25.2323 30.8627 24.6196L36.5928 18.8894L34.3775 16.6741ZM26.6336 28.1999C25.77 28.1999 25.067 27.4969 25.067 26.6332C25.067 25.7696 25.77 25.0666 26.6336 25.0666C27.4973 25.0666 28.2003 25.7696 28.2003 26.6332C28.2003 27.4969 27.4973 28.1999 26.6336 28.1999Z" fill="white"/>
</g>
<defs>
<clipPath id="clip0_185_766">
<rect width="47" height="47" fill="white"/>
</clipPath>
</defs>
</svg>
