<svg width="882" height="389" viewBox="0 0 882 389" fill="none" xmlns="http://www.w3.org/2000/svg">
<g opacity="0.5" clip-path="url(#clip0_98_195)">
<path style="mix-blend-mode:color-dodge" d="M8.71399 244.398C10.1599 244.398 11.3713 245.394 11.7426 246.723H51.6798L67.9752 230.426H207.052L233.586 256.962H280.577L312.737 224.798H367.29L415.023 272.536H537.922L572.545 307.163H586.476L610.372 331.061H653.63L705.662 383.118C706.874 382.434 708.417 382.591 709.453 383.626C710.684 384.857 710.684 386.87 709.453 388.101C708.222 389.332 706.209 389.332 704.978 388.101C703.943 387.065 703.787 385.522 704.47 384.31L652.927 332.761H609.688L585.792 308.863H571.861L537.238 274.236H414.339L366.606 226.498H313.441L281.28 258.662H232.882L206.349 232.126H68.659L52.3637 248.423H11.7426C11.3713 249.752 10.1599 250.748 8.71399 250.748C6.95551 250.748 5.54871 249.341 5.54871 247.583C5.54871 245.824 6.95551 244.417 8.71399 244.417V244.398Z" fill="url(#paint0_linear_98_195)"/>
<path style="mix-blend-mode:color-dodge" d="M3.16534 90.396C4.61121 90.396 5.84216 91.3731 6.21338 92.7214H70.4178L83.9387 106.244H174.462L191.969 88.7155H232.707L239.917 95.9066H302.773L336.282 62.394H401.268L430.303 91.4317H489.368L527.234 53.5615H565.687L596.011 83.8889H617.699L662.619 38.9645H688.39L722.622 4.70935C721.938 3.49782 722.095 1.95409 723.13 0.918423C724.361 -0.312651 726.374 -0.312651 727.605 0.918423C728.836 2.1495 728.836 4.16221 727.605 5.39328C726.569 6.42895 725.026 6.58527 723.814 5.90134L689.074 40.645H663.303L618.383 85.5694H595.288L564.964 55.242H527.918L490.052 93.0927H429.599L400.565 64.0745H336.966L303.457 97.5871H239.213L232.004 90.396H192.652L175.146 107.905H83.2353L69.7144 94.3824H6.21338C5.84216 95.7112 4.63074 96.7077 3.16534 96.7077C1.42639 96.7077 6.10352e-05 95.2812 6.10352e-05 93.5421C6.10352e-05 91.803 1.42639 90.3765 3.16534 90.3765V90.396Z" fill="url(#paint1_linear_98_195)"/>
<path style="mix-blend-mode:color-dodge" d="M12.1725 181.789C13.6183 181.789 14.8298 182.785 15.201 184.114H138.881L175.829 147.182H225.419L254.219 175.966H326.356L358.263 144.055H410.978L423.112 156.19H469.243L488.137 137.294H525.417L545.796 157.675H585.069L612.345 130.396H662.071L697.554 94.91H821.176L848.608 67.4551C847.924 66.2435 848.081 64.6998 849.116 63.6642C850.347 62.4331 852.36 62.4331 853.59 63.6642C854.821 64.8952 854.821 66.9079 853.59 68.139C852.555 69.1747 851.011 69.331 849.8 68.6471L821.859 96.5905H698.257L662.775 132.077H613.049L585.772 159.356H545.112L524.733 138.975H488.841L469.947 157.89H422.428L410.295 145.755H358.966L327.059 177.666H253.516L224.715 148.882H176.513L139.585 185.814H15.201C14.8298 187.143 13.6183 188.139 12.1725 188.139C10.4335 188.139 9.0072 186.733 9.0072 184.974C9.0072 183.215 10.414 181.808 12.1725 181.808V181.789Z" fill="url(#paint2_linear_98_195)"/>
<path style="mix-blend-mode:color-dodge" d="M69.0109 213.034L50.2733 231.755H15.9045C15.5333 233.103 14.3219 234.08 12.876 234.08C11.1371 234.08 9.71075 232.673 9.71075 230.914C9.71075 229.156 11.1175 227.749 12.876 227.749C14.3219 227.749 15.5333 228.726 15.9045 230.074H49.5894L68.3271 211.354H145.329L185.208 171.471H216.783L241.929 196.62H335.403L363.402 168.618H404.765L427.176 191.031H497.008L517.699 170.338H603.143L652.791 219.991H751.579L770.766 239.18C771.977 238.496 773.521 238.653 774.556 239.688C775.787 240.919 775.787 242.932 774.556 244.163C773.325 245.394 771.313 245.394 770.082 244.163C769.046 243.127 768.89 241.584 769.574 240.372L750.875 221.691H652.087L602.439 172.038H518.403L497.692 192.751H426.453L404.023 170.338H364.066L336.067 198.34H241.206L216.06 173.191H185.892L146.013 213.074H69.0109V213.034Z" fill="url(#paint3_linear_98_195)"/>
<path style="mix-blend-mode:color-dodge" d="M178.077 159.082C179.308 157.851 181.32 157.851 182.551 159.082C183.782 160.313 183.782 162.326 182.551 163.557C181.515 164.573 179.972 164.749 178.76 164.065L147.225 195.604H66.5687L44.6462 217.529H17.839C17.4678 218.858 16.2564 219.854 14.8105 219.854C13.052 219.854 11.6452 218.447 11.6452 216.689C11.6452 214.93 13.052 213.523 14.8105 213.523C16.2564 213.523 17.4678 214.52 17.839 215.848H43.9428L65.8653 193.924H146.521L177.569 162.873C176.885 161.662 177.041 160.118 178.077 159.082Z" fill="url(#paint4_linear_98_195)"/>
<path style="mix-blend-mode:color-dodge" d="M172.801 214.813C171.57 216.044 169.558 216.044 168.327 214.813C167.096 213.582 167.096 211.569 168.327 210.338C169.362 209.302 170.906 209.146 172.117 209.83L193.629 188.315H214.38L239.331 213.269H332.12L360.686 184.7H398.103L425.809 212.39H500.681C501.052 211.061 502.264 210.064 503.71 210.064C505.449 210.064 506.875 211.491 506.875 213.23C506.875 214.969 505.468 216.395 503.71 216.395C502.264 216.395 501.052 215.399 500.681 214.07H425.105L397.419 186.381H361.389L332.824 214.949H238.627L213.676 189.996H194.313L173.309 211.022C173.993 212.233 173.817 213.777 172.801 214.813Z" fill="url(#paint5_linear_98_195)"/>
<path style="mix-blend-mode:color-dodge" d="M200.644 214.891H219.987L236.771 231.677H280.596C280.968 230.348 282.179 229.351 283.625 229.351C285.383 229.351 286.79 230.758 286.79 232.517C286.79 234.275 285.383 235.682 283.625 235.682C282.179 235.682 280.968 234.686 280.596 233.357H236.087L219.303 216.571H200.663C200.292 217.9 199.08 218.897 197.635 218.897C195.896 218.897 194.489 217.47 194.489 215.731C194.489 213.992 195.896 212.566 197.635 212.566C199.08 212.566 200.292 213.543 200.663 214.891H200.644Z" fill="url(#paint6_linear_98_195)"/>
<path style="mix-blend-mode:color-dodge" d="M761.113 324.769H719.144L686.495 292.116H605.35L565.257 252.019H422.565L379.13 208.599C377.919 209.283 376.375 209.126 375.34 208.091C374.109 206.86 374.109 204.847 375.34 203.616C376.571 202.385 378.583 202.385 379.814 203.616C380.83 204.651 381.006 206.195 380.322 207.407L423.249 250.338H565.941L606.034 290.436H687.179L719.828 323.089H761.797L792.571 353.865H845.736C846.107 352.537 847.319 351.54 848.764 351.54C850.503 351.54 851.93 352.947 851.93 354.706C851.93 356.464 850.523 357.871 848.764 357.871C847.319 357.871 846.107 356.875 845.736 355.546H791.907L761.133 324.769H761.113Z" fill="url(#paint7_linear_98_195)"/>
<path style="mix-blend-mode:color-dodge" d="M514.671 241.291H436.086L397.79 202.99C396.578 203.674 395.035 203.518 393.999 202.482C392.768 201.251 392.768 199.239 393.999 198.008C395.25 196.776 397.243 196.776 398.474 198.008C399.509 199.043 399.665 200.587 398.982 201.798L436.789 239.61H513.967L537.512 216.063H584.62L619.477 250.924H706.756C707.128 249.595 708.339 248.599 709.804 248.599C711.543 248.599 712.97 250.025 712.97 251.764C712.97 253.504 711.543 254.93 709.804 254.93C708.359 254.93 707.128 253.933 706.756 252.605H618.773L583.916 217.744H538.215L514.671 241.291Z" fill="url(#paint8_linear_98_195)"/>
<path style="mix-blend-mode:color-dodge" d="M742.005 296.337L715.432 269.742H608.184L571.802 233.377H548.512C548.141 234.705 546.93 235.702 545.484 235.702C543.745 235.702 542.338 234.275 542.338 232.536C542.338 230.797 543.745 229.371 545.484 229.371C546.949 229.371 548.16 230.348 548.512 231.696H572.506L608.867 268.081H716.116L742.708 294.657H780.496L799.898 314.061C801.109 313.377 802.653 313.533 803.689 314.569C804.92 315.8 804.92 317.813 803.689 319.044C802.458 320.275 800.445 320.275 799.214 319.044C798.198 318.008 798.042 316.464 798.706 315.253L779.793 296.337H742.005Z" fill="url(#paint9_linear_98_195)"/>
<path style="mix-blend-mode:color-dodge" d="M719.359 231.032H643.138L598.375 186.264H531.005L512.365 204.925H462.248C461.877 206.254 460.665 207.25 459.22 207.25C457.461 207.25 456.054 205.824 456.054 204.085C456.054 202.346 457.461 200.919 459.22 200.919C460.665 200.919 461.877 201.896 462.248 203.245H511.662L530.321 184.583H599.098L643.861 229.351H719.378C719.75 228.022 720.961 227.026 722.407 227.026C724.165 227.026 725.572 228.433 725.572 230.191C725.572 231.95 724.165 233.357 722.407 233.357C720.961 233.357 719.75 232.36 719.378 231.032H719.359Z" fill="url(#paint10_linear_98_195)"/>
<path style="mix-blend-mode:color-dodge" d="M803.083 282.561C801.637 282.561 800.406 281.584 800.035 280.236H769.281L730.34 241.291H631.024L590.462 200.724H536.124L511.877 224.974H447.77C447.399 226.303 446.187 227.299 444.742 227.299C443.003 227.299 441.596 225.873 441.596 224.134C441.596 222.395 443.003 220.968 444.742 220.968C446.207 220.968 447.399 221.945 447.77 223.293H511.173L535.421 199.043H591.126L631.708 239.61H731.024L769.965 278.555H800.015C800.386 277.226 801.598 276.23 803.063 276.23C804.802 276.23 806.229 277.637 806.229 279.395C806.229 281.154 804.802 282.561 803.063 282.561H803.083Z" fill="url(#paint11_linear_98_195)"/>
<path style="mix-blend-mode:color-dodge" d="M694.213 347.866L660.411 314.061H607.714L556.894 263.235H429.15C428.778 264.564 427.567 265.56 426.102 265.56C424.363 265.56 422.956 264.153 422.956 262.395C422.956 260.636 424.363 259.229 426.102 259.229C427.567 259.229 428.778 260.226 429.15 261.554H557.598L608.418 312.38H661.114L694.916 346.186H748.785L782.528 379.933C783.739 379.249 785.283 379.405 786.318 380.441C787.549 381.672 787.549 383.685 786.318 384.916C785.088 386.147 783.075 386.147 781.844 384.916C780.809 383.88 780.652 382.337 781.336 381.125L748.081 347.866H694.213Z" fill="url(#paint12_linear_98_195)"/>
<path style="mix-blend-mode:color-dodge" d="M8.28448 112.575C6.54553 112.575 5.1192 111.148 5.1192 109.409C5.1192 107.67 6.52599 106.244 8.28448 106.244C9.73035 106.244 10.9418 107.221 11.313 108.569H62.3483L81.9262 128.149H165.845C166.216 126.82 167.428 125.824 168.874 125.824C170.613 125.824 172.039 127.25 172.039 128.989C172.039 130.728 170.613 132.155 168.874 132.155C167.428 132.155 166.216 131.158 165.845 129.829H81.2228L61.6449 110.25H11.313C10.9418 111.578 9.73035 112.575 8.28448 112.575Z" fill="url(#paint13_linear_98_195)"/>
<path style="mix-blend-mode:color-dodge" d="M111.801 115.584C113.247 115.584 114.458 116.561 114.829 117.91H185.677L200.136 103.449H310.667L338.881 75.2323H392.495L427.821 110.562H505.566L537.336 78.7887H571.548L594.839 102.081H628.68L658.535 72.223H814.943C815.314 70.8942 816.526 69.8976 817.991 69.8976C819.73 69.8976 821.156 71.3046 821.156 73.0633C821.156 74.8219 819.73 76.2289 817.991 76.2289C816.545 76.2289 815.314 75.2518 814.943 73.9035H659.238L629.383 103.762H594.155L570.864 80.4693H538.039L506.269 112.243H427.118L391.792 76.9128H339.564L311.35 105.13H200.839L186.38 119.59H114.829C114.458 120.919 113.247 121.915 111.801 121.915C110.042 121.915 108.636 120.489 108.636 118.75C108.636 117.011 110.042 115.584 111.801 115.584Z" fill="url(#paint14_linear_98_195)"/>
<path style="mix-blend-mode:color-dodge" d="M451.013 138.662H465.472L480.966 123.147H539.837L554.002 137.314H585.772L602.478 120.606H653.865L692.982 81.4854H810.293C810.664 80.1566 811.875 79.16 813.321 79.16C815.08 79.16 816.486 80.5865 816.486 82.3257C816.486 84.0648 815.08 85.4913 813.321 85.4913C811.875 85.4913 810.664 84.5142 810.293 83.1659H693.685L654.568 122.287H603.181L586.476 138.994H553.299L539.133 124.827H481.65L466.156 140.342H450.31L437.493 127.524H358.439L326.258 159.707H268.678L245.368 136.395H194.098C193.727 137.724 192.515 138.721 191.05 138.721C189.311 138.721 187.885 137.294 187.885 135.555C187.885 133.816 189.311 132.389 191.05 132.389C192.496 132.389 193.727 133.386 194.098 134.715H246.071L269.381 158.027H325.575L357.755 125.843H438.177L450.994 138.662H451.013Z" fill="url(#paint15_linear_98_195)"/>
<path style="mix-blend-mode:color-dodge" d="M79.1517 140.108L62.3679 156.894H17.8586C17.4873 158.222 16.2759 159.219 14.83 159.219C13.0715 159.219 11.6647 157.792 11.6647 156.053C11.6647 154.314 13.0715 152.888 14.83 152.888C16.2759 152.888 17.4873 153.884 17.8586 155.213H61.684L78.4678 138.427H155.626C155.998 137.099 157.209 136.102 158.675 136.102C160.413 136.102 161.82 137.529 161.82 139.268C161.82 141.007 160.413 142.433 158.675 142.433C157.209 142.433 155.998 141.437 155.626 140.108H79.1712H79.1517Z" fill="url(#paint16_linear_98_195)"/>
<path style="mix-blend-mode:color-dodge" d="M7.34669 171.549C8.79257 171.549 10.0235 172.526 10.3752 173.875H71.9028L89.1556 156.62H144.392C144.763 155.291 145.974 154.295 147.42 154.295C149.159 154.295 150.566 155.721 150.566 157.46C150.566 159.199 149.159 160.626 147.42 160.626C145.955 160.626 144.763 159.649 144.392 158.301H89.8589L72.6062 175.555H10.3557C9.98445 176.884 8.77301 177.881 7.32713 177.881C5.5882 177.881 4.16187 176.454 4.16187 174.715C4.16187 172.976 5.56865 171.549 7.32713 171.549H7.34669Z" fill="url(#paint17_linear_98_195)"/>
<path style="mix-blend-mode:color-dodge" d="M392.495 101.339C392.866 100.01 394.077 99.0135 395.523 99.0135C397.282 99.0135 398.688 100.42 398.688 102.179C398.688 103.938 397.282 105.345 395.523 105.345C394.077 105.345 392.866 104.368 392.495 103.019H366.625L327.235 142.433H277.568L261.253 126.117H204.375C204.004 127.446 202.793 128.442 201.347 128.442C199.608 128.442 198.201 127.016 198.201 125.276C198.201 123.537 199.608 122.111 201.347 122.111C202.812 122.111 204.024 123.088 204.375 124.436H261.956L278.271 140.753H326.532L365.941 101.339H392.514H392.495Z" fill="url(#paint18_linear_98_195)"/>
<path style="mix-blend-mode:color-dodge" d="M348.044 94.9491C349.295 93.718 351.288 93.718 352.519 94.9491C353.75 96.1801 353.75 98.1928 352.519 99.4239C351.483 100.44 349.94 100.616 348.728 99.932L317.896 130.767H285.481L269.635 114.92H214.634C214.262 116.249 213.051 117.245 211.605 117.245C209.866 117.245 208.44 115.819 208.44 114.08C208.44 112.34 209.866 110.914 211.605 110.914C213.051 110.914 214.262 111.911 214.634 113.239H270.339L286.185 129.087H317.193L347.536 98.74C346.852 97.5285 347.009 95.9847 348.044 94.9491Z" fill="url(#paint19_linear_98_195)"/>
<path style="mix-blend-mode:color-dodge" d="M759.941 195.78L791.477 227.319C792.688 226.635 794.251 226.791 795.267 227.827C796.498 229.058 796.498 231.071 795.267 232.302C794.036 233.533 792.024 233.533 790.793 232.302C789.757 231.286 789.601 229.722 790.285 228.511L759.238 197.46H649.664L611.368 159.16C610.157 159.844 608.613 159.688 607.578 158.652C606.347 157.421 606.347 155.408 607.578 154.177C608.828 152.946 610.821 152.946 612.052 154.177C613.088 155.213 613.244 156.757 612.56 157.968L650.368 195.78H759.941Z" fill="url(#paint20_linear_98_195)"/>
<path style="mix-blend-mode:color-dodge" d="M847.631 118.183H814.513L799.136 133.581H763.927L746.205 115.858H702.146L671.372 146.635H624.069C623.697 147.963 622.486 148.96 621.04 148.96C619.301 148.96 617.875 147.534 617.875 145.794C617.875 144.055 619.282 142.629 621.04 142.629C622.486 142.629 623.697 143.606 624.069 144.954H670.688L701.462 114.177H746.909L764.631 131.901H798.433L813.829 116.503H846.908L876.099 87.3281C875.415 86.1166 875.572 84.5533 876.607 83.5372C877.858 82.3061 879.851 82.3061 881.082 83.5372C882.313 84.7683 882.313 86.781 881.082 88.0121C880.046 89.0477 878.503 89.204 877.291 88.5201L847.631 118.203V118.183Z" fill="url(#paint21_linear_98_195)"/>
<path style="mix-blend-mode:color-dodge" d="M697.69 177.118L720.316 154.51H747.827L769.163 175.848H800.054L815.92 191.715C817.131 191.031 818.675 191.188 819.71 192.223C820.941 193.455 820.941 195.467 819.71 196.698C818.479 197.929 816.467 197.929 815.236 196.698C814.2 195.663 814.044 194.119 814.728 192.907L799.37 177.548H768.479L747.143 156.21H721.039L698.433 178.838H656.229L639.387 161.994C638.175 162.678 636.632 162.521 635.596 161.486C634.365 160.255 634.365 158.242 635.596 157.011C636.827 155.78 638.84 155.78 640.071 157.011C641.087 158.046 641.262 159.59 640.579 160.802L656.933 177.157H697.729L697.69 177.118Z" fill="url(#paint22_linear_98_195)"/>
<path style="mix-blend-mode:color-dodge" d="M740.617 187.67C740.246 188.999 739.035 189.996 737.589 189.996C735.85 189.996 734.423 188.569 734.423 186.83C734.423 185.091 735.83 183.665 737.589 183.665C739.035 183.665 740.246 184.642 740.617 185.99H787.002L822.035 221.027C823.247 220.343 824.79 220.499 825.826 221.535C827.057 222.766 827.057 224.779 825.826 226.01C824.595 227.241 822.582 227.241 821.351 226.01C820.316 224.974 820.16 223.43 820.843 222.219L786.299 187.67H740.617Z" fill="url(#paint23_linear_98_195)"/>
<path style="mix-blend-mode:color-dodge" d="M812.403 162.248H779.05L762.97 146.166H697.905L684.385 159.688H658.535C658.164 161.017 656.952 162.013 655.487 162.013C653.748 162.013 652.322 160.606 652.322 158.848C652.322 157.089 653.748 155.682 655.487 155.682C656.933 155.682 658.164 156.679 658.535 158.007H683.701L697.222 144.485H763.693L779.773 160.567H813.106L859.921 207.387C861.132 206.703 862.676 206.86 863.712 207.895C864.962 209.126 864.962 211.139 863.712 212.37C862.481 213.601 860.468 213.601 859.237 212.37C858.221 211.334 858.065 209.791 858.729 208.579L812.422 162.248H812.403Z" fill="url(#paint24_linear_98_195)"/>
<path style="mix-blend-mode:color-dodge" d="M687.589 145.794C686.358 147.025 684.365 147.025 683.115 145.794C681.884 144.563 681.884 142.551 683.115 141.32C684.15 140.284 685.694 140.128 686.905 140.811L700.016 127.7H735.674C736.045 126.371 737.257 125.374 738.702 125.374C740.441 125.374 741.868 126.801 741.868 128.54C741.868 130.279 740.441 131.705 738.702 131.705C737.257 131.705 736.045 130.709 735.674 129.38H700.719L688.097 142.003C688.781 143.215 688.625 144.759 687.589 145.794Z" fill="url(#paint25_linear_98_195)"/>
<path style="mix-blend-mode:color-dodge" d="M848.764 9.51637C847.319 9.51637 846.107 8.51979 845.736 7.19101H802.399L793.548 16.043H742.239L704.002 54.2845H666.018C665.647 55.6133 664.436 56.6099 662.99 56.6099C661.251 56.6099 659.824 55.2029 659.824 53.4442C659.824 51.6856 661.251 50.2786 662.99 50.2786C664.436 50.2786 665.647 51.2752 666.018 52.604H703.298L741.536 14.3625H792.844L801.695 5.49095H845.736C846.107 4.16217 847.319 3.16559 848.764 3.16559C850.503 3.16559 851.93 4.59207 851.93 6.33121C851.93 8.07035 850.523 9.49683 848.764 9.49683V9.51637Z" fill="url(#paint26_linear_98_195)"/>
<path style="mix-blend-mode:color-dodge" d="M877.682 27.0055C876.216 27.0055 875.025 26.0285 874.653 24.6801H804.021L796.322 32.3792H753.884L720.766 65.501H676.257C675.885 66.8298 674.674 67.8264 673.209 67.8264C671.47 67.8264 670.063 66.3999 670.063 64.6607C670.063 62.9216 671.47 61.4951 673.209 61.4951C674.674 61.4951 675.885 62.4722 676.257 63.8205H720.063L753.181 30.6987H795.619L803.317 22.9996H874.653C875.025 21.6708 876.236 20.6743 877.682 20.6743C879.421 20.6743 880.847 22.1007 880.847 23.8399C880.847 25.579 879.44 27.0055 877.682 27.0055Z" fill="url(#paint27_linear_98_195)"/>
<path style="mix-blend-mode:color-dodge" d="M827.877 32.9264C829.108 31.6953 831.121 31.6953 832.352 32.9264C833.583 34.1574 833.583 36.1701 832.352 37.4012C831.316 38.4369 829.773 38.5932 828.561 37.9093L808.456 58.0168H758.358C757.987 59.3456 756.776 60.3422 755.33 60.3422C753.591 60.3422 752.165 58.9157 752.165 57.1766C752.165 55.4374 753.571 54.011 755.33 54.011C756.776 54.011 757.987 54.988 758.358 56.3363H807.772L827.369 36.7173C826.685 35.5058 826.861 33.962 827.877 32.9264Z" fill="url(#paint28_linear_98_195)"/>
</g>
<defs>
<linearGradient id="paint0_linear_98_195" x1="710.391" y1="306.889" x2="5.5487" y2="306.889" gradientUnits="userSpaceOnUse">
<stop stop-color="#D6D6D6"/>
<stop offset="0.29" stop-color="#929399"/>
<stop offset="0.45" stop-color="#6C6E7A"/>
<stop offset="0.71" stop-color="#32374C"/>
<stop offset="0.9" stop-color="#0E152F"/>
<stop offset="1" stop-color="#010825"/>
</linearGradient>
<linearGradient id="paint1_linear_98_195" x1="728.523" y1="53.9719" x2="3.97555e-05" y2="53.9719" gradientUnits="userSpaceOnUse">
<stop stop-color="#D6D6D6"/>
<stop offset="0.29" stop-color="#929399"/>
<stop offset="0.45" stop-color="#6C6E7A"/>
<stop offset="0.71" stop-color="#32374C"/>
<stop offset="0.9" stop-color="#0E152F"/>
<stop offset="1" stop-color="#010825"/>
</linearGradient>
<linearGradient id="paint2_linear_98_195" x1="854.528" y1="125.433" x2="9.00719" y2="125.433" gradientUnits="userSpaceOnUse">
<stop stop-color="#D6D6D6"/>
<stop offset="0.29" stop-color="#929399"/>
<stop offset="0.45" stop-color="#6C6E7A"/>
<stop offset="0.71" stop-color="#32374C"/>
<stop offset="0.9" stop-color="#0E152F"/>
<stop offset="1" stop-color="#010825"/>
</linearGradient>
<linearGradient id="paint3_linear_98_195" x1="775.475" y1="206.82" x2="9.7108" y2="206.82" gradientUnits="userSpaceOnUse">
<stop stop-color="#D6D6D6"/>
<stop offset="0.29" stop-color="#929399"/>
<stop offset="0.45" stop-color="#6C6E7A"/>
<stop offset="0.71" stop-color="#32374C"/>
<stop offset="0.9" stop-color="#0E152F"/>
<stop offset="1" stop-color="#010825"/>
</linearGradient>
<linearGradient id="paint4_linear_98_195" x1="183.469" y1="188.999" x2="11.6452" y2="188.999" gradientUnits="userSpaceOnUse">
<stop stop-color="#D6D6D6"/>
<stop offset="0.29" stop-color="#929399"/>
<stop offset="0.45" stop-color="#6C6E7A"/>
<stop offset="0.71" stop-color="#32374C"/>
<stop offset="0.9" stop-color="#0E152F"/>
<stop offset="1" stop-color="#010825"/>
</linearGradient>
<linearGradient id="paint5_linear_98_195" x1="506.855" y1="200.548" x2="167.408" y2="200.548" gradientUnits="userSpaceOnUse">
<stop stop-color="#D6D6D6"/>
<stop offset="0.29" stop-color="#929399"/>
<stop offset="0.45" stop-color="#6C6E7A"/>
<stop offset="0.71" stop-color="#32374C"/>
<stop offset="0.9" stop-color="#0E152F"/>
<stop offset="1" stop-color="#010825"/>
</linearGradient>
<linearGradient id="paint6_linear_98_195" x1="286.771" y1="224.134" x2="194.45" y2="224.134" gradientUnits="userSpaceOnUse">
<stop stop-color="#D6D6D6"/>
<stop offset="0.29" stop-color="#929399"/>
<stop offset="0.45" stop-color="#6C6E7A"/>
<stop offset="0.71" stop-color="#32374C"/>
<stop offset="0.9" stop-color="#0E152F"/>
<stop offset="1" stop-color="#010825"/>
</linearGradient>
<linearGradient id="paint7_linear_98_195" x1="851.93" y1="280.294" x2="374.441" y2="280.294" gradientUnits="userSpaceOnUse">
<stop stop-color="#D6D6D6"/>
<stop offset="0.29" stop-color="#929399"/>
<stop offset="0.45" stop-color="#6C6E7A"/>
<stop offset="0.71" stop-color="#32374C"/>
<stop offset="0.9" stop-color="#0E152F"/>
<stop offset="1" stop-color="#010825"/>
</linearGradient>
<linearGradient id="paint8_linear_98_195" x1="712.97" y1="226.01" x2="393.081" y2="226.01" gradientUnits="userSpaceOnUse">
<stop stop-color="#D6D6D6"/>
<stop offset="0.29" stop-color="#929399"/>
<stop offset="0.45" stop-color="#6C6E7A"/>
<stop offset="0.71" stop-color="#32374C"/>
<stop offset="0.9" stop-color="#0E152F"/>
<stop offset="1" stop-color="#010825"/>
</linearGradient>
<linearGradient id="paint9_linear_98_195" x1="804.587" y1="274.666" x2="542.318" y2="274.666" gradientUnits="userSpaceOnUse">
<stop stop-color="#D6D6D6"/>
<stop offset="0.29" stop-color="#929399"/>
<stop offset="0.45" stop-color="#6C6E7A"/>
<stop offset="0.71" stop-color="#32374C"/>
<stop offset="0.9" stop-color="#0E152F"/>
<stop offset="1" stop-color="#010825"/>
</linearGradient>
<linearGradient id="paint10_linear_98_195" x1="725.553" y1="208.97" x2="456.035" y2="208.97" gradientUnits="userSpaceOnUse">
<stop stop-color="#D6D6D6"/>
<stop offset="0.29" stop-color="#929399"/>
<stop offset="0.45" stop-color="#6C6E7A"/>
<stop offset="0.71" stop-color="#32374C"/>
<stop offset="0.9" stop-color="#0E152F"/>
<stop offset="1" stop-color="#010825"/>
</linearGradient>
<linearGradient id="paint11_linear_98_195" x1="806.248" y1="240.802" x2="441.596" y2="240.802" gradientUnits="userSpaceOnUse">
<stop stop-color="#D6D6D6"/>
<stop offset="0.29" stop-color="#929399"/>
<stop offset="0.45" stop-color="#6C6E7A"/>
<stop offset="0.71" stop-color="#32374C"/>
<stop offset="0.9" stop-color="#0E152F"/>
<stop offset="1" stop-color="#010825"/>
</linearGradient>
<linearGradient id="paint12_linear_98_195" x1="787.217" y1="322.522" x2="422.936" y2="322.522" gradientUnits="userSpaceOnUse">
<stop stop-color="#D6D6D6"/>
<stop offset="0.29" stop-color="#929399"/>
<stop offset="0.45" stop-color="#6C6E7A"/>
<stop offset="0.71" stop-color="#32374C"/>
<stop offset="0.9" stop-color="#0E152F"/>
<stop offset="1" stop-color="#010825"/>
</linearGradient>
<linearGradient id="paint13_linear_98_195" x1="172.059" y1="119.199" x2="5.1192" y2="119.199" gradientUnits="userSpaceOnUse">
<stop stop-color="#D6D6D6"/>
<stop offset="0.29" stop-color="#929399"/>
<stop offset="0.45" stop-color="#6C6E7A"/>
<stop offset="0.71" stop-color="#32374C"/>
<stop offset="0.9" stop-color="#0E152F"/>
<stop offset="1" stop-color="#010825"/>
</linearGradient>
<linearGradient id="paint14_linear_98_195" x1="821.156" y1="95.887" x2="108.636" y2="95.887" gradientUnits="userSpaceOnUse">
<stop stop-color="#D6D6D6"/>
<stop offset="0.29" stop-color="#929399"/>
<stop offset="0.45" stop-color="#6C6E7A"/>
<stop offset="0.71" stop-color="#32374C"/>
<stop offset="0.9" stop-color="#0E152F"/>
<stop offset="1" stop-color="#010825"/>
</linearGradient>
<linearGradient id="paint15_linear_98_195" x1="816.486" y1="119.414" x2="187.904" y2="119.414" gradientUnits="userSpaceOnUse">
<stop stop-color="#D6D6D6"/>
<stop offset="0.29" stop-color="#929399"/>
<stop offset="0.45" stop-color="#6C6E7A"/>
<stop offset="0.71" stop-color="#32374C"/>
<stop offset="0.9" stop-color="#0E152F"/>
<stop offset="1" stop-color="#010825"/>
</linearGradient>
<linearGradient id="paint16_linear_98_195" x1="161.801" y1="147.651" x2="11.6452" y2="147.651" gradientUnits="userSpaceOnUse">
<stop stop-color="#D6D6D6"/>
<stop offset="0.29" stop-color="#929399"/>
<stop offset="0.45" stop-color="#6C6E7A"/>
<stop offset="0.71" stop-color="#32374C"/>
<stop offset="0.9" stop-color="#0E152F"/>
<stop offset="1" stop-color="#010825"/>
</linearGradient>
<linearGradient id="paint17_linear_98_195" x1="150.605" y1="166.078" x2="4.1814" y2="166.078" gradientUnits="userSpaceOnUse">
<stop stop-color="#D6D6D6"/>
<stop offset="0.29" stop-color="#929399"/>
<stop offset="0.45" stop-color="#6C6E7A"/>
<stop offset="0.71" stop-color="#32374C"/>
<stop offset="0.9" stop-color="#0E152F"/>
<stop offset="1" stop-color="#010825"/>
</linearGradient>
<linearGradient id="paint18_linear_98_195" x1="398.688" y1="120.723" x2="198.182" y2="120.723" gradientUnits="userSpaceOnUse">
<stop stop-color="#D6D6D6"/>
<stop offset="0.29" stop-color="#929399"/>
<stop offset="0.45" stop-color="#6C6E7A"/>
<stop offset="0.71" stop-color="#32374C"/>
<stop offset="0.9" stop-color="#0E152F"/>
<stop offset="1" stop-color="#010825"/>
</linearGradient>
<linearGradient id="paint19_linear_98_195" x1="353.457" y1="112.399" x2="208.42" y2="112.399" gradientUnits="userSpaceOnUse">
<stop stop-color="#D6D6D6"/>
<stop offset="0.29" stop-color="#929399"/>
<stop offset="0.45" stop-color="#6C6E7A"/>
<stop offset="0.71" stop-color="#32374C"/>
<stop offset="0.9" stop-color="#0E152F"/>
<stop offset="1" stop-color="#010825"/>
</linearGradient>
<linearGradient id="paint20_linear_98_195" x1="796.205" y1="193.24" x2="606.659" y2="193.24" gradientUnits="userSpaceOnUse">
<stop stop-color="#D6D6D6"/>
<stop offset="0.29" stop-color="#929399"/>
<stop offset="0.45" stop-color="#6C6E7A"/>
<stop offset="0.71" stop-color="#32374C"/>
<stop offset="0.9" stop-color="#0E152F"/>
<stop offset="1" stop-color="#010825"/>
</linearGradient>
<linearGradient id="paint21_linear_98_195" x1="882" y1="115.78" x2="617.855" y2="115.78" gradientUnits="userSpaceOnUse">
<stop stop-color="#D6D6D6"/>
<stop offset="0.29" stop-color="#929399"/>
<stop offset="0.45" stop-color="#6C6E7A"/>
<stop offset="0.71" stop-color="#32374C"/>
<stop offset="0.9" stop-color="#0E152F"/>
<stop offset="1" stop-color="#010825"/>
</linearGradient>
<linearGradient id="paint22_linear_98_195" x1="820.628" y1="176.063" x2="634.639" y2="176.063" gradientUnits="userSpaceOnUse">
<stop stop-color="#D6D6D6"/>
<stop offset="0.29" stop-color="#929399"/>
<stop offset="0.45" stop-color="#6C6E7A"/>
<stop offset="0.71" stop-color="#32374C"/>
<stop offset="0.9" stop-color="#0E152F"/>
<stop offset="1" stop-color="#010825"/>
</linearGradient>
<linearGradient id="paint23_linear_98_195" x1="826.744" y1="205.296" x2="734.423" y2="205.296" gradientUnits="userSpaceOnUse">
<stop stop-color="#D6D6D6"/>
<stop offset="0.29" stop-color="#929399"/>
<stop offset="0.45" stop-color="#6C6E7A"/>
<stop offset="0.71" stop-color="#32374C"/>
<stop offset="0.9" stop-color="#0E152F"/>
<stop offset="1" stop-color="#010825"/>
</linearGradient>
<linearGradient id="paint24_linear_98_195" x1="864.63" y1="178.877" x2="652.341" y2="178.877" gradientUnits="userSpaceOnUse">
<stop stop-color="#D6D6D6"/>
<stop offset="0.29" stop-color="#929399"/>
<stop offset="0.45" stop-color="#6C6E7A"/>
<stop offset="0.71" stop-color="#32374C"/>
<stop offset="0.9" stop-color="#0E152F"/>
<stop offset="1" stop-color="#010825"/>
</linearGradient>
<linearGradient id="paint25_linear_98_195" x1="741.887" y1="136.044" x2="682.216" y2="136.044" gradientUnits="userSpaceOnUse">
<stop stop-color="#D6D6D6"/>
<stop offset="0.29" stop-color="#929399"/>
<stop offset="0.45" stop-color="#6C6E7A"/>
<stop offset="0.71" stop-color="#32374C"/>
<stop offset="0.9" stop-color="#0E152F"/>
<stop offset="1" stop-color="#010825"/>
</linearGradient>
<linearGradient id="paint26_linear_98_195" x1="851.93" y1="29.8975" x2="659.805" y2="29.8975" gradientUnits="userSpaceOnUse">
<stop stop-color="#D6D6D6"/>
<stop offset="0.29" stop-color="#929399"/>
<stop offset="0.45" stop-color="#6C6E7A"/>
<stop offset="0.71" stop-color="#32374C"/>
<stop offset="0.9" stop-color="#0E152F"/>
<stop offset="1" stop-color="#010825"/>
</linearGradient>
<linearGradient id="paint27_linear_98_195" x1="880.847" y1="44.2405" x2="670.082" y2="44.2405" gradientUnits="userSpaceOnUse">
<stop stop-color="#D6D6D6"/>
<stop offset="0.29" stop-color="#929399"/>
<stop offset="0.45" stop-color="#6C6E7A"/>
<stop offset="0.71" stop-color="#32374C"/>
<stop offset="0.9" stop-color="#0E152F"/>
<stop offset="1" stop-color="#010825"/>
</linearGradient>
<linearGradient id="paint28_linear_98_195" x1="833.27" y1="46.1751" x2="752.145" y2="46.1751" gradientUnits="userSpaceOnUse">
<stop stop-color="#D6D6D6"/>
<stop offset="0.29" stop-color="#929399"/>
<stop offset="0.45" stop-color="#6C6E7A"/>
<stop offset="0.71" stop-color="#32374C"/>
<stop offset="0.9" stop-color="#0E152F"/>
<stop offset="1" stop-color="#010825"/>
</linearGradient>
<clipPath id="clip0_98_195">
<rect width="882" height="389" fill="white" transform="matrix(-1 0 0 1 882 0)"/>
</clipPath>
</defs>
</svg>
