<svg width="48" height="43" viewBox="0 0 48 43" fill="none" xmlns="http://www.w3.org/2000/svg">
<g clip-path="url(#clip0_187_772)">
<path d="M47.9952 31.0422C47.9626 30.6577 47.7656 30.3043 47.4524 30.0686L38.7851 23.5465C38.2219 23.1227 37.4231 23.1761 36.9242 23.6706L36.2012 24.3873L34.1126 22.7371L31.6468 3.8742C31.646 3.86761 31.6451 3.86093 31.6441 3.85434C31.3269 1.68093 29.3913 0.0419922 27.1417 0.0419922C25.9239 0.0419922 24.8172 0.51243 24 1.27573C23.1828 0.51243 22.0762 0.0419922 20.8584 0.0419922C18.6088 0.0419922 16.6732 1.68093 16.356 3.85434C16.355 3.86093 16.3541 3.86761 16.3533 3.8742L13.8875 22.7373L11.7989 24.3875L11.0759 23.6708C10.5772 23.1762 9.77824 23.1228 9.21506 23.5467L0.547607 30.0687C0.234389 30.3043 0.0374212 30.6577 0.00479622 31.0423C-0.0278287 31.427 0.107077 31.8071 0.376233 32.0898L10.3097 42.52C10.5705 42.7939 10.9346 42.9522 11.3178 42.9579C11.3251 42.958 11.3324 42.9581 11.3397 42.9581C11.715 42.9581 12.0751 42.8116 12.3394 42.551L20.2763 34.7222C20.8174 34.1885 20.8185 33.3294 20.2787 32.7944L19.8203 32.3398L23.9999 28.2611L28.1795 32.3398L27.7211 32.7944C27.1812 33.3295 27.1824 34.1885 27.7235 34.7222L35.6605 42.551C35.9247 42.8117 36.2848 42.9581 36.6601 42.9581C36.6674 42.9581 36.6747 42.958 36.6821 42.9579C37.0652 42.9522 37.4293 42.7939 37.6901 42.52L47.6236 32.0897C47.893 31.8071 48.0278 31.4269 47.9952 31.0422ZM11.3715 39.6032L3.4861 31.3234L9.94559 26.4626L17.301 33.7545L11.3715 39.6032ZM22.1223 26.2119L17.8474 30.3838L13.7812 26.3527L16.0958 24.5238C16.3773 24.3013 16.56 23.9815 16.6059 23.6309L19.1414 4.23302C19.2662 3.40778 20.0028 2.78666 20.8583 2.78666C21.8152 2.78666 22.5937 3.54639 22.5937 4.48022V25.1012C22.5937 25.5208 22.4262 25.9152 22.1223 26.2119ZM25.8777 26.212C25.5737 25.9152 25.4063 25.5207 25.4063 25.1011V4.48022C25.4063 3.54639 26.1848 2.78666 27.1417 2.78666C27.9972 2.78666 28.7337 3.40778 28.8585 4.23302L31.3942 23.6309C31.44 23.9815 31.6227 24.3013 31.9043 24.5238L34.2189 26.3527L30.1526 30.3838L25.8777 26.212ZM36.6284 39.6032L30.6989 33.7545L38.0544 26.4626L44.5138 31.3234L36.6284 39.6032Z" fill="white"/>
</g>
<defs>
<clipPath id="clip0_187_772">
<rect width="48" height="43" fill="white"/>
</clipPath>
</defs>
</svg>
