<svg width="67" height="67" viewBox="0 0 67 67" fill="none" xmlns="http://www.w3.org/2000/svg">
<g clip-path="url(#clip0_251_13722)">
<path d="M1.26921 33.6895L6.60892 35.796C7.31451 36.0742 8.08383 35.9273 8.6341 35.4661L12.8627 38.1329L13.5879 38.6427C12.668 40.0987 12.9036 42.0883 14.3024 43.2742C15.0709 43.9259 16.0475 44.204 17.0034 44.0998C17.0596 45.1047 17.5165 45.9996 18.2602 46.63C18.9911 47.2497 19.9452 47.5671 20.9612 47.4562C21.0177 48.4607 21.4744 49.3554 22.2181 49.9859C22.9557 50.6114 23.9116 50.922 24.9207 50.812C24.9734 51.7582 25.3978 52.682 26.1759 53.3418C27.6789 54.6164 29.9401 54.4315 31.2145 52.9286L32.063 51.9327L33.4929 52.9879C35.9651 54.8127 39.4593 53.3178 39.7816 50.2846C42.3304 51.2108 45.0369 49.4245 45.0761 46.6811C47.4787 47.1329 49.6107 45.3879 49.7445 43.0732C52.8609 43.9056 55.6798 40.7564 54.3037 37.677L58.1247 35.2227C58.6719 35.8709 59.5811 36.1157 60.3918 35.7959L65.7315 33.6895C66.7592 33.2841 67.2658 32.118 66.8603 31.0899L64.4197 24.9037C64.2208 24.3994 63.6507 24.1521 63.1466 24.351C62.6423 24.5499 62.3948 25.1199 62.5937 25.6241L65.0341 31.8102C65.0425 31.8313 65.0322 31.8552 65.0111 31.8636L59.6714 33.97C59.6502 33.9783 59.6265 33.9681 59.6181 33.947C59.4311 33.473 53.4376 18.2803 52.9077 16.9369C52.9057 16.9322 52.9014 16.9212 52.9082 16.9056C52.915 16.89 52.9261 16.8857 52.9307 16.8837L58.2705 14.7772C58.2751 14.7752 58.286 14.7709 58.3019 14.7777C58.3174 14.7845 58.3217 14.7955 58.3237 14.8002L60.9109 21.3581C61.1099 21.8624 61.6799 22.1097 62.184 21.9108C62.6883 21.7119 62.9358 21.1419 62.7369 20.6377L60.1497 14.08C59.7444 13.0522 58.5782 12.5458 57.5504 12.9513L52.2104 15.0579C51.2563 15.4342 50.7527 16.4581 51.0086 17.4286L48.1461 18.4852C47.2553 18.814 46.2883 18.9094 45.3498 18.7607L42.4562 18.302C41.921 18.2173 41.418 18.5826 41.3333 19.1176C41.2485 19.653 41.6136 20.1559 42.1489 20.2407L45.0425 20.6993C46.3122 20.9005 47.6203 20.7716 48.8259 20.3265L51.7144 19.2603C52.0279 20.0551 56.9755 32.5964 57.3002 33.4194L53.0886 36.1243L53.0172 36.0716C53.0169 36.0714 53.0165 36.0711 53.0163 36.071C52.5651 35.7379 45.2421 30.3337 44.8984 30.08C44.688 29.9246 44.4265 29.8549 44.1258 29.9059C40.06 30.5973 36.4173 29.1515 33.7375 26.3534C32.9036 25.4828 31.5432 25.436 30.6399 26.2471C28.0401 28.582 24.4071 30.8588 21.8651 28.4431C21.6126 28.2032 21.6107 27.7601 21.9943 27.5125C25.2323 25.4296 28.5866 22.5051 31.2859 19.7743C31.9578 19.0945 32.924 18.7785 33.8724 18.9288L37.5978 19.5194C38.1342 19.6043 38.6359 19.2389 38.7207 18.7037C38.8055 18.1684 38.4404 17.6655 37.9051 17.5807L34.1796 16.9901C32.6088 16.7412 31.0054 17.2662 29.8901 18.3945C29.5778 18.7103 29.2085 19.0769 28.7922 19.4791C27.5354 19.0335 26.2255 18.7673 24.8931 18.6925C20.993 18.4734 20.6547 18.4321 19.769 18.489C19.0739 18.5334 18.3667 18.4152 17.7236 18.1461L15.9939 17.4224C16.2436 16.4574 15.7407 15.4324 14.7904 15.0576L9.45066 12.9513C8.4225 12.5456 7.25654 13.0521 6.85114 14.08L0.140554 31.0899C-0.265764 32.1201 0.238698 33.283 1.26921 33.6895ZM17.8454 41.5898C17.2703 42.2682 16.2505 42.3523 15.5719 41.7771C14.8888 41.1979 14.8113 40.1798 15.3833 39.5052L17.8109 36.6559C18.3724 35.9934 19.3949 35.8842 20.0844 36.4686C20.7643 37.0451 20.8484 38.0621 20.2715 38.7422C20.2713 38.7424 20.2711 38.7427 20.2709 38.743L17.8454 41.5898ZM21.8031 44.9458C21.2267 45.6256 20.21 45.7097 19.5297 45.133C18.8466 44.5538 18.7691 43.5357 19.3411 42.8611L21.7687 40.0118C22.3716 39.3004 23.489 39.2383 24.1617 39.9368C24.1662 39.9414 24.1699 39.9465 24.1744 39.9512C24.7285 40.5405 24.7646 41.4669 24.2294 42.0982L21.8031 44.9458ZM25.7609 48.3016C25.1824 48.984 24.1647 49.0629 23.4875 48.4887C22.8044 47.9097 22.7268 46.8916 23.2988 46.217L25.7265 43.3675C26.3032 42.6876 27.3268 42.6091 28.0001 43.1804C28.6784 43.7558 28.7623 44.7756 28.1872 45.454C28.1869 45.4542 28.1868 45.4545 28.1865 45.4547L25.7609 48.3016ZM32.1582 48.7926C32.1542 48.7975 32.1507 48.803 32.1465 48.8079C31.7549 49.2675 30.676 50.5338 29.7188 51.6573C29.1436 52.3358 28.1239 52.4197 27.4454 51.8446C26.7668 51.2693 26.683 50.2495 27.2567 49.5729L29.6844 46.7234C30.2627 46.0411 31.2814 45.9625 31.9578 46.5363C32.6233 47.1003 32.7253 48.1069 32.1582 48.7926ZM15.2885 19.2554L16.9658 19.9572C17.8862 20.3423 18.8991 20.5121 19.8945 20.4481C20.6451 20.3998 20.8957 20.4341 24.7826 20.6525C25.5807 20.6974 26.3698 20.8209 27.1404 21.0214C25.2201 22.7555 23.0635 24.4937 20.9034 25.8808C19.5186 26.7699 19.3134 28.7265 20.513 29.8665C22.1525 31.4244 25.819 33.2154 31.9514 27.7079C32.0613 27.6092 32.223 27.6105 32.3195 27.7114C35.29 30.812 39.5005 32.5439 44.0474 31.9049C44.5626 32.267 43.5651 31.536 51.8503 37.6507H51.8504C52.7371 38.305 52.9851 39.5919 52.2909 40.48C51.6315 41.3236 50.44 41.4871 49.5791 40.8515C48.416 39.9931 49.2747 40.6464 45.1861 37.496C44.7563 37.1651 44.1404 37.245 43.8094 37.6744C43.4787 38.1037 43.5586 38.7199 43.9878 39.0509L47.38 41.6647C47.9645 42.4346 47.8948 43.5473 47.203 44.2375C46.5228 44.9162 45.4031 44.9804 44.5985 44.3868C43.8205 43.8127 44.4669 44.3046 40.8988 41.5576C40.4694 41.2268 39.853 41.3072 39.5225 41.7366C39.1918 42.1661 39.2719 42.7823 39.7014 43.113L42.7093 45.4288C43.2773 46.1636 43.2495 47.2204 42.6292 47.9237C41.9618 48.6803 40.7794 48.7856 39.9369 48.1638C38.5832 47.1648 39.2626 47.6806 36.6556 45.6629C36.2269 45.3312 35.6106 45.4097 35.2787 45.8384C34.947 46.2671 35.0255 46.8835 35.4542 47.2152L37.5394 48.8291C38.0138 49.584 37.9209 50.5728 37.2971 51.2252C36.6162 51.9375 35.4818 52.0164 34.6582 51.4086L33.3389 50.435L33.6419 50.0792C34.2462 49.3668 34.5582 48.4441 34.4784 47.4732C34.3972 46.4898 33.9299 45.6353 33.2271 45.0391C32.496 44.4192 31.5411 44.1017 30.5254 44.2118C30.472 43.2636 30.0371 42.3347 29.2693 41.6832C28.5409 41.0657 27.6163 40.7689 26.6632 40.8468C26.6314 40.8494 26.5996 40.8524 26.5681 40.856C26.5662 40.8246 26.5652 40.7931 26.5626 40.7616C26.5002 40.0028 26.2044 39.2999 25.7183 38.7329C25.7153 38.7294 25.7125 38.7258 25.7095 38.7223C24.9361 37.8276 23.7848 37.3756 22.6114 37.5018C22.5562 36.5163 22.1094 35.6126 21.3536 34.9716C19.8494 33.6964 17.5885 33.8825 16.3149 35.3847L14.8358 37.1208L13.9712 36.5131C13.9578 36.5037 13.9442 36.4946 13.9304 36.4859L9.57458 33.7388C12.8676 25.3917 11.6342 28.5183 15.2885 19.2554ZM1.96643 31.8104L8.67689 14.8005C8.6833 14.7842 8.69874 14.7744 8.7151 14.7744C8.72007 14.7744 8.72517 14.7753 8.73015 14.7773L14.0699 16.8839C14.0909 16.8921 14.1013 16.9161 14.093 16.937C13.7702 17.7554 7.59363 33.4118 7.38243 33.9471C7.37379 33.9684 7.35076 33.9785 7.3293 33.9701L1.98959 31.8636C1.96839 31.8552 1.95792 31.8315 1.96643 31.8104Z" fill="white"/>
</g>
<defs>
<clipPath id="clip0_251_13722">
<rect width="67" height="67" fill="white"/>
</clipPath>
</defs>
</svg>
