<svg width="48" height="48" viewBox="0 0 48 48" fill="none" xmlns="http://www.w3.org/2000/svg">
<path d="M12.4867 18.0209C16.2078 18.0209 19.235 15.0384 19.235 11.3724C19.235 7.70649 16.2078 4.724 12.4867 4.724C11.4298 4.724 10.4167 4.9592 9.47582 5.42304C9.12729 5.59492 8.98403 6.01672 9.15581 6.36526C9.32768 6.7138 9.74949 6.85715 10.098 6.68528C10.8437 6.31769 11.6473 6.13128 12.4866 6.13128C15.4317 6.13128 17.8276 8.48246 17.8276 11.3724C17.8276 12.4625 17.4864 13.4757 16.9038 14.3152C16.6688 13.3001 16.0898 12.3937 15.2604 11.7525C15.437 11.3668 15.5362 10.9386 15.5362 10.4875C15.5362 8.80586 14.1682 7.43779 12.4866 7.43779C10.805 7.43779 9.43698 8.80586 9.43698 10.4875C9.43698 10.9386 9.53624 11.3668 9.71281 11.7524C8.88336 12.3937 8.30441 13.3001 8.06939 14.3152C7.48678 13.4757 7.14556 12.4625 7.14556 11.3724C7.14556 10.2014 7.53219 9.09322 8.2635 8.16761C8.50443 7.8627 8.45255 7.42025 8.14763 7.17932C7.84272 6.9384 7.40018 6.99028 7.15926 7.29519C6.22961 8.47177 5.73828 9.88167 5.73828 11.3724C5.73847 15.0384 8.76571 18.0209 12.4867 18.0209ZM12.4868 8.84517C13.3924 8.84517 14.1291 9.58192 14.1291 10.4876C14.1291 11.3932 13.3924 12.1299 12.4868 12.1299C11.5812 12.1299 10.8444 11.3932 10.8444 10.4876C10.8444 9.58192 11.5812 8.84517 12.4868 8.84517ZM10.5786 12.8638C11.1014 13.2845 11.7651 13.5371 12.4868 13.5371C13.2086 13.5371 13.8722 13.2846 14.395 12.8639C15.1564 13.4508 15.6142 14.3603 15.6142 15.3401C15.6142 15.4267 15.6306 15.5093 15.6592 15.5859C14.7715 16.2313 13.6739 16.6137 12.4868 16.6137C11.3213 16.6137 10.2427 16.2444 9.36371 15.6204C9.36587 15.5902 9.36681 15.5596 9.36502 15.5285C9.36137 15.4658 9.35949 15.4024 9.35949 15.3401C9.3594 14.3602 9.81714 13.4507 10.5786 12.8638Z" fill="white"/>
<path d="M2.71952 16.094L3.41697 15.8108C3.73042 16.4302 4.10794 17.0146 4.54579 17.5579L4.00484 18.044C3.86448 18.1701 3.7807 18.3472 3.77226 18.5357C3.76372 18.7242 3.83127 18.9081 3.95971 19.0464C5.45152 20.652 7.36307 21.7971 9.48769 22.3579C9.86146 22.4564 10.2444 22.2355 10.346 21.8628L10.538 21.1593C11.1779 21.2826 11.8302 21.3449 12.485 21.3449C12.5407 21.3449 12.5967 21.3445 12.6531 21.3435L12.7154 22.0633C12.7471 22.4298 13.0544 22.7062 13.4157 22.7062C13.4354 22.7062 13.4552 22.7054 13.4752 22.7037C15.6715 22.5197 17.7579 21.7237 19.5092 20.4016C19.6597 20.288 19.7583 20.1187 19.7829 19.9317C19.8074 19.7448 19.7559 19.5558 19.64 19.4071L19.1946 18.8366C19.7231 18.3761 20.1996 17.8648 20.6195 17.3079L21.2561 17.7082C21.5816 17.9128 22.011 17.8183 22.2205 17.4959C23.4086 15.6684 24.0365 13.5509 24.0365 11.3726C24.0365 10.984 23.7216 10.6689 23.3329 10.6689H22.5877C22.5702 10.4271 22.544 10.1859 22.5089 9.94598L23.2333 9.79156C23.4166 9.75243 23.5768 9.64182 23.6783 9.48421C23.7797 9.32659 23.8141 9.13502 23.7738 8.95188C23.3067 6.83262 22.2349 4.89611 20.6742 3.35167C20.4012 3.08156 19.9621 3.08025 19.6874 3.34866L19.1524 3.8717C18.6199 3.41199 18.0425 3.00998 17.426 2.66979L17.7371 2.0201C17.8184 1.85038 17.8282 1.65515 17.7645 1.47811C17.7008 1.30108 17.5689 1.15678 17.3982 1.07769C15.8549 0.362609 14.2018 0 12.4851 0C11.9923 0 11.4961 0.0309601 11.0101 0.092036C10.8244 0.115397 10.6557 0.211748 10.5412 0.359794C10.4266 0.50784 10.376 0.695383 10.4001 0.880956L10.4928 1.59398C9.79635 1.73123 9.11842 1.94035 8.46619 2.21937L8.12234 1.56686C7.94296 1.2264 7.52341 1.09327 7.18031 1.26796C5.22373 2.26515 3.60358 3.78389 2.49492 5.65998C2.39904 5.82219 2.37221 6.01602 2.42052 6.19812C2.46875 6.38022 2.58799 6.5354 2.75152 6.62894L3.38761 6.99258C3.07716 7.61469 2.83492 8.26447 2.66333 8.93528L1.92497 8.80656C1.54351 8.74004 1.18024 8.99401 1.11166 9.37491C0.993544 10.0304 0.933594 10.7025 0.933594 11.3727C0.933594 12.875 1.22715 14.3358 1.80601 15.7146C1.95518 16.0698 2.36236 16.2389 2.71952 16.094ZM2.39726 10.3172L3.08579 10.4373C3.4666 10.5035 3.83015 10.2501 3.89901 9.86943C4.07689 8.88649 4.42721 7.94868 4.9403 7.08198C5.03628 6.91977 5.0633 6.72585 5.01508 6.54365C4.96685 6.36146 4.84761 6.20619 4.68399 6.11265L4.09171 5.77406C4.90869 4.59279 5.97071 3.6001 7.21184 2.85771L7.53401 3.46903C7.71358 3.80978 8.13379 3.94282 8.47651 3.76766C9.38308 3.30466 10.3553 3.00519 11.3666 2.87751C11.5522 2.85405 11.7208 2.7577 11.8352 2.60975C11.9497 2.4617 12.0003 2.27425 11.9762 2.08878L11.8898 1.42426C12.0881 1.413 12.2869 1.40728 12.4851 1.40728C13.7546 1.40728 14.9842 1.63235 16.1496 2.07714L15.86 2.6818C15.7788 2.85143 15.7688 3.04648 15.8324 3.22351C15.896 3.40055 16.0278 3.54475 16.1983 3.62393C17.1192 4.05146 17.9513 4.62957 18.6714 5.34221C18.9445 5.61232 19.3836 5.61373 19.6582 5.34522L20.1595 4.85511C21.1128 5.93684 21.8149 7.20066 22.222 8.56807L21.5472 8.71189C21.3637 8.75102 21.2035 8.86172 21.102 9.01953C21.0005 9.17723 20.9663 9.369 21.0068 9.55213C21.1387 10.1485 21.2057 10.761 21.2057 11.3724C21.2057 11.559 21.2798 11.738 21.4118 11.8699C21.5437 12.0018 21.7227 12.076 21.9094 12.076H22.6043C22.5025 13.502 22.0918 14.8837 21.3979 16.1347L20.8025 15.7604C20.4771 15.5559 20.048 15.6501 19.8382 15.9722C19.2898 16.8148 18.601 17.5522 17.7913 18.1641C17.6409 18.2777 17.5424 18.447 17.5178 18.634C17.4932 18.8208 17.5447 19.0098 17.6607 19.1585L18.0751 19.6894C16.8607 20.4787 15.4923 20.9994 14.0548 21.2189L13.9965 20.5458C13.9648 20.1793 13.6575 19.9028 13.2962 19.9028C13.2765 19.9028 13.2565 19.9037 13.2364 19.9054C12.983 19.9268 12.7301 19.9376 12.4849 19.9376C11.7176 19.9376 10.9544 19.8385 10.2167 19.6432C9.84307 19.5442 9.45954 19.7651 9.35775 20.1381L9.17818 20.7962C7.80561 20.3319 6.5522 19.5828 5.49618 18.5958L5.9997 18.1433C6.14005 18.0172 6.22383 17.8401 6.23228 17.6516C6.24072 17.4631 6.17317 17.2791 6.04473 17.1409C5.3562 16.4 4.81008 15.5564 4.42167 14.6336C4.27222 14.2786 3.86514 14.1098 3.50844 14.2547L2.85678 14.5194C2.51406 13.5084 2.34068 12.4528 2.34059 11.3726C2.34078 11.0201 2.35973 10.6672 2.39726 10.3172Z" fill="white"/>
<path d="M11.1343 32.4514C10.5028 32.4514 9.88096 32.5504 9.28587 32.7457C8.9166 32.8669 8.71555 33.2644 8.83676 33.6337C8.95797 34.003 9.35539 34.2039 9.72475 34.0828C10.1779 33.9341 10.6521 33.8587 11.1343 33.8587C13.59 33.8587 15.5878 35.8183 15.5878 38.2271C15.5878 39.0553 15.3515 39.8304 14.9417 40.491C14.7563 39.8616 14.4179 39.2783 13.943 38.8034C13.8238 38.6842 13.6962 38.5751 13.5639 38.4726C14.0564 37.4633 13.8847 36.209 13.0471 35.3716C12.5362 34.8607 11.8569 34.5793 11.1343 34.5793C10.4117 34.5793 9.73235 34.8607 9.22142 35.3716C8.3839 36.2091 8.21212 37.4633 8.70457 38.4726C8.57228 38.5751 8.44469 38.6842 8.32545 38.8035C7.85073 39.2782 7.51232 39.8617 7.32684 40.4913C6.91695 39.8306 6.68072 39.0555 6.68072 38.2272C6.68072 37.2346 7.01302 36.2984 7.64189 35.5198C7.8861 35.2176 7.839 34.7746 7.53662 34.5303C7.23434 34.2861 6.79142 34.3332 6.54712 34.6356C5.72583 35.6525 5.27344 36.928 5.27344 38.2272C5.27344 41.4118 7.90251 44.0028 11.1342 44.0028C14.3659 44.0028 16.9949 41.4119 16.9949 38.2272C16.9949 35.0424 14.366 32.4514 11.1343 32.4514ZM10.2166 36.3667C10.4618 36.1215 10.7877 35.9865 11.1344 35.9865C11.481 35.9865 11.807 36.1215 12.0521 36.3667C12.5582 36.8727 12.5582 37.6962 12.0521 38.2022C11.807 38.4474 11.481 38.5824 11.1344 38.5824C10.7877 38.5824 10.4618 38.4474 10.2166 38.2022C9.71058 37.6961 9.71058 36.8727 10.2166 36.3667ZM8.57754 41.8005C8.52416 41.0612 8.79295 40.3262 9.32067 39.7984C9.4175 39.7016 9.52126 39.6136 9.63084 39.5341C10.0721 39.8302 10.591 39.9895 11.1344 39.9895C11.6778 39.9895 12.1966 39.8302 12.6378 39.5341C12.7474 39.6136 12.8512 39.7016 12.948 39.7983C13.4759 40.3263 13.7445 41.061 13.6911 41.8004C12.9669 42.3005 12.0853 42.5953 11.1344 42.5953C10.1834 42.5953 9.30172 42.3006 8.57754 41.8005Z" fill="white"/>
<path d="M20.3895 37.5235H19.8493C19.8373 37.3789 19.8217 37.2347 19.8022 37.091L20.3262 36.9792C20.5095 36.9401 20.6697 36.8295 20.7712 36.6719C20.8727 36.5142 20.907 36.3227 20.8667 36.1395C20.4639 34.312 19.5396 32.6421 18.194 31.3104C17.9211 31.0403 17.4819 31.039 17.2072 31.3074L16.8182 31.6876C16.4035 31.3372 15.9579 31.027 15.4851 30.7591L15.7086 30.2923C15.79 30.1226 15.7998 29.9273 15.7361 29.7503C15.6724 29.5733 15.5405 29.429 15.3698 29.3499C14.0391 28.7335 12.6142 28.4209 11.1344 28.4209C10.7098 28.4209 10.2821 28.4476 9.8631 28.5003C9.67743 28.5236 9.50874 28.62 9.39419 28.7679C9.27973 28.916 9.22898 29.1035 9.25309 29.2891L9.3197 29.802C8.78278 29.9139 8.25908 30.0757 7.75274 30.2857L7.50356 29.8129C7.32418 29.4724 6.90453 29.3392 6.56153 29.514C4.87476 30.3737 3.47799 31.6831 2.52208 33.3006C2.42619 33.4628 2.39936 33.6566 2.44768 33.8387C2.4959 34.0208 2.61515 34.176 2.77867 34.2695L3.23716 34.5315C3.00355 35.0134 2.81695 35.514 2.67894 36.0293L2.14258 35.9358C1.76102 35.8694 1.39785 36.1233 1.32927 36.5041C1.22748 37.0694 1.17578 37.649 1.17578 38.2269C1.17578 39.5224 1.429 40.7822 1.92821 41.9713C2.07738 42.3267 2.48464 42.4957 2.84172 42.3509L3.34918 42.1448C3.59611 42.6196 3.88695 43.0699 4.21954 43.4923L3.83047 43.8419C3.69012 43.968 3.60634 44.1452 3.59789 44.3336C3.58936 44.5221 3.65691 44.706 3.78534 44.8443C5.07141 46.2285 6.71933 47.2158 8.55095 47.6991C8.92482 47.7976 9.30769 47.5768 9.4093 47.204L9.54805 46.6957C10.0861 46.7934 10.6312 46.8412 11.1834 46.8382L11.2283 47.3569C11.2601 47.7233 11.5673 47.9998 11.9286 47.9998C11.9483 47.9998 11.9681 47.9989 11.9881 47.9973C13.8813 47.8386 15.6801 47.1523 17.1898 46.0126C17.3402 45.899 17.4388 45.7298 17.4634 45.5428C17.488 45.3558 17.4365 45.1668 17.3205 45.0181L17.0004 44.6081C17.4039 44.2486 17.7712 43.8543 18.0998 43.4284L18.563 43.7196C18.8886 43.9243 19.3179 43.8297 19.5274 43.5074C20.5519 41.9313 21.0935 40.1053 21.0935 38.2268C21.0932 37.8385 20.7781 37.5235 20.3895 37.5235ZM18.7006 42.1442L18.2857 41.8833C17.9603 41.6788 17.5311 41.7732 17.3214 42.0951C16.8601 42.8038 16.2807 43.4243 15.5993 43.9391C15.4489 44.0528 15.3504 44.2221 15.3258 44.409C15.3012 44.5959 15.3527 44.7848 15.4687 44.9334L15.7525 45.297C14.7835 45.9088 13.7019 46.3202 12.567 46.5083L12.5269 46.0445C12.4952 45.6781 12.1879 45.4016 11.8266 45.4016C11.8068 45.4016 11.7868 45.4024 11.7668 45.4041C11.5532 45.4221 11.3406 45.4312 11.1343 45.4312C10.4885 45.4312 9.8463 45.3479 9.2256 45.1835C8.85211 45.0845 8.4683 45.3054 8.3666 45.6784L8.24247 46.1334C7.1614 45.7523 6.17077 45.1605 5.32519 44.3907L5.67035 44.0805C5.8107 43.9544 5.89448 43.7772 5.90292 43.5888C5.91146 43.4003 5.84391 43.2164 5.71538 43.0782C5.13624 42.4549 4.6769 41.7454 4.35022 40.9692C4.20077 40.6143 3.79379 40.4455 3.437 40.5903L2.98329 40.7745C2.71731 39.9544 2.58287 39.1005 2.58287 38.2271C2.58287 37.9669 2.59507 37.7065 2.61937 37.4476L3.09737 37.531C3.47846 37.5972 3.84173 37.3437 3.91059 36.9631C4.06004 36.1367 4.35473 35.3481 4.7862 34.6191C4.88218 34.4569 4.9091 34.263 4.86097 34.0808C4.81275 33.8986 4.69351 33.7433 4.52989 33.6498L4.1229 33.4172C4.7816 32.4915 5.621 31.7073 6.59502 31.1079L6.81868 31.5324C6.99825 31.8731 7.41847 32.0062 7.76128 31.831C8.52393 31.4415 9.34212 31.1895 10.1929 31.0821C10.3784 31.0586 10.547 30.9623 10.6615 30.8143C10.776 30.6664 10.8266 30.4788 10.8025 30.2933L10.7432 29.8372C10.8735 29.8314 11.004 29.8285 11.1342 29.8285C12.1666 29.8285 13.1675 30.0049 14.1187 30.3538L13.9204 30.768C13.8391 30.9376 13.8292 31.1326 13.8928 31.3097C13.9563 31.4867 14.0881 31.6309 14.2587 31.7101C15.0335 32.0699 15.7336 32.5562 16.3395 33.1558C16.6125 33.426 17.0517 33.4273 17.3263 33.1588L17.6757 32.8172C18.4183 33.6819 18.9732 34.6802 19.3098 35.757L18.8442 35.8563C18.6607 35.8954 18.5005 36.0061 18.3991 36.1638C18.2977 36.3215 18.2633 36.5133 18.3039 36.6964C18.4148 37.1982 18.4711 37.7132 18.4711 38.2272C18.4711 38.6158 18.7862 38.9308 19.1748 38.9308H19.6559C19.5606 40.0568 19.2361 41.1481 18.7006 42.1442Z" fill="white"/>
<path d="M38.5817 21.2354C38.2948 20.9733 37.8497 20.9933 37.5876 21.2803C37.3256 21.5672 37.3457 22.0123 37.6325 22.2744C38.9695 23.4956 39.7363 25.2306 39.7363 27.0348C39.7363 28.8777 38.9578 30.5413 37.714 31.7174C37.6415 30.3531 36.9819 29.1089 35.9012 28.2817C36.0867 27.8828 36.191 27.4388 36.191 26.9708C36.191 25.2502 34.7912 23.8505 33.0707 23.8505C31.3502 23.8505 29.9504 25.2502 29.9504 26.9708C29.9504 27.4386 30.0545 27.8822 30.2397 28.2809C29.2769 29.0199 28.6399 30.1068 28.4682 31.3105C27.4569 30.1716 26.8409 28.6741 26.8409 27.0348C26.8409 23.4795 29.7333 20.5871 33.2886 20.5871C33.9655 20.5871 34.6323 20.6919 35.2706 20.8986C35.6398 21.0181 36.037 20.8157 36.1567 20.446C36.2764 20.0762 36.0737 19.6795 35.7041 19.5598C34.9256 19.3077 34.1129 19.1798 33.2886 19.1798C28.9574 19.1798 25.4336 22.7035 25.4336 27.0348C25.4336 31.366 28.9574 34.8897 33.2886 34.8897C34.6728 34.8897 35.9736 34.5285 37.1042 33.8973C37.1378 33.8813 37.1703 33.8628 37.201 33.8416C39.5547 32.4834 41.1436 29.9419 41.1436 27.0347C41.1437 24.8363 40.2099 22.7225 38.5817 21.2354ZM33.0708 25.2577C34.0154 25.2577 34.7838 26.0262 34.7838 26.9708C34.7838 27.9153 34.0155 28.6838 33.0708 28.6838C32.5737 28.6838 32.1267 28.4696 31.8135 28.1303C31.7766 28.068 31.7314 28.0133 31.68 27.967C31.4781 27.686 31.3579 27.3426 31.3579 26.9708C31.3578 26.0262 32.1262 25.2577 33.0708 25.2577ZM29.8727 32.4994C29.8435 32.3213 29.8281 32.1402 29.8289 31.9582C29.8324 30.9405 30.3118 29.9979 31.1056 29.3921C31.6425 29.8288 32.3264 30.0911 33.0708 30.0911C33.8155 30.0911 34.4998 29.8285 35.0369 29.3915C35.8445 30.0062 36.3179 30.9536 36.3143 31.981C36.3134 32.2521 36.2793 32.5193 36.2128 32.7784C35.3344 33.2274 34.3411 33.4825 33.2887 33.4825C32.0347 33.4824 30.864 33.1213 29.8727 32.4994Z" fill="white"/>
<path d="M46.363 26.3312H45.3305C45.3077 25.9394 45.2656 25.5487 45.2048 25.1613L46.2153 24.9424C46.595 24.8601 46.8361 24.4855 46.7539 24.1057C46.1978 21.5402 44.9212 19.1953 43.0619 17.3245C42.9305 17.1921 42.7517 17.1174 42.5651 17.1169C42.3831 17.1168 42.1993 17.1899 42.0668 17.3214L41.3308 18.0529C40.6336 17.428 39.8703 16.8886 39.05 16.4416L39.4919 15.5035C39.5715 15.3346 39.5806 15.1411 39.5175 14.9655C39.4543 14.7899 39.3239 14.6465 39.1551 14.5671C37.3131 13.6994 35.3402 13.2595 33.2911 13.2595C32.7028 13.2595 32.1104 13.2971 31.5302 13.3713C31.1448 13.4205 30.8722 13.773 30.9215 14.1584L31.0525 15.1834C30.1331 15.3565 29.2404 15.6361 28.3852 16.0186L27.9086 15.0988C27.7299 14.7538 27.3054 14.619 26.9601 14.7979C24.6273 16.0067 22.6957 17.8473 21.3745 20.1208C21.2806 20.2821 21.2548 20.4741 21.3026 20.6545C21.3503 20.8349 21.4679 20.9889 21.6292 21.0827L22.5251 21.6035C22.1012 22.4397 21.7785 23.3182 21.5611 24.2278L20.5432 24.0473C20.1604 23.9795 19.7954 24.2347 19.7276 24.6173C19.5869 25.4104 19.5156 26.2237 19.5156 27.0346C19.5155 28.8526 19.8648 30.6206 20.554 32.2895C20.6252 32.462 20.7621 32.5991 20.9344 32.6707C21.1067 32.7423 21.3004 32.7425 21.473 32.6712L22.4309 32.2756C22.8376 33.1162 23.3394 33.9044 23.9302 34.6306L23.1641 35.3306C23.0264 35.4565 22.9443 35.632 22.9359 35.8184C22.9274 36.0048 22.9935 36.1869 23.1194 36.3247C24.8984 38.2714 27.1784 39.66 29.7129 40.3401C30.0882 40.4408 30.4742 40.2182 30.575 39.8428L30.843 38.8438C31.6464 39.0103 32.4671 39.0944 33.2909 39.0944C33.4011 39.0944 33.5124 39.0928 33.6245 39.0896L33.7122 40.1185C33.7435 40.4854 34.0509 40.7624 34.4125 40.7624C34.4326 40.7624 34.4528 40.7616 34.4731 40.7598C37.0941 40.5365 39.5837 39.5709 41.6727 37.9673C41.8207 37.8537 41.9175 37.6858 41.9418 37.5008C41.9662 37.3158 41.916 37.1286 41.8024 36.9807L41.1703 36.1572C41.8785 35.5455 42.5105 34.8575 43.0585 34.1014L43.9324 34.6601C44.0897 34.7607 44.2804 34.7946 44.4625 34.7545C44.6448 34.7144 44.8038 34.6035 44.9042 34.4463C46.3187 32.2337 47.0664 29.6708 47.0664 27.0347C47.0667 26.6462 46.7516 26.3312 46.363 26.3312ZM44.0809 33.0848L43.2414 32.548C42.9141 32.3388 42.4793 32.4343 42.2698 32.7615C41.5992 33.809 40.7574 34.7257 39.7677 35.486C39.4597 35.7227 39.4017 36.1642 39.6382 36.4724L40.2458 37.2638C38.6886 38.3246 36.9164 39.0121 35.0533 39.2781L34.9689 38.2888C34.9531 38.1029 34.8641 37.9307 34.7213 37.8104C34.5939 37.7031 34.4331 37.6449 34.2678 37.6449C34.2479 37.6449 34.2278 37.6458 34.2078 37.6475C33.8987 37.6739 33.5903 37.6873 33.2912 37.6873C32.355 37.6873 31.424 37.5644 30.5238 37.322C30.3435 37.2734 30.1514 37.2985 29.9895 37.3918C29.8278 37.4851 29.7098 37.6387 29.6613 37.8191L29.4036 38.7792C27.6201 38.1896 25.9969 37.2007 24.6479 35.8815L25.3844 35.2085C25.5223 35.0826 25.6044 34.9071 25.6127 34.7206C25.6211 34.5342 25.5551 34.3521 25.4292 34.2143C24.5872 33.2931 23.9192 32.2437 23.4438 31.0956C23.2953 30.7367 22.8843 30.566 22.5251 30.7144L21.6051 31.0943C21.1523 29.7927 20.9233 28.4304 20.9234 27.0346C20.9234 26.5415 20.9527 26.0476 21.0107 25.5592L21.988 25.7324C22.3707 25.8002 22.7356 25.5452 22.8036 25.1628C23.0213 23.939 23.4503 22.7714 24.0784 21.6927C24.1723 21.5313 24.1983 21.3393 24.1506 21.1588C24.1029 20.9783 23.9853 20.8241 23.824 20.7303L22.9623 20.2295C23.9985 18.658 25.3739 17.3472 26.9926 16.3887L27.4509 17.2732C27.5368 17.439 27.6851 17.5638 27.8631 17.6202C28.041 17.6766 28.2343 17.66 28.4 17.5739C29.5065 16.9993 30.6932 16.6276 31.9273 16.4692C32.3125 16.4198 32.5849 16.0674 32.5356 15.6821L32.4098 14.6979C32.7031 14.6772 32.9979 14.6667 33.2916 14.6667C34.8945 14.6667 36.4452 14.9663 37.9109 15.5582L37.4865 16.4594C37.321 16.8107 37.4715 17.2297 37.8226 17.3955C38.9471 17.9263 39.9635 18.6444 40.8434 19.5297C41.1175 19.8053 41.563 19.8066 41.8384 19.5327L42.546 18.8294C43.7987 20.2405 44.708 21.9099 45.2101 23.7202L44.239 23.9307C44.0565 23.9703 43.8972 24.0807 43.7962 24.2378C43.6952 24.3948 43.6608 24.5856 43.7004 24.768C43.8621 25.5107 43.944 26.2735 43.944 27.0347C43.944 27.4233 44.2589 27.7383 44.6476 27.7383H45.6398C45.5333 29.6214 45.0012 31.4461 44.0809 33.0848Z" fill="white"/>
</svg>
