<svg width="55" height="55" viewBox="0 0 55 55" fill="none" xmlns="http://www.w3.org/2000/svg">
<g clip-path="url(#clip0_395_63)">
<path d="M14.3218 42.4672C10.6531 42.4672 7.38961 40.1182 6.20458 36.621L6.12444 36.3575C5.84496 35.4314 5.72789 34.6525 5.72789 33.8733V18.248L0.16825 36.8065C-0.546794 39.5361 1.08262 42.3661 3.81649 43.1202L39.2536 52.6105C39.6959 52.725 40.1381 52.78 40.5737 52.78C42.8561 52.78 44.9416 51.2651 45.5262 49.0327L47.5907 42.4672H14.3218Z" fill="white"/>
<path d="M20.6246 18.404C23.1524 18.404 25.2078 16.3482 25.2078 13.8204C25.2078 11.2926 23.1524 9.23682 20.6246 9.23682C18.0968 9.23682 16.041 11.2926 16.041 13.8204C16.041 16.3482 18.0968 18.404 20.6246 18.404Z" fill="white"/>
<path d="M49.271 2.36182H14.8952C11.7375 2.36182 9.16602 4.93329 9.16602 8.0914V33.3001C9.16602 36.4582 11.7375 39.0297 14.8952 39.0297H49.271C52.4291 39.0297 55.0006 36.4582 55.0006 33.3001V8.0914C55.0006 4.93329 52.4291 2.36182 49.271 2.36182ZM14.8952 6.9454H49.271C49.9038 6.9454 50.417 7.45861 50.417 8.0914V24.3603L43.1776 15.9128C42.4097 15.0123 41.2981 14.531 40.1043 14.5037C38.9172 14.5104 37.8035 15.0375 37.0427 15.9498L28.531 26.166L25.7581 23.3998C24.1908 21.8325 21.6398 21.8325 20.0746 23.3998L13.7496 29.7228V8.0914C13.7496 7.45861 14.2628 6.9454 14.8952 6.9454Z" fill="white"/>
</g>
<defs>
<clipPath id="clip0_395_63">
<rect width="55" height="55" fill="white"/>
</clipPath>
</defs>
</svg>
