<svg width="88" height="88" viewBox="0 0 88 88" fill="none" xmlns="http://www.w3.org/2000/svg">
<path d="M83.875 44H61.875C61.5286 43.9989 61.1946 44.1286 60.9396 44.3631C60.6847 44.5976 60.5277 44.9197 60.5 45.265C60.2128 49.0762 58.5916 52.6643 55.9212 55.3988L45.375 48.4138V39.5313L48.7438 41.5113C50.0211 42.2407 51.4666 42.6244 52.9375 42.6244C54.4084 42.6244 55.8539 42.2407 57.1312 41.5113L62.6312 38.3075C62.8364 38.1858 63.0064 38.0127 63.1245 37.8054C63.2425 37.5981 63.3046 37.3636 63.3046 37.125C63.3046 36.8864 63.2425 36.6519 63.1245 36.4446C63.0064 36.2373 62.8364 36.0643 62.6312 35.9425L57.1312 32.7388C55.8518 32.0158 54.4071 31.6359 52.9375 31.6359C51.4679 31.6359 50.0232 32.0158 48.7438 32.7388L45.375 34.7188V28.5313L48.7438 30.5113C50.0211 31.2407 51.4666 31.6244 52.9375 31.6244C54.4084 31.6244 55.8539 31.2407 57.1312 30.5113L62.6312 27.3075C62.8364 27.1858 63.0064 27.0127 63.1245 26.8054C63.2425 26.5981 63.3046 26.3636 63.3046 26.125C63.3046 25.8864 63.2425 25.6519 63.1245 25.4446C63.0064 25.2373 62.8364 25.0642 62.6312 24.9425L57.1312 21.7388C55.8518 21.0158 54.4071 20.6359 52.9375 20.6359C51.4679 20.6359 50.0232 21.0158 48.7438 21.7388L45.375 23.7188V22.3438L48.3862 17.2288C49.1092 15.9493 49.4891 14.5046 49.4891 13.035C49.4891 11.5654 49.1092 10.1207 48.3862 8.84125L45.1825 3.34125C45.0608 3.13607 44.8877 2.9661 44.6804 2.84804C44.4731 2.72999 44.2386 2.66791 44 2.66791C43.7614 2.66791 43.5269 2.72999 43.3196 2.84804C43.1123 2.9661 42.9392 3.13607 42.8175 3.34125L39.6138 8.84125C38.8908 10.1207 38.5109 11.5654 38.5109 13.035C38.5109 14.5046 38.8908 15.9493 39.6138 17.2288L42.625 22.3713V23.7463L39.2562 21.7663C37.9768 21.0433 36.5321 20.6634 35.0625 20.6634C33.5929 20.6634 32.1482 21.0433 30.8688 21.7663L25.3688 24.97C25.1636 25.0918 24.9936 25.2648 24.8755 25.4721C24.7575 25.6794 24.6954 25.9139 24.6954 26.1525C24.6954 26.3911 24.7575 26.6256 24.8755 26.8329C24.9936 27.0402 25.1636 27.2133 25.3688 27.335L30.8688 30.5388C32.1461 31.2682 33.5916 31.6519 35.0625 31.6519C36.5334 31.6519 37.9789 31.2682 39.2562 30.5388L42.625 28.5313V34.7188L39.2562 32.7388C37.9768 32.0158 36.5321 31.6359 35.0625 31.6359C33.5929 31.6359 32.1482 32.0158 30.8688 32.7388L25.3688 35.9425C25.1636 36.0643 24.9936 36.2373 24.8755 36.4446C24.7575 36.6519 24.6954 36.8864 24.6954 37.125C24.6954 37.3636 24.7575 37.5981 24.8755 37.8054C24.9936 38.0127 25.1636 38.1858 25.3688 38.3075L30.8688 41.5113C32.1461 42.2407 33.5916 42.6244 35.0625 42.6244C36.5334 42.6244 37.9789 42.2407 39.2562 41.5113L42.625 39.5313V48.4138L32.1338 55.3988C29.4763 52.6625 27.8611 49.0819 27.5687 45.2788C27.5443 44.931 27.3888 44.6055 27.1335 44.3681C26.8782 44.1307 26.5423 43.9991 26.1937 44H4.125C3.76033 44 3.41059 44.1449 3.15273 44.4027C2.89487 44.6606 2.75 45.0103 2.75 45.375V52.25C2.75 52.6147 2.89487 52.9644 3.15273 53.2223C3.41059 53.4801 3.76033 53.625 4.125 53.625H9.625C10.3908 56.3879 11.4897 59.0474 12.8975 61.545L9.0475 65.3813C8.91862 65.5091 8.81633 65.6612 8.74652 65.8287C8.67672 65.9963 8.64078 66.176 8.64078 66.3575C8.64078 66.539 8.67672 66.7187 8.74652 66.8863C8.81633 67.0539 8.91862 67.2059 9.0475 67.3338L20.625 79.0075C20.7528 79.1364 20.9049 79.2387 21.0725 79.3085C21.24 79.3783 21.4197 79.4142 21.6012 79.4142C21.7828 79.4142 21.9625 79.3783 22.13 79.3085C22.2976 79.2387 22.4497 79.1364 22.5775 79.0075L26.4137 75.1575C28.927 76.5494 31.6004 77.6299 34.375 78.375V83.875C34.375 84.2397 34.5199 84.5894 34.7777 84.8473C35.0356 85.1051 35.3853 85.25 35.75 85.25H52.25C52.6147 85.25 52.9644 85.1051 53.2223 84.8473C53.4801 84.5894 53.625 84.2397 53.625 83.875V78.375C56.3879 77.6092 59.0474 76.5103 61.545 75.1025L65.3812 78.9525C65.5091 79.0814 65.6612 79.1837 65.8287 79.2535C65.9963 79.3233 66.176 79.3592 66.3575 79.3592C66.539 79.3592 66.7187 79.3233 66.8863 79.2535C67.0538 79.1837 67.2059 79.0814 67.3338 78.9525L79.0075 67.375C79.1364 67.2472 79.2387 67.0951 79.3085 66.9276C79.3783 66.76 79.4142 66.5803 79.4142 66.3988C79.4142 66.2172 79.3783 66.0375 79.3085 65.87C79.2387 65.7024 79.1364 65.5503 79.0075 65.4225L75.1575 61.5863C76.5494 59.073 77.6299 56.3996 78.375 53.625H83.875C84.2397 53.625 84.5894 53.4801 84.8473 53.2223C85.1051 52.9644 85.25 52.6147 85.25 52.25V45.375C85.25 45.0103 85.1051 44.6606 84.8473 44.4027C84.5894 44.1449 84.2397 44 83.875 44ZM53.735 57.2825C50.9194 59.3721 47.5062 60.5003 44 60.5003C40.4938 60.5003 37.0806 59.3721 34.265 57.2825L44 50.7925L53.735 57.2825ZM50.1463 35.1038C50.9984 34.6243 51.9597 34.3725 52.9375 34.3725C53.9153 34.3725 54.8766 34.6243 55.7287 35.1038L59.125 37.125L55.6875 39.1463C54.8353 39.6257 53.874 39.8776 52.8963 39.8776C51.9185 39.8776 50.9572 39.6257 50.105 39.1463L46.75 37.125L50.1463 35.1038ZM50.1463 24.1038C50.9984 23.6243 51.9597 23.3725 52.9375 23.3725C53.9153 23.3725 54.8766 23.6243 55.7287 24.1038L59.125 26.125L55.6875 28.1463C54.8353 28.6257 53.874 28.8776 52.8963 28.8776C51.9185 28.8776 50.9572 28.6257 50.105 28.1463L46.75 26.125L50.1463 24.1038ZM41.9788 10.2713L44 6.875L46.0213 10.3125C46.4944 11.1668 46.7426 12.1272 46.7426 13.1038C46.7426 14.0803 46.4944 15.0408 46.0213 15.895L44 19.25L41.9788 15.8125C41.513 14.9633 41.2688 14.0104 41.2688 13.0419C41.2688 12.0733 41.513 11.1204 41.9788 10.2713ZM37.8538 28.1463C37.0016 28.6257 36.0403 28.8776 35.0625 28.8776C34.0847 28.8776 33.1234 28.6257 32.2712 28.1463L28.875 26.125L32.3125 24.1038C33.1647 23.6243 34.126 23.3725 35.1038 23.3725C36.0815 23.3725 37.0428 23.6243 37.895 24.1038L41.25 26.125L37.8538 28.1463ZM37.8538 39.1463C37.0016 39.6257 36.0403 39.8776 35.0625 39.8776C34.0847 39.8776 33.1234 39.6257 32.2712 39.1463L28.875 37.125L32.3125 35.1038C33.1647 34.6243 34.126 34.3725 35.1038 34.3725C36.0815 34.3725 37.0428 34.6243 37.895 35.1038L41.25 37.125L37.8538 39.1463ZM82.5 50.875H77.3713C77.0572 50.8659 76.7494 50.9646 76.4992 51.1547C76.249 51.3448 76.0715 51.6149 75.9963 51.92C75.2032 55.1365 73.9284 58.2147 72.215 61.05C72.0543 61.3141 71.9872 61.6246 72.0246 61.9314C72.062 62.2383 72.2018 62.5236 72.4212 62.7413L76.0513 66.3575L66.3162 76.0925L62.7413 72.4625C62.5236 72.243 62.2383 72.1033 61.9314 72.0659C61.6246 72.0284 61.3141 72.0955 61.05 72.2563C58.2147 73.9697 55.1365 75.2445 51.92 76.0375C51.6149 76.1128 51.3448 76.2903 51.1547 76.5405C50.9646 76.7906 50.8658 77.0984 50.875 77.4125V82.5H37.125V77.3713C37.1342 77.0572 37.0354 76.7494 36.8453 76.4992C36.6552 76.249 36.3851 76.0715 36.08 75.9963C32.8635 75.2032 29.7853 73.9284 26.95 72.215C26.6859 72.0543 26.3754 71.9872 26.0686 72.0246C25.7617 72.062 25.4764 72.2018 25.2588 72.4212L21.6425 76.0513L11.9075 66.3575L15.5375 62.7413C15.757 62.5236 15.8967 62.2383 15.9341 61.9314C15.9716 61.6246 15.9045 61.3141 15.7437 61.05C14.0303 58.2147 12.7555 55.1365 11.9625 51.92C11.8872 51.6149 11.7097 51.3448 11.4595 51.1547C11.2094 50.9646 10.9016 50.8659 10.5875 50.875H5.5V46.75H24.9562C25.6204 51.3287 27.9114 55.5151 31.4099 58.5427C34.9084 61.5703 39.3802 63.2366 44.0069 63.2366C48.6335 63.2366 53.1054 61.5703 56.6039 58.5427C60.1023 55.5151 62.3933 51.3287 63.0575 46.75H82.5V50.875Z" fill="black"/>
<path d="M72.875 14.19L73.9888 10.8487C74.9318 10.6112 75.7606 10.0482 76.3289 9.25896C76.8971 8.46975 77.1683 7.50514 77.0944 6.53545C77.0206 5.56575 76.6065 4.65332 75.9253 3.95925C75.2441 3.26518 74.3396 2.8341 73.3715 2.74213C72.4033 2.65015 71.4338 2.9032 70.6341 3.45658C69.8344 4.00997 69.2559 4.8281 69.0008 5.76655C68.7457 6.705 68.8304 7.7034 69.2398 8.5855C69.6493 9.4676 70.3573 10.1767 71.2388 10.5875L70.51 12.375H60.5V15.125H71.5C71.7998 15.1406 72.0966 15.0577 72.3448 14.8889C72.5931 14.72 72.7793 14.4746 72.875 14.19ZM72.875 5.49999C73.1469 5.49999 73.4128 5.58063 73.6389 5.73171C73.865 5.8828 74.0413 6.09755 74.1453 6.3488C74.2494 6.60004 74.2766 6.87651 74.2236 7.14323C74.1705 7.40996 74.0396 7.65496 73.8473 7.84726C73.655 8.03955 73.41 8.17051 73.1433 8.22357C72.8765 8.27662 72.6001 8.24939 72.3488 8.14532C72.0976 8.04125 71.8828 7.86501 71.7317 7.63889C71.5806 7.41278 71.5 7.14693 71.5 6.87499C71.5 6.51031 71.6449 6.16058 71.9027 5.90271C72.1606 5.64485 72.5103 5.49999 72.875 5.49999Z" fill="black"/>
<path d="M82.17 22.1512L81.125 18.81C81.0293 18.5254 80.8431 18.2799 80.5948 18.1111C80.3466 17.9423 80.0498 17.8593 79.75 17.875H67.375V20.625H78.76L79.3512 22.4125C78.4698 22.8233 77.7618 23.5324 77.3523 24.4145C76.9429 25.2966 76.8582 26.295 77.1133 27.2334C77.3684 28.1719 77.9469 28.99 78.7466 29.5434C79.5463 30.0968 80.5158 30.3498 81.484 30.2578C82.4521 30.1659 83.3566 29.7348 84.0378 29.0407C84.719 28.3466 85.1331 27.4342 85.2069 26.4645C85.2808 25.4948 85.0096 24.5302 84.4414 23.741C83.8731 22.9518 83.0443 22.3887 82.1012 22.1512H82.17ZM81.125 27.5C80.8531 27.5 80.5872 27.4193 80.3611 27.2682C80.135 27.1172 79.9587 26.9024 79.8547 26.6512C79.7506 26.3999 79.7234 26.1235 79.7764 25.8567C79.8295 25.59 79.9604 25.345 80.1527 25.1527C80.345 24.9604 80.59 24.8295 80.8568 24.7764C81.1235 24.7233 81.3999 24.7506 81.6512 24.8546C81.9024 24.9587 82.1172 25.135 82.2683 25.3611C82.4194 25.5872 82.5 25.853 82.5 26.125C82.5 26.4896 82.3551 26.8394 82.0973 27.0972C81.8394 27.3551 81.4897 27.5 81.125 27.5Z" fill="black"/>
<path d="M57.75 12.375H52.25V15.125H57.75V12.375Z" fill="black"/>
<path d="M64.625 17.875H60.5V20.625H64.625V17.875Z" fill="black"/>
<path d="M27.5001 12.375H17.4901L16.8989 10.5875C17.7803 10.1767 18.4883 9.4676 18.8978 8.5855C19.3073 7.70341 19.3919 6.705 19.1368 5.76655C18.8817 4.8281 18.3032 4.00997 17.5035 3.45658C16.7038 2.9032 15.7343 2.65015 14.7661 2.74213C13.798 2.8341 12.8935 3.26518 12.2123 3.95925C11.5311 4.65332 11.117 5.56575 11.0432 6.53545C10.9693 7.50514 11.2405 8.46975 11.8087 9.25896C12.377 10.0482 13.2058 10.6112 14.1489 10.8487L15.2626 14.19C15.3508 14.4523 15.5162 14.6818 15.7369 14.8486C15.9577 15.0154 16.2237 15.1118 16.5001 15.125H27.5001V12.375ZM15.1251 5.49999C15.3971 5.49999 15.6629 5.58063 15.889 5.73172C16.1151 5.8828 16.2914 6.09755 16.3954 6.3488C16.4995 6.60004 16.5267 6.87651 16.4737 7.14324C16.4206 7.40996 16.2897 7.65496 16.0974 7.84726C15.9051 8.03956 15.6601 8.17051 15.3934 8.22357C15.1266 8.27662 14.8502 8.24939 14.5989 8.14532C14.3477 8.04125 14.1329 7.86501 13.9818 7.6389C13.8307 7.41278 13.7501 7.14694 13.7501 6.87499C13.7501 6.51031 13.895 6.16058 14.1528 5.90271C14.4107 5.64485 14.7604 5.49999 15.1251 5.49999Z" fill="black"/>
<path d="M6.8742 30.25C7.80583 30.2445 8.70817 29.9239 9.43432 29.3402C10.1605 28.7565 10.6677 27.9442 10.8733 27.0356C11.0789 26.1269 10.9709 25.1754 10.5669 24.3359C10.1628 23.4965 9.48644 22.8185 8.64795 22.4125L9.2392 20.625H20.6242V17.875H8.2492C7.94936 17.8593 7.65264 17.9423 7.40435 18.1111C7.15607 18.2799 6.96987 18.5254 6.8742 18.81L5.76045 22.1512C4.79917 22.419 3.96752 23.0261 3.41962 23.8601C2.87172 24.6941 2.64471 25.6984 2.78066 26.687C2.91661 27.6755 3.4063 28.5813 4.15899 29.2364C4.91167 29.8916 5.87633 30.2517 6.8742 30.25ZM6.8742 24.75C7.14615 24.75 7.41199 24.8306 7.63811 24.9817C7.86423 25.1328 8.04046 25.3475 8.14454 25.5988C8.24861 25.85 8.27584 26.1265 8.22278 26.3932C8.16973 26.66 8.03877 26.905 7.84647 27.0972C7.65417 27.2895 7.40917 27.4205 7.14245 27.4736C6.87573 27.5266 6.59926 27.4994 6.34801 27.3953C6.09676 27.2912 5.88202 27.115 5.73093 26.8889C5.57984 26.6628 5.4992 26.3969 5.4992 26.125C5.4992 25.7603 5.64407 25.4106 5.90193 25.1527C6.15979 24.8948 6.50953 24.75 6.8742 24.75Z" fill="black"/>
<path d="M35.75 12.375H30.25V15.125H35.75V12.375Z" fill="black"/>
<path d="M27.5 17.875H23.375V20.625H27.5V17.875Z" fill="black"/>
</svg>
