<svg width="18" height="18" viewBox="0 0 18 18" fill="none" xmlns="http://www.w3.org/2000/svg">
<g clip-path="url(#clip0_251_10775)">
<path d="M13.2675 0.271973H4.48023C2.04553 0.271973 0.0585938 2.25891 0.0585938 4.69361V13.4949C0.0585938 15.9156 2.04553 17.9026 4.48023 17.9026H13.2815C15.7162 17.9026 17.7032 15.9156 17.7032 13.4809V4.69361C17.6892 2.25891 15.7022 0.271973 13.2675 0.271973ZM5.93546 14.5444H3.4168V7.26824H5.93546V14.5444ZM4.66214 6.14884C3.94852 6.14884 3.37482 5.57514 3.37482 4.86152C3.37482 4.1479 3.94852 3.57421 4.66214 3.57421C5.37575 3.57421 5.94945 4.1479 5.94945 4.86152C5.93546 5.57514 5.36176 6.14884 4.66214 6.14884ZM14.345 14.5444H14.331H12.2321V11.0182C12.2321 10.1647 12.1202 9.07327 10.9588 9.07327C9.76941 9.07327 9.57351 9.99678 9.57351 10.9623V14.5444H7.47463V7.26824H9.43359V8.24771H9.48956C9.79739 7.68801 10.511 7.25425 11.6304 7.25425C13.9392 7.25425 14.345 8.58354 14.345 10.5565V14.5444Z" fill="black"/>
</g>
<defs>
<clipPath id="clip0_251_10775">
<rect width="17.6446" height="17.6446" fill="white" transform="translate(0.0585938 0.265015)"/>
</clipPath>
</defs>
</svg>
