<svg width="18" height="19" viewBox="0 0 18 19" fill="none" xmlns="http://www.w3.org/2000/svg">
<g clip-path="url(#clip0_274_4603)">
<path d="M13.2558 0.771973H4.46851C2.03381 0.771973 0.046875 2.75891 0.046875 5.19361V13.9949C0.046875 16.4156 2.03381 18.4026 4.46851 18.4026H13.2698C15.7045 18.4026 17.6915 16.4156 17.6915 13.9809V5.19361C17.6775 2.75891 15.6905 0.771973 13.2558 0.771973ZM5.92374 15.0444H3.40508V7.76824H5.92374V15.0444ZM4.65042 6.64884C3.9368 6.64884 3.3631 6.07514 3.3631 5.36152C3.3631 4.6479 3.9368 4.07421 4.65042 4.07421C5.36404 4.07421 5.93773 4.6479 5.93773 5.36152C5.92374 6.07514 5.35004 6.64884 4.65042 6.64884ZM14.3332 15.0444H14.3193H12.2204V11.5182C12.2204 10.6647 12.1084 9.57327 10.9471 9.57327C9.75769 9.57327 9.56179 10.4968 9.56179 11.4623V15.0444H7.46291V7.76824H9.42187V8.74771H9.47784C9.78568 8.18801 10.4993 7.75425 11.6187 7.75425C13.9275 7.75425 14.3332 9.08354 14.3332 11.0565V15.0444Z" fill="white"/>
</g>
<defs>
<clipPath id="clip0_274_4603">
<rect width="17.6446" height="17.6446" fill="white" transform="translate(0.046875 0.765015)"/>
</clipPath>
</defs>
</svg>
