<svg width="38" height="38" viewBox="0 0 38 38" fill="none" xmlns="http://www.w3.org/2000/svg">
<g clip-path="url(#clip0_151_806)">
<path d="M18.9989 18.2024C22.4337 18.2024 25.2282 15.4083 25.2282 11.9739C25.2282 8.53952 22.4337 5.74548 18.9989 5.74548C15.564 5.74548 12.7695 8.53952 12.7695 11.9739C12.7695 15.4083 15.564 18.2024 18.9989 18.2024ZM18.9989 7.97175C21.206 7.97175 23.0016 9.76718 23.0016 11.9739C23.0016 14.1807 21.2061 15.9762 18.9989 15.9762C16.7917 15.9762 14.9961 14.1807 14.9961 11.9739C14.9961 9.76718 16.7917 7.97175 18.9989 7.97175Z" fill="white"/>
<path d="M12.217 23.166C13.9044 25.4502 13.2265 24.5619 18.0867 31.501C18.5284 32.1341 19.4678 32.1371 19.9121 31.5019C24.7943 24.5299 24.1225 25.4129 25.7824 23.1659C27.4639 20.8895 29.2027 18.5355 30.1555 15.7771C31.5345 11.7841 30.9384 7.8332 28.4771 4.65218C28.477 4.65218 28.477 4.65211 28.4769 4.65211C26.2223 1.73909 22.6794 0 18.9997 0C15.32 0 11.7771 1.73909 9.52244 4.65225C7.06112 7.83327 6.46499 11.7842 7.84413 15.7773C8.7968 18.5356 10.5356 20.8895 12.217 23.166ZM11.2834 6.01461C13.1194 3.64251 16.004 2.22627 18.9997 2.22627C21.9954 2.22627 24.8801 3.64251 26.7161 6.01461L26.716 6.01454C28.7026 8.58191 29.1765 11.791 28.0508 15.0505C27.2092 17.487 25.5734 19.7016 23.9914 21.8433C22.7597 23.5108 23.1283 23.0008 18.9997 28.9188C14.8755 23.0067 15.2394 23.5103 14.0081 21.8433C12.4261 19.7016 10.7902 17.4869 9.94867 15.0505C8.82292 11.7909 9.29689 8.58191 11.2834 6.01461Z" fill="white"/>
<path d="M13.1314 27.9928C12.8031 27.4731 12.1155 27.3178 11.5957 27.6462L8.43026 29.6454C7.73973 30.0816 7.73906 31.0911 8.43026 31.5276L18.4053 37.8279C18.7684 38.0573 19.2312 38.0573 19.5943 37.8279L29.5693 31.5276C30.2599 31.0915 30.2605 30.082 29.5693 29.6454L26.4039 27.6462C25.8839 27.3179 25.1964 27.4731 24.8682 27.9928C24.5397 28.5126 24.695 29.2001 25.2148 29.5284L26.8902 30.5865L18.9998 35.5702L11.1093 30.5865L12.7847 29.5284C13.3046 29.2001 13.4598 28.5126 13.1314 27.9928Z" fill="white"/>
</g>
<defs>
<clipPath id="clip0_151_806">
<rect width="38" height="38" fill="white"/>
</clipPath>
</defs>
</svg>
