<svg width="83" height="83" viewBox="0 0 83 83" fill="none" xmlns="http://www.w3.org/2000/svg">
<path d="M49.5318 69.6129C47.3175 69.6129 45.5156 71.4148 45.5156 73.629C45.5156 75.8433 47.3175 77.6452 49.5318 77.6452C51.746 77.6452 53.5479 75.8433 53.5479 73.629C53.5479 71.4148 51.746 69.6129 49.5318 69.6129ZM49.5318 74.9678C48.7941 74.9678 48.193 74.368 48.193 73.629C48.193 72.8901 48.7941 72.2903 49.5318 72.2903C50.2694 72.2903 50.8705 72.8901 50.8705 73.629C50.8705 74.368 50.2694 74.9678 49.5318 74.9678Z" fill="black"/>
<path d="M17.4028 69.6129C15.1886 69.6129 13.3867 71.4148 13.3867 73.629C13.3867 75.8433 15.1886 77.6452 17.4028 77.6452C19.6171 77.6452 21.419 75.8433 21.419 73.629C21.419 71.4148 19.6171 69.6129 17.4028 69.6129ZM17.4028 74.9678C16.6652 74.9678 16.0641 74.368 16.0641 73.629C16.0641 72.8901 16.6652 72.2903 17.4028 72.2903C18.1405 72.2903 18.7416 72.8901 18.7416 73.629C18.7416 74.368 18.1405 74.9678 17.4028 74.9678Z" fill="black"/>
<path d="M20.0825 21.4193C22.2968 21.4193 24.0987 19.6174 24.0987 17.4032C24.0987 15.189 22.2968 13.3871 20.0825 13.3871C17.8683 13.3871 16.0664 15.189 16.0664 17.4032C16.0664 19.6174 17.8683 21.4193 20.0825 21.4193ZM20.0825 16.0645C20.8202 16.0645 21.4212 16.6642 21.4212 17.4032C21.4212 18.1422 20.8202 18.7419 20.0825 18.7419C19.3449 18.7419 18.7438 18.1422 18.7438 17.4032C18.7438 16.6642 19.3449 16.0645 20.0825 16.0645Z" fill="black"/>
<path d="M73.6294 48.1936C71.4152 48.1936 69.6133 49.9955 69.6133 52.2097C69.6133 54.424 71.4152 56.2259 73.6294 56.2259C75.8436 56.2259 77.6455 54.424 77.6455 52.2097C77.6455 49.9955 75.8436 48.1936 73.6294 48.1936ZM73.6294 53.5484C72.8918 53.5484 72.2907 52.9487 72.2907 52.2097C72.2907 51.4708 72.8918 50.871 73.6294 50.871C74.367 50.871 74.9681 51.4708 74.9681 52.2097C74.9681 52.9487 74.367 53.5484 73.6294 53.5484Z" fill="black"/>
<path d="M74.9088 42.9364C74.9289 42.4572 74.9677 41.9779 74.9677 41.5C74.9677 35.3982 73.3024 29.4663 70.1752 24.2708C71.5447 21.8611 72.2903 19.1128 72.2903 16.3269V16.0645C72.2903 7.20627 65.0841 0 56.2258 0C50.2846 0 45.0971 3.25039 42.318 8.05903C37.1278 7.93989 31.8586 9.047 27.1544 11.276C25.4341 9.29332 22.904 8.03226 20.0806 8.03226C14.9132 8.03226 10.7097 12.2371 10.7097 17.4032C10.7097 19.4193 11.3764 21.4153 12.5839 23.0245L13.1381 23.7634C10.0443 28.7019 8.31205 34.3232 8.08179 40.1613H5.35484C3.87824 40.1613 2.67742 41.3621 2.67742 42.8387V69.6129C1.20082 69.6129 0 70.8137 0 72.2903V74.9677C0 76.4443 1.20082 77.6452 2.67742 77.6452H8.94927C10.4567 80.8059 13.6749 83 17.4032 83C21.1315 83 24.3498 80.8059 25.8572 77.6452H41.0783C42.5857 80.8059 45.804 83 49.5323 83C53.2606 83 56.4788 80.8059 57.9862 77.6452H61.5806C63.0572 77.6452 64.2581 76.4443 64.2581 74.9677V71.2809C64.2581 70.9543 64.2179 70.6276 64.1389 70.3064L63.2821 66.8793C65.2768 65.1671 67.056 63.2366 68.5941 61.1134L73.629 67.8284L81.1258 57.8323C82.3347 56.2218 83 54.2244 83 52.2097C83 47.4787 79.4712 43.5643 74.9088 42.9364ZM56.2258 2.67742C63.6075 2.67742 69.6129 8.68287 69.6129 16.0645V16.3256C69.6129 19.3109 68.5968 22.2494 66.7521 24.5961L56.2258 37.9953L45.6995 24.5961C43.8548 22.2494 42.8387 19.3122 42.8387 16.3256V16.0645C42.8387 8.68287 48.8442 2.67742 56.2258 2.67742ZM20.0806 10.7097C23.7715 10.7097 26.7742 13.7124 26.7742 17.4032C26.7742 18.8423 26.299 20.2694 25.4355 21.418L20.0806 28.5587L14.7258 21.418C13.8623 20.2694 13.3871 18.8423 13.3871 17.4032C13.3871 13.7124 16.3898 10.7097 20.0806 10.7097ZM5.35484 42.8387H16.0645V53.037L22.7581 49.6902L29.4516 53.037V42.8387H40.1613V69.6129H25.8572C24.3498 66.4522 21.1315 64.2581 17.4032 64.2581C13.6749 64.2581 10.4567 66.4522 8.94927 69.6129H5.35484V42.8387ZM18.7419 42.8387H26.7742V48.7049L22.7581 46.6969L18.7419 48.7049V42.8387ZM42.8387 50.871H55.4735C56.0879 50.871 56.6234 51.2886 56.772 51.8844L57.1883 53.5484H50.871C49.3944 53.5484 48.1936 54.7492 48.1936 56.2258V58.9032C48.1936 60.3798 49.3944 61.5806 50.871 61.5806H59.1964L61.2045 69.6129H57.9862C56.4788 66.4522 53.2606 64.2581 49.5323 64.2581C46.9111 64.2581 44.5415 65.3424 42.8387 67.0841V50.871ZM58.5271 58.9032H50.871V56.2258H57.8577L58.5271 58.9032ZM2.67742 74.9677V72.2903H8.13935C8.07644 72.7294 8.03226 73.1739 8.03226 73.629C8.03226 74.0842 8.07644 74.5286 8.13935 74.9677H2.67742ZM17.4032 80.3226C13.7124 80.3226 10.7097 77.3199 10.7097 73.629C10.7097 69.9382 13.7124 66.9355 17.4032 66.9355C21.094 66.9355 24.0968 69.9382 24.0968 73.629C24.0968 77.3199 21.094 80.3226 17.4032 80.3226ZM26.6671 74.9677C26.73 74.5286 26.7742 74.0842 26.7742 73.629C26.7742 73.1739 26.73 72.7294 26.6671 72.2903H40.2684C40.2055 72.7294 40.1613 73.1739 40.1613 73.629C40.1613 74.0842 40.2055 74.5286 40.2684 74.9677H26.6671ZM49.5323 80.3226C45.8414 80.3226 42.8387 77.3199 42.8387 73.629C42.8387 69.9382 45.8414 66.9355 49.5323 66.9355C53.2231 66.9355 56.2258 69.9382 56.2258 73.629C56.2258 77.3199 53.2231 80.3226 49.5323 80.3226ZM58.7961 74.9677C58.859 74.5286 58.9032 74.0842 58.9032 73.629C58.9032 73.1739 58.859 72.7294 58.7961 72.2903H61.5806V74.9677H58.7961ZM62.5512 63.9569L59.3704 51.2351C58.922 49.4452 57.3195 48.1936 55.4735 48.1936H42.8387V42.8387C42.8387 41.3621 41.6379 40.1613 40.1613 40.1613H10.7579C10.9721 35.1733 12.3697 30.3593 14.8637 26.066L20.0806 33.022L27.5774 23.0258C28.7863 21.4153 29.4516 19.418 29.4516 17.4032C29.4516 16.0257 29.1451 14.7205 28.6082 13.541C32.5306 11.7244 36.7208 10.7766 41.093 10.7217C40.5013 12.3965 40.1613 14.189 40.1613 16.0645V16.3256C40.1613 19.9093 41.3809 23.4355 43.5937 26.2508L56.2258 42.3273L68.5018 26.7032C70.9824 31.2227 72.2903 36.2964 72.2903 41.5C72.2903 41.9833 72.2528 42.4692 72.2314 42.9552C67.7267 43.6339 64.2581 47.5188 64.2581 52.2097C64.2581 54.2258 64.9247 56.2218 66.1323 57.8309L66.9047 58.8617C65.6369 60.7132 64.1871 62.424 62.5512 63.9569ZM78.9839 56.2245L73.629 63.3651L68.2742 56.2245C67.4107 55.0759 66.9355 53.6488 66.9355 52.2097C66.9355 48.5189 69.9382 45.5161 73.629 45.5161C77.3199 45.5161 80.3226 48.5189 80.3226 52.2097C80.3226 53.6488 79.8473 55.0759 78.9839 56.2245Z" fill="black"/>
<path d="M56.2253 26.7742C62.1304 26.7742 66.935 21.9696 66.935 16.0645C66.935 10.1595 62.1304 5.35486 56.2253 5.35486C50.3203 5.35486 45.5156 10.1595 45.5156 16.0645C45.5156 21.9696 50.3203 26.7742 56.2253 26.7742ZM56.2253 8.03228C60.6551 8.03228 64.2576 11.6347 64.2576 16.0645C64.2576 20.4943 60.6551 24.0968 56.2253 24.0968C51.7955 24.0968 48.193 20.4943 48.193 16.0645C48.193 11.6347 51.7955 8.03228 56.2253 8.03228Z" fill="black"/>
<path d="M32.1289 34.8064H34.8063V37.4838H32.1289V34.8064Z" fill="black"/>
<path d="M37.4844 34.8064H40.1618V37.4838H37.4844V34.8064Z" fill="black"/>
<path d="M42.8398 34.8064H45.5173V37.4838H42.8398V34.8064Z" fill="black"/>
</svg>
