<svg width="26" height="26" viewBox="0 0 26 26" fill="none" xmlns="http://www.w3.org/2000/svg">
<path d="M25.0778 11.3372C24.6237 8.02718 22.8732 5.03314 20.2116 3.01374C17.5499 0.994334 14.195 0.114978 10.885 0.56912C7.57503 1.02326 4.58099 2.7737 2.56159 5.43536C0.542185 8.09702 -0.33717 11.4519 0.116972 14.7619C0.491125 17.5015 1.75009 20.0438 3.70226 22.002C5.65443 23.9602 8.1929 25.227 10.9314 25.6096C11.4917 25.683 12.0562 25.7199 12.6214 25.7201C14.9046 25.7238 17.1451 25.1007 19.0986 23.9188C19.2357 23.8362 19.3552 23.7274 19.4503 23.5986C19.5453 23.4699 19.6141 23.3236 19.6527 23.1683C19.6912 23.0129 19.6988 22.8515 19.675 22.6932C19.6511 22.535 19.5964 22.3829 19.5138 22.2458C19.4312 22.1087 19.3224 21.9892 19.1937 21.8941C19.0649 21.7991 18.9187 21.7303 18.7633 21.6917C18.4496 21.6139 18.1178 21.6638 17.8409 21.8306C16.4504 22.6652 14.8803 23.1547 13.2618 23.2582C11.6434 23.3616 10.0238 23.076 8.53836 22.4252C7.05295 21.7744 5.74498 20.7774 4.72386 19.5175C3.70275 18.2576 2.99818 16.7715 2.66909 15.1835C2.34001 13.5956 2.39598 11.9519 2.83232 10.3899C3.26866 8.82803 4.07268 7.39331 5.17713 6.20581C6.28158 5.0183 7.65434 4.11255 9.18058 3.5643C10.7068 3.01606 12.3422 2.84127 13.9498 3.05456C15.443 3.2531 16.8734 3.78131 18.1373 4.60094C19.4011 5.42056 20.4669 6.51106 21.2572 7.79344C22.0476 9.07581 22.5428 10.5179 22.707 12.0153C22.8711 13.5127 22.7002 15.0279 22.2064 16.4511C22.0783 16.7933 21.8468 17.0871 21.5441 17.2918C21.2415 17.4965 20.8825 17.602 20.5172 17.5934C20.0358 17.5928 19.5743 17.4013 19.2339 17.0609C18.8935 16.7204 18.7019 16.2589 18.7013 15.7775V8.24969C18.7013 7.92645 18.5729 7.61646 18.3443 7.3879C18.1158 7.15934 17.8058 7.03094 17.4825 7.03094C17.1593 7.03094 16.8493 7.15934 16.6208 7.3879C16.3922 7.61646 16.2638 7.92645 16.2638 8.24969V8.26106C15.3399 7.56373 14.2364 7.14397 13.0826 7.05092C11.9288 6.95787 10.7724 7.19537 9.74864 7.73564C8.7249 8.2759 7.87622 9.09657 7.30191 10.1016C6.72761 11.1066 6.45144 12.2545 6.50572 13.4107C6.56001 14.567 6.94251 15.6839 7.60845 16.6307C8.2744 17.5775 9.19624 18.3151 10.2661 18.757C11.3359 19.199 12.5095 19.3271 13.6496 19.1264C14.7896 18.9256 15.8488 18.4043 16.7034 17.6235C17.0486 18.3426 17.5895 18.9499 18.2641 19.3757C18.9386 19.8015 19.7195 20.0286 20.5172 20.0309C21.3892 20.0393 22.2422 19.776 22.9577 19.2774C23.6732 18.7789 24.2157 18.0699 24.5099 17.2489C25.1667 15.3516 25.3614 13.3249 25.0778 11.3372ZM12.6075 16.7809C11.8844 16.7809 11.1775 16.5665 10.5762 16.1648C9.97497 15.763 9.50634 15.192 9.2296 14.5239C8.95287 13.8558 8.88046 13.1206 9.02154 12.4114C9.16262 11.7021 9.51084 11.0507 10.0222 10.5393C10.5335 10.028 11.185 9.67977 11.8942 9.53869C12.6035 9.39761 13.3386 9.47002 14.0067 9.74675C14.6748 10.0235 15.2458 10.4921 15.6476 11.0934C16.0494 11.6947 16.2638 12.4016 16.2638 13.1247C16.2627 14.0941 15.8772 15.0234 15.1917 15.7089C14.5063 16.3943 13.5769 16.7799 12.6075 16.7809Z" fill="white"/>
</svg>
