<svg width="27" height="27" viewBox="0 0 27 27" fill="none" xmlns="http://www.w3.org/2000/svg">
<path d="M25.6048 19.0947C25.5585 19.0562 20.312 15.3182 18.8953 15.5518C18.212 15.6726 17.8217 16.139 17.0386 17.0717C16.9126 17.2222 16.609 17.5818 16.3745 17.8382C15.8795 17.6769 15.3967 17.4804 14.9298 17.2502C12.5197 16.0768 10.5723 14.1295 9.39897 11.7193C9.16873 11.2524 8.97222 10.7697 8.81097 10.2747C9.06822 10.0393 9.42872 9.7357 9.58272 9.6062C10.5111 8.82745 10.9766 8.43633 11.0973 7.75208C11.345 6.33545 7.59297 1.0907 7.55447 1.04345C7.3836 0.801125 7.16106 0.59976 6.90292 0.453891C6.64477 0.308022 6.35746 0.221288 6.06172 0.199951C4.54097 0.199951 0.199219 5.83145 0.199219 6.78083C0.199219 6.83595 0.278844 12.4395 7.18872 19.4683C14.2097 26.3703 19.8132 26.45 19.8683 26.45C20.8168 26.45 26.4492 22.1082 26.4492 20.5875C26.4277 20.2917 26.3407 20.0044 26.1947 19.7462C26.0487 19.4881 25.8472 19.2656 25.6048 19.0947ZM19.7712 24.6947C19.0117 24.63 14.3042 24.0096 8.42422 18.2337C2.62034 12.3248 2.01572 7.60945 1.95534 6.87883C3.10227 5.07864 4.48741 3.44184 6.07309 2.01295C6.10809 2.04795 6.15447 2.10045 6.21397 2.1687C7.43007 3.82878 8.47766 5.60594 9.34122 7.47383C9.0604 7.75634 8.76357 8.02249 8.45222 8.27095C7.96939 8.63885 7.52602 9.05583 7.12922 9.5152C7.06208 9.60941 7.01428 9.71599 6.9886 9.82878C6.96292 9.94157 6.95986 10.0583 6.97959 10.1723C7.16477 10.9745 7.44838 11.7506 7.82397 12.4832C9.16962 15.2465 11.4025 17.4791 14.166 18.8243C14.8984 19.2005 15.6746 19.4844 16.4768 19.6696C16.5908 19.6893 16.7076 19.6863 16.8204 19.6606C16.9332 19.6349 17.0398 19.5871 17.134 19.52C17.595 19.1215 18.0134 18.6764 18.3826 18.1917C18.6573 17.8645 19.024 17.4278 19.1631 17.3045C21.0357 18.1672 22.8169 19.216 24.4796 20.4352C24.5522 20.4964 24.6038 20.5437 24.638 20.5743C23.209 22.1605 21.5719 23.546 19.7712 24.693V24.6947Z" fill="white"/>
<path d="M14.1992 7.19995C15.5912 7.20134 16.9257 7.75491 17.91 8.73918C18.8943 9.72344 19.4478 11.058 19.4492 12.45C19.4492 12.682 19.5414 12.9046 19.7055 13.0687C19.8696 13.2328 20.0922 13.325 20.3242 13.325C20.5563 13.325 20.7788 13.2328 20.9429 13.0687C21.107 12.9046 21.1992 12.682 21.1992 12.45C21.1971 10.5941 20.459 8.81481 19.1467 7.50251C17.8344 6.1902 16.0551 5.45204 14.1992 5.44995C13.9672 5.44995 13.7446 5.54214 13.5805 5.70623C13.4164 5.87033 13.3242 6.09289 13.3242 6.32495C13.3242 6.55702 13.4164 6.77957 13.5805 6.94367C13.7446 7.10776 13.9672 7.19995 14.1992 7.19995Z" fill="white"/>
<path d="M14.1992 2.82495C16.751 2.82796 19.1974 3.84299 21.0018 5.64737C22.8062 7.45176 23.8212 9.89817 23.8242 12.45C23.8242 12.682 23.9164 12.9046 24.0805 13.0687C24.2446 13.2328 24.4672 13.325 24.6992 13.325C24.9313 13.325 25.1538 13.2328 25.3179 13.0687C25.482 12.9046 25.5742 12.682 25.5742 12.45C25.5707 9.43418 24.3712 6.54292 22.2387 4.41045C20.1062 2.27797 17.215 1.07842 14.1992 1.07495C13.9672 1.07495 13.7446 1.16714 13.5805 1.33123C13.4164 1.49533 13.3242 1.71789 13.3242 1.94995C13.3242 2.18202 13.4164 2.40458 13.5805 2.56867C13.7446 2.73276 13.9672 2.82495 14.1992 2.82495Z" fill="white"/>
</svg>
