<svg width="60" height="344" viewBox="0 0 60 344" fill="none" xmlns="http://www.w3.org/2000/svg">
<path d="M59.7071 69.7071C60.0976 69.3166 60.0976 68.6834 59.7071 68.2929L53.3431 61.9289C52.9526 61.5384 52.3195 61.5384 51.9289 61.9289C51.5384 62.3195 51.5384 62.9526 51.9289 63.3431L57.5858 69L51.9289 74.6569C51.5384 75.0474 51.5384 75.6805 51.9289 76.0711C52.3195 76.4616 52.9526 76.4616 53.3431 76.0711L59.7071 69.7071ZM32 70L59 70L59 68L32 68L32 70Z" fill="white"/>
<path d="M0.292896 68.2929C-0.0976257 68.6834 -0.0976258 69.3166 0.292896 69.7071L6.65686 76.0711C7.04738 76.4616 7.68054 76.4616 8.07107 76.0711C8.4616 75.6805 8.4616 75.0474 8.07107 74.6568L2.41422 69L8.07107 63.3431C8.4616 62.9526 8.4616 62.3194 8.07107 61.9289C7.68055 61.5384 7.04738 61.5384 6.65686 61.9289L0.292896 68.2929ZM54 68L1 68L1 70L54 70L54 68Z" fill="white"/>
<path d="M59.7071 158.707C60.0976 158.317 60.0976 157.683 59.7071 157.293L53.3431 150.929C52.9526 150.538 52.3195 150.538 51.9289 150.929C51.5384 151.319 51.5384 151.953 51.9289 152.343L57.5858 158L51.9289 163.657C51.5384 164.047 51.5384 164.681 51.9289 165.071C52.3195 165.462 52.9526 165.462 53.3431 165.071L59.7071 158.707ZM32 159L59 159L59 157L32 157L32 159Z" fill="white"/>
<path d="M0.292896 157.293C-0.0976257 157.683 -0.0976258 158.317 0.292896 158.707L6.65686 165.071C7.04738 165.462 7.68054 165.462 8.07107 165.071C8.4616 164.681 8.4616 164.047 8.07107 163.657L2.41422 158L8.07107 152.343C8.4616 151.953 8.4616 151.319 8.07107 150.929C7.68055 150.538 7.04738 150.538 6.65686 150.929L0.292896 157.293ZM54 157L1 157L1 159L54 159L54 157Z" fill="white"/>
<path d="M59.7071 247.707C60.0976 247.317 60.0976 246.683 59.7071 246.293L53.3431 239.929C52.9526 239.538 52.3195 239.538 51.9289 239.929C51.5384 240.319 51.5384 240.953 51.9289 241.343L57.5858 247L51.9289 252.657C51.5384 253.047 51.5384 253.681 51.9289 254.071C52.3195 254.462 52.9526 254.462 53.3431 254.071L59.7071 247.707ZM32 248L59 248L59 246L32 246L32 248Z" fill="white"/>
<path d="M0.292896 246.293C-0.0976257 246.683 -0.0976258 247.317 0.292896 247.707L6.65686 254.071C7.04738 254.462 7.68054 254.462 8.07107 254.071C8.4616 253.681 8.4616 253.047 8.07107 252.657L2.41422 247L8.07107 241.343C8.4616 240.953 8.4616 240.319 8.07107 239.929C7.68055 239.538 7.04738 239.538 6.65686 239.929L0.292896 246.293ZM54 246L1 246L1 248L54 248L54 246Z" fill="white"/>
<path d="M59.7071 336.707C60.0976 336.317 60.0976 335.683 59.7071 335.293L53.3431 328.929C52.9526 328.538 52.3195 328.538 51.9289 328.929C51.5384 329.319 51.5384 329.953 51.9289 330.343L57.5858 336L51.9289 341.657C51.5384 342.047 51.5384 342.681 51.9289 343.071C52.3195 343.462 52.9526 343.462 53.3431 343.071L59.7071 336.707ZM32 337L59 337L59 335L32 335L32 337Z" fill="white"/>
<path d="M0.292896 335.293C-0.0976257 335.683 -0.0976258 336.317 0.292896 336.707L6.65686 343.071C7.04738 343.462 7.68054 343.462 8.07107 343.071C8.4616 342.681 8.4616 342.047 8.07107 341.657L2.41422 336L8.07107 330.343C8.4616 329.953 8.4616 329.319 8.07107 328.929C7.68055 328.538 7.04738 328.538 6.65686 328.929L0.292896 335.293ZM54 335L1 335L1 337L54 337L54 335Z" fill="white"/>
<path d="M30.7071 0.292908C30.3166 -0.0976257 29.6834 -0.0976257 29.2929 0.292908L22.9289 6.65686C22.5384 7.04739 22.5384 7.68054 22.9289 8.07108C23.3195 8.46158 23.9526 8.46158 24.3432 8.07108L30 2.41422L35.6569 8.07108C36.0474 8.46158 36.6806 8.46158 37.0711 8.07108C37.4616 7.68054 37.4616 7.04739 37.0711 6.65686L30.7071 0.292908ZM31 336L31 1L29 1L29 336L31 336Z" fill="white"/>
</svg>
