<svg width="200" height="64" viewBox="0 0 200 64" fill="none" xmlns="http://www.w3.org/2000/svg">
<path d="M199.707 56.7071C200.098 56.3166 200.098 55.6834 199.707 55.2929L193.343 48.9289C192.953 48.5384 192.319 48.5384 191.929 48.9289C191.538 49.3195 191.538 49.9526 191.929 50.3431L197.586 56L191.929 61.6569C191.538 62.0474 191.538 62.6805 191.929 63.0711C192.319 63.4616 192.953 63.4616 193.343 63.0711L199.707 56.7071ZM110 57H199V55H110V57Z" fill="white"/>
<path d="M0.292893 55.2929C-0.0976333 55.6834 -0.0976334 56.3166 0.292892 56.7071L6.65685 63.0711C7.04738 63.4616 7.68054 63.4616 8.07107 63.0711C8.46159 62.6805 8.46159 62.0474 8.07107 61.6568L2.41422 56L8.07107 50.3431C8.46159 49.9526 8.46159 49.3194 8.07107 48.9289C7.68054 48.5384 7.04738 48.5384 6.65685 48.9289L0.292893 55.2929ZM110 55L1 55L1 57L110 57L110 55Z" fill="white"/>
<path d="M100.707 0.292892C100.317 -0.0976295 99.6834 -0.0976296 99.2929 0.292892L92.9289 6.65685C92.5384 7.04738 92.5384 7.68054 92.9289 8.07107C93.3195 8.46159 93.9526 8.46159 94.3431 8.07107L100 2.41422L105.657 8.07107C106.047 8.46159 106.681 8.46159 107.071 8.07107C107.462 7.68054 107.462 7.04738 107.071 6.65685L100.707 0.292892ZM101 56L101 1L99 1L99 56L101 56Z" fill="white"/>
</svg>
