<svg width="37" height="527" viewBox="0 0 37 527" fill="none" xmlns="http://www.w3.org/2000/svg">
<path d="M36.7071 69.7071C37.0976 69.3166 37.0976 68.6834 36.7071 68.2929L30.3431 61.9289C29.9526 61.5384 29.3195 61.5384 28.9289 61.9289C28.5384 62.3195 28.5384 62.9526 28.9289 63.3431L34.5858 69L28.9289 74.6569C28.5384 75.0474 28.5384 75.6805 28.9289 76.0711C29.3195 76.4616 29.9526 76.4616 30.3431 76.0711L36.7071 69.7071ZM9 70L36 70L36 68L9 68L9 70Z" fill="white"/>
<path d="M36.7071 158.707C37.0976 158.317 37.0976 157.683 36.7071 157.293L30.3431 150.929C29.9526 150.538 29.3195 150.538 28.9289 150.929C28.5384 151.319 28.5384 151.953 28.9289 152.343L34.5858 158L28.9289 163.657C28.5384 164.047 28.5384 164.681 28.9289 165.071C29.3195 165.462 29.9526 165.462 30.3431 165.071L36.7071 158.707ZM9 159L36 159L36 157L9 157L9 159Z" fill="white"/>
<path d="M36.7071 247.707C37.0976 247.317 37.0976 246.683 36.7071 246.293L30.3431 239.929C29.9526 239.538 29.3195 239.538 28.9289 239.929C28.5384 240.319 28.5384 240.953 28.9289 241.343L34.5858 247L28.9289 252.657C28.5384 253.047 28.5384 253.681 28.9289 254.071C29.3195 254.462 29.9526 254.462 30.3431 254.071L36.7071 247.707ZM9 248L36 248L36 246L9 246L9 248Z" fill="white"/>
<path d="M36.7071 339.707C37.0976 339.317 37.0976 338.683 36.7071 338.293L30.3431 331.929C29.9526 331.538 29.3195 331.538 28.9289 331.929C28.5384 332.319 28.5384 332.953 28.9289 333.343L34.5858 339L28.9289 344.657C28.5384 345.047 28.5384 345.681 28.9289 346.071C29.3195 346.462 29.9526 346.462 30.3431 346.071L36.7071 339.707ZM9 340L36 340L36 338L9 338L9 340Z" fill="white"/>
<path d="M36.7071 429.707C37.0976 429.317 37.0976 428.683 36.7071 428.293L30.3431 421.929C29.9526 421.538 29.3195 421.538 28.9289 421.929C28.5384 422.319 28.5384 422.953 28.9289 423.343L34.5858 429L28.9289 434.657C28.5384 435.047 28.5384 435.681 28.9289 436.071C29.3195 436.462 29.9526 436.462 30.3431 436.071L36.7071 429.707ZM9 430L36 430L36 428L9 428L9 430Z" fill="white"/>
<path d="M36.7071 519.707C37.0976 519.317 37.0976 518.683 36.7071 518.293L30.3431 511.929C29.9526 511.538 29.3195 511.538 28.9289 511.929C28.5384 512.319 28.5384 512.953 28.9289 513.343L34.5858 519L28.9289 524.657C28.5384 525.047 28.5384 525.681 28.9289 526.071C29.3195 526.462 29.9526 526.462 30.3431 526.071L36.7071 519.707ZM9 520L36 520L36 518L9 518L9 520Z" fill="white"/>
<path d="M8.70713 0.292893C8.31661 -0.0976311 7.68344 -0.0976311 7.29292 0.292893L0.928955 6.65685C0.53843 7.04738 0.53843 7.68054 0.928955 8.07107C1.31948 8.46159 1.95264 8.46159 2.34317 8.07107L8.00002 2.41421L13.6569 8.07107C14.0474 8.46159 14.6806 8.46159 15.0711 8.07107C15.4616 7.68054 15.4616 7.04738 15.0711 6.65685L8.70713 0.292893ZM9 519L9.00002 1L7.00002 1L7 519L9 519Z" fill="white"/>
</svg>
