<svg width="48" height="48" viewBox="0 0 48 48" fill="none" xmlns="http://www.w3.org/2000/svg">
<path d="M44.0143 11.9612H43.5278C43.2401 10.951 42.8383 9.98187 42.3276 9.06558L42.6734 8.71965C43.0692 8.32413 43.2869 7.79661 43.2869 7.23422C43.2869 6.67183 43.0692 6.14441 42.6732 5.74842L40.3688 3.44682C39.9731 3.04867 39.445 2.82949 38.8815 2.82949C38.3182 2.82949 37.7899 3.04867 37.3962 3.44485L37.0507 3.79031C36.1338 3.27798 35.1643 2.87543 34.1548 2.5879V2.10145C34.1549 0.942726 33.2122 0 32.0534 0H28.7955C27.6368 0 26.6941 0.942726 26.6941 2.10145V2.5879C25.6848 2.87533 24.7147 3.27798 23.7959 3.79068L23.452 3.44682C23.0561 3.04867 22.5279 2.82949 21.9646 2.82958C21.4013 2.82958 20.8731 3.04886 20.4794 3.44494L18.1755 5.74889C17.7798 6.14441 17.562 6.67192 17.562 7.23432C17.562 7.79671 17.7798 8.32413 18.1754 8.71965L18.5212 9.06549C18.0083 9.98459 17.6063 10.9539 17.3202 11.9612H16.8319C15.6732 11.9612 14.7305 12.9039 14.7305 14.0626V17.3233C14.7305 18.4821 15.6732 19.4248 16.8319 19.4248H17.3202C17.6063 20.4319 18.0083 21.4013 18.5212 22.3205L18.1754 22.6663C17.7797 23.0618 17.5619 23.5893 17.5619 24.1517C17.5619 24.714 17.7797 25.2415 18.1753 25.6371L20.4774 27.9391C20.8731 28.3373 21.4012 28.5565 21.9645 28.5565H21.9646C22.5279 28.5565 23.0562 28.3373 23.45 27.9411L23.7958 27.5953C24.7155 28.1084 25.6856 28.5105 26.694 28.7965V29.2846C26.694 30.4433 27.6367 31.386 28.7954 31.386H32.0533C33.2121 31.386 34.1548 30.4433 34.1548 29.2846V28.7965C35.1634 28.5104 36.1328 28.1085 37.0507 27.5956L37.3942 27.9391C37.7899 28.3373 38.3181 28.5565 38.8814 28.5565C39.4449 28.5565 39.9731 28.3372 40.3665 27.9415L42.6734 25.6371C43.0691 25.2415 43.2868 24.7139 43.2868 24.1516C43.2868 23.5892 43.0691 23.0618 42.6734 22.6663L42.3275 22.3204C42.8383 21.4041 43.24 20.4349 43.5277 19.4248H44.0142C45.1729 19.4248 46.1157 18.4821 46.1157 17.3233V14.0626C46.1158 12.9039 45.1731 11.9612 44.0143 11.9612ZM32.2799 29.2845C32.2799 29.4073 32.1762 29.511 32.0534 29.511H28.7955C28.6727 29.511 28.569 29.4073 28.569 29.2845V28.0674V22.1572C28.569 21.7652 28.3251 21.4146 27.9576 21.2783C25.4384 20.344 23.7459 17.9195 23.7459 15.2452C23.7459 13.1259 24.8012 11.1392 26.5684 9.93125C26.6477 9.87706 26.7178 9.83281 26.7791 9.79653C26.7757 9.9184 26.7671 10.0343 26.7625 10.0947C26.7555 10.1899 26.7498 10.265 26.7498 10.3395V14.7641C26.7498 16.795 28.3367 18.4911 30.3623 18.6254C30.4037 18.6281 30.4451 18.6281 30.4864 18.6254C32.5106 18.4912 34.0963 16.7951 34.0963 14.7641V10.3395C34.0963 10.2654 34.0908 10.1907 34.0838 10.0961C34.0793 10.0354 34.0707 9.91887 34.0674 9.79644C34.1285 9.83263 34.1983 9.87678 34.2773 9.93087C36.0449 11.1391 37.1002 13.1258 37.1002 15.2451C37.1002 17.9191 35.4087 20.3437 32.891 21.2783C32.5236 21.4147 32.2797 21.7652 32.2797 22.1572V28.0673V29.2845H32.2799ZM44.2408 17.3233C44.2408 17.444 44.135 17.5498 44.0143 17.5498H42.7999C42.3619 17.5498 41.9822 17.8531 41.8856 18.2803C41.5887 19.5921 41.0745 20.8326 40.3572 21.9672C40.123 22.3377 40.1769 22.8211 40.4868 23.131L41.3479 23.9921C41.4037 24.048 41.4121 24.116 41.4121 24.1516C41.4121 24.1872 41.4037 24.2553 41.3481 24.3108L39.0392 26.6172C38.9864 26.6703 38.9243 26.6814 38.8815 26.6814C38.8389 26.6814 38.7768 26.6703 38.7221 26.6151L37.861 25.7541C37.5506 25.4438 37.0668 25.3903 36.6963 25.6251C35.8961 26.1321 35.0443 26.5345 34.1549 26.8319V22.7808C37.0633 21.4272 38.9754 18.4777 38.9754 15.245C38.9754 12.506 37.6146 9.94072 35.3356 8.38291C34.9865 8.14432 33.9248 7.41844 32.9963 7.95289C32.0845 8.47788 32.1753 9.7085 32.214 10.2341C32.2174 10.2797 32.2207 10.3181 32.2214 10.3395V14.7641C32.2214 15.7903 31.4371 16.6506 30.4245 16.7495C29.4104 16.6505 28.6249 15.7902 28.6249 14.7641L28.6248 10.3463C28.6256 10.3181 28.629 10.2797 28.6324 10.2339C28.6715 9.7086 28.7631 8.47863 27.852 7.95336C26.9238 7.41797 25.8606 8.14414 25.5108 8.38291C23.2316 9.94081 21.8709 12.5061 21.8709 15.2451C21.8709 18.4782 23.784 21.428 26.6941 22.7811V26.832C25.8045 26.5346 24.9517 26.1321 24.1491 25.6247C23.9948 25.5272 23.8212 25.4797 23.6484 25.4797C23.4062 25.4797 23.1661 25.5733 22.9852 25.7543L22.1224 26.6172C22.0696 26.6704 22.0074 26.6815 21.9647 26.6815C21.9219 26.6815 21.86 26.6704 21.8052 26.6153L19.5013 24.3113C19.4453 24.2554 19.437 24.1873 19.437 24.1517C19.437 24.1161 19.4453 24.048 19.5013 23.9921L20.3623 23.131C20.6722 22.8211 20.726 22.3377 20.4918 21.9672C19.7709 20.8266 19.2568 19.5867 18.9638 18.2819C18.8678 17.854 18.4878 17.5497 18.0491 17.5497H16.8321C16.7114 17.5497 16.6056 17.4439 16.6056 17.3232V14.0625C16.6056 13.9397 16.7093 13.836 16.8321 13.836H18.0491C18.4878 13.836 18.8677 13.5318 18.9638 13.1039C19.2568 11.7991 19.7708 10.5591 20.4918 9.41854C20.726 9.04805 20.6722 8.56469 20.3623 8.25476L19.5012 7.39369C19.4453 7.33781 19.437 7.26975 19.437 7.23413C19.437 7.1985 19.4453 7.13044 19.5013 7.07448L21.8072 4.76847C21.86 4.71541 21.922 4.70426 21.9648 4.70426C22.0075 4.70426 22.0696 4.71541 22.1243 4.77044L22.9853 5.63151C23.2954 5.94154 23.7788 5.99525 24.1492 5.76107C25.2883 5.0409 26.5296 4.52576 27.8383 4.23017C28.2657 4.13361 28.5692 3.75384 28.5692 3.31576V2.10145C28.5692 1.97864 28.6729 1.87495 28.7957 1.87495H32.0536C32.1764 1.87495 32.2801 1.97864 32.2801 2.10145V3.31595C32.2801 3.75412 32.5836 4.1338 33.011 4.23036C34.3208 4.52623 35.5607 5.04109 36.6965 5.76079C37.0671 5.99553 37.5508 5.9421 37.8612 5.63179L38.7241 4.76875C38.7769 4.71569 38.8391 4.70454 38.8817 4.70454C38.9245 4.70454 38.9865 4.71569 39.0417 4.7711L41.348 7.07476C41.4039 7.13063 41.4123 7.19869 41.4123 7.23432C41.4123 7.26994 41.4039 7.338 41.3479 7.39397L40.487 8.25504C40.177 8.56497 40.1232 9.04833 40.3574 9.41882C41.0746 10.5535 41.5889 11.7938 41.8858 13.1057C41.9824 13.5329 42.3621 13.8362 42.8001 13.8362H44.0145C44.1373 13.8362 44.241 13.9399 44.241 14.0627V17.3233H44.2408Z" fill="white"/>
<path d="M35.8879 41.279C35.5218 41.6451 35.5218 42.2387 35.8879 42.6049C36.0709 42.7879 36.3109 42.8795 36.5508 42.8795C36.7907 42.8795 37.0306 42.7879 37.2137 42.6049L37.2163 42.6023C37.5824 42.2362 37.5811 41.6439 37.2149 41.2778C36.8487 40.9117 36.2539 40.9131 35.8879 41.279Z" fill="white"/>
<path d="M40.2291 32.1976L32.7864 36.0198C32.1555 35.3664 31.2714 34.9588 30.2936 34.9588H25.1941C24.9085 34.9588 24.8388 34.9361 24.8341 34.9345C24.7927 34.9128 24.662 34.79 24.5571 34.6913L24.5106 34.6476C20.385 30.764 16.8999 31.01 12.9368 32.5741C12.2955 32.8273 12.2831 32.8278 11.6392 32.8553L10.4861 32.8561C10.1576 31.8651 9.22275 31.1479 8.123 31.1479H4.37347C3.00222 31.1479 1.88672 32.2648 1.88672 33.6374V43.478C1.88672 44.8492 3.00222 45.9648 4.37347 45.9648H8.123C9.22266 45.9648 10.1574 45.2484 10.486 44.2586H12.5953C12.7816 44.2586 12.7816 44.2586 12.9983 44.3197C13.077 44.3419 13.1728 44.3689 13.2966 44.4022L22.9989 46.9979C23.4265 47.1134 23.8188 47.2271 24.1982 47.3369C25.4413 47.6971 26.4862 47.9999 27.5753 47.9999C28.8062 47.9999 30.0932 47.6131 31.786 46.485C31.7942 46.4795 31.8023 46.4739 31.8104 46.4682L33.6627 45.1474C34.0842 44.8467 34.1823 44.2614 33.8817 43.8398C33.581 43.4181 32.9955 43.3201 32.5742 43.6208L30.7342 44.9328C28.2776 46.5667 27.2345 46.2647 24.72 45.5361C24.3326 45.4238 23.9321 45.3078 23.4858 45.1872L13.7827 42.5914C13.6691 42.5609 13.58 42.5358 13.5068 42.5151C13.1528 42.4154 13.0205 42.3839 12.5954 42.3839H10.6125V34.7318H11.6256C11.6391 34.7318 11.6524 34.7315 11.6659 34.731L11.7193 34.7287C12.5052 34.6952 12.7251 34.6737 13.6252 34.3183C17.106 32.9447 19.7928 32.7815 23.2268 36.0142L23.2732 36.0578C23.86 36.6093 24.198 36.8339 25.1942 36.8339H30.2937C30.8921 36.8339 31.414 37.1662 31.6861 37.6556C31.689 37.6611 31.6924 37.6662 31.6954 37.6717C31.8169 37.8964 31.8861 38.1534 31.8861 38.4264C31.8861 39.3031 31.1718 40.0162 30.2937 40.0162H22.0292C21.5116 40.0162 21.0918 40.4359 21.0918 40.9537C21.0918 41.4714 21.5116 41.8911 22.0292 41.8911H30.2937C32.2056 41.8911 33.761 40.3369 33.761 38.4264C33.761 38.1667 33.7314 37.914 33.677 37.6705L41.0857 33.8658C41.7869 33.5058 42.7458 33.5444 43.2218 34.3169C43.6429 34.9978 43.4113 35.9028 42.6833 36.4218L39.4334 38.7364C39.0116 39.0368 38.9132 39.6222 39.2136 40.0439C39.3965 40.3007 39.685 40.4377 39.978 40.4377C40.1661 40.4377 40.3561 40.3812 40.521 40.2638L43.7713 37.9489C45.3149 36.8484 45.7642 34.863 44.8171 33.332C43.8858 31.8206 41.9136 31.3329 40.2291 32.1976ZM8.73742 43.478C8.73742 43.8097 8.45608 44.0898 8.123 44.0898H4.37347C4.04179 44.0898 3.76167 43.8096 3.76167 43.478V33.6375C3.76167 33.2987 4.03616 33.023 4.37347 33.023H8.123C8.45608 33.023 8.73742 33.3043 8.73742 33.6375V43.478Z" fill="white"/>
</svg>
