<svg width="88" height="88" viewBox="0 0 88 88" fill="none" xmlns="http://www.w3.org/2000/svg">
<path d="M44.0011 5.5C45.3318 5.50001 46.6617 5.56796 47.9855 5.7036L48.2668 2.96803C44.4746 2.57893 40.647 2.71108 36.8906 3.36079L37.3616 6.07018C39.5544 5.69044 41.7757 5.49968 44.0011 5.5Z" fill="black"/>
<path d="M21.4321 12.8045L19.8182 10.5779C14.53 14.3992 10.2249 19.422 7.25757 25.2326C4.29019 31.0432 2.74533 37.4755 2.75016 44C2.73217 50.3463 4.19348 56.6095 7.01816 62.2926L9.48216 61.0717C6.84646 55.7678 5.48307 49.9227 5.50016 44C5.49526 37.91 6.93713 31.906 9.70703 26.4824C12.4769 21.0589 16.4956 16.3709 21.4321 12.8045Z" fill="black"/>
<path d="M45.3281 82.4775L45.4211 85.2258C49.2896 85.097 53.1206 84.4233 56.801 83.2246L55.9482 80.6102C52.5135 81.7287 48.9383 82.3573 45.3281 82.4775Z" fill="black"/>
<path d="M19.25 42.625H22V74.25H19.25V42.625Z" fill="black"/>
<path d="M27.5 42.625H30.25V74.25H27.5V42.625Z" fill="black"/>
<path d="M35.75 42.625H38.5V74.25H35.75V42.625Z" fill="black"/>
<path d="M84.471 45.327L59.6889 33.4062C58.7028 32.9333 57.5694 32.8709 56.5373 33.2326C55.5052 33.5943 54.6587 34.3506 54.1835 35.3356L46.75 50.7895V37.125C46.7479 35.3023 46.0229 33.5548 44.7341 32.2659C43.4452 30.9771 41.6977 30.2521 39.875 30.25H34.375V8.25C34.375 6.79131 33.7955 5.39236 32.7641 4.36091C31.7326 3.32946 30.3337 2.75 28.875 2.75C27.4163 2.75 26.0174 3.32946 24.9859 4.36091C23.9545 5.39236 23.375 6.79131 23.375 8.25V30.25H17.875C16.0523 30.2521 14.3048 30.9771 13.0159 32.2659C11.7271 33.5548 11.0021 35.3023 11 37.125V72.875C11.0017 74.2871 11.4374 75.6645 12.2481 76.8206C13.0588 77.9767 14.2053 78.8557 15.5323 79.3384C15.2379 79.9503 15.0992 80.6253 15.1283 81.3037C15.1574 81.982 15.3535 82.6427 15.6992 83.2271C16.0449 83.8115 16.5294 84.3015 17.1099 84.6537C17.6904 85.0059 18.3489 85.2094 19.0269 85.246C19.7048 85.2827 20.3814 85.1515 20.9965 84.864C21.6116 84.5765 22.1462 84.1416 22.553 83.598C22.9597 83.0543 23.2259 82.4186 23.3281 81.7474C23.4302 81.0761 23.3651 80.39 23.1385 79.75H34.6115C34.3852 80.3899 34.3202 81.0759 34.4225 81.7469C34.5247 82.418 34.791 83.0535 35.1977 83.5969C35.6044 84.1404 36.1389 84.5751 36.7539 84.8625C37.3689 85.1499 38.0452 85.2811 38.7231 85.2444C39.4009 85.2077 40.0592 85.0043 40.6395 84.6523C41.2199 84.3002 41.7044 83.8104 42.0501 83.2262C42.3958 82.642 42.5919 81.9815 42.6212 81.3033C42.6504 80.6251 42.5118 79.9502 42.2177 79.3384C43.2986 78.9439 44.2637 78.2854 45.0251 77.4228C45.7866 76.5602 46.3202 75.5209 46.5775 74.3994L65.9943 83.7391C66.157 83.8175 66.3335 83.8631 66.5139 83.8732C66.6942 83.8833 66.8747 83.8578 67.0452 83.798C67.2156 83.7383 67.3726 83.6456 67.5072 83.5251C67.6418 83.4047 67.7513 83.2589 67.8294 83.096L85.1141 47.1621C85.2722 46.8334 85.2932 46.4555 85.1726 46.1113C85.052 45.7672 84.7996 45.4851 84.471 45.327ZM57.9032 35.7488C58.1088 35.7488 58.3117 35.7951 58.4969 35.8844L82.0398 47.2091L80.8478 49.6873L57.3048 38.3629C56.9767 38.2045 56.7247 37.9226 56.6041 37.5789C56.4834 37.2352 56.5039 36.8577 56.6611 36.529L56.6618 36.5276L56.6617 36.5276C56.7743 36.2941 56.9506 36.0971 57.1702 35.9593C57.3899 35.8216 57.6439 35.7486 57.9032 35.7488ZM26.125 8.25C26.125 7.52065 26.4147 6.82118 26.9305 6.30546C27.4462 5.78973 28.1457 5.5 28.875 5.5C29.6043 5.5 30.3038 5.78973 30.8195 6.30546C31.3353 6.82118 31.625 7.52065 31.625 8.25V30.25H26.125V8.25ZM20.625 81.125C20.625 81.3969 20.5444 81.6628 20.3933 81.8889C20.2422 82.115 20.0274 82.2913 19.7762 82.3953C19.5249 82.4994 19.2485 82.5266 18.9818 82.4736C18.715 82.4205 18.47 82.2896 18.2777 82.0973C18.0854 81.905 17.9545 81.66 17.9014 81.3932C17.8484 81.1265 17.8756 80.8501 17.9797 80.5988C18.0837 80.3476 18.26 80.1328 18.4861 79.9817C18.7122 79.8306 18.9781 79.75 19.25 79.75C19.6145 79.7504 19.964 79.8954 20.2218 80.1532C20.4796 80.411 20.6246 80.7605 20.625 81.125ZM38.5 82.5C38.2281 82.5 37.9622 82.4194 37.7361 82.2683C37.51 82.1172 37.3337 81.9024 37.2297 81.6512C37.1256 81.3999 37.0984 81.1235 37.1514 80.8568C37.2045 80.59 37.3354 80.345 37.5277 80.1527C37.72 79.9604 37.965 79.8295 38.2318 79.7764C38.4985 79.7234 38.7749 79.7506 39.0262 79.8547C39.2774 79.9587 39.4922 80.135 39.6433 80.3611C39.7944 80.5872 39.875 80.8531 39.875 81.125C39.8746 81.4895 39.7296 81.839 39.4718 82.0968C39.214 82.3546 38.8645 82.4996 38.5 82.5ZM39.875 77H17.875C16.7814 76.9987 15.7329 76.5638 14.9596 75.7904C14.1862 75.0171 13.7513 73.9686 13.75 72.875V37.125C13.7513 36.0314 14.1862 34.9829 14.9596 34.2096C15.7329 33.4362 16.7814 33.0013 17.875 33H23.375V39.875H26.125V33H31.625V39.875H34.375V33H39.875C40.9686 33.0013 42.0171 33.4362 42.7904 34.2096C43.5638 34.9829 43.9987 36.0314 44 37.125V56.5066L39.2829 66.3132C39.0481 66.8014 38.9117 67.331 38.8816 67.8719C38.8515 68.4127 38.9282 68.9542 39.1073 69.4655C39.2865 69.9767 39.5646 70.4476 39.9257 70.8513C40.2868 71.2551 40.724 71.5838 41.2122 71.8186L43.9895 73.1545C43.9176 74.1971 43.453 75.1737 42.6894 75.8874C41.9259 76.601 40.9201 76.9986 39.875 77ZM65.9472 80.6649L42.4042 69.3405C42.0756 69.1824 41.8232 68.9002 41.7026 68.556C41.582 68.2119 41.6031 67.8339 41.7612 67.5052L54.9762 40.0318C55.3061 40.3644 55.6906 40.6381 56.1128 40.841L79.6558 52.1654L65.9472 80.6649Z" fill="black"/>
<path d="M66.0735 48.6835C64.3581 47.8584 62.4365 47.5606 60.5518 47.8276C58.6671 48.0946 56.9039 48.9145 55.4852 50.1836C54.0664 51.4527 53.0559 53.114 52.5813 54.9574C52.1067 56.8008 52.1894 58.7435 52.8189 60.54C53.4484 62.3364 54.5965 63.9058 56.1179 65.0497C57.6394 66.1937 59.4659 66.8608 61.3664 66.9667C63.267 67.0726 65.1563 66.6126 66.7954 65.6448C68.4346 64.6769 69.7499 63.2448 70.5751 61.5294C71.6787 59.2286 71.8245 56.5839 70.9806 54.1756C70.1367 51.7674 68.3719 49.7922 66.0735 48.6835ZM68.5682 59.0383L66.103 57.8526C66.6538 56.3328 66.9244 54.7258 66.9014 53.1094L66.8941 52.6329C67.6879 53.4746 68.2572 54.5024 68.5497 55.6217C68.8422 56.741 68.8486 57.9159 68.5682 59.0384V59.0383ZM60.0202 61.7406L59.658 62.0211L59.651 61.563C59.6347 60.3738 59.8185 59.1903 60.1947 58.0621L62.416 59.1306C61.7694 60.1287 60.9595 61.011 60.0202 61.7406V61.7406ZM61.3867 55.584C62.0333 54.5858 62.8432 53.7034 63.7825 52.9738L64.1448 52.6933L64.1518 53.1514C64.1681 54.3406 63.9843 55.5242 63.608 56.6525L61.3867 55.584ZM61.9123 50.4826C62.0993 50.4826 62.287 50.4929 62.4746 50.5084L62.099 50.7992C60.8219 51.7903 59.7352 53.0048 58.8917 54.3839L56.4293 53.1994C57.0726 52.3552 57.902 51.6709 58.853 51.1997C59.804 50.7285 60.8509 50.4831 61.9123 50.4826V50.4826ZM55.2335 55.6757L57.6997 56.862C57.1489 58.3817 56.8784 59.9887 56.9013 61.605L56.9087 62.086C56.1132 61.2444 55.5427 60.2159 55.2499 59.0955C54.9571 57.975 54.9515 56.7989 55.2335 55.6757ZM61.327 64.2068L61.7037 63.9152C62.9808 62.9242 64.0675 61.7097 64.911 60.3307L67.3762 61.5165C66.6743 62.4362 65.7524 63.1645 64.6954 63.6346C63.6383 64.1048 62.48 64.3015 61.327 64.2069V64.2068Z" fill="black"/>
<path d="M48.5156 69.224L49.7063 66.7464L62.0951 72.7002L60.9044 75.1777L48.5156 69.224Z" fill="black"/>
<path d="M62.1598 21.7152C61.3542 20.9116 60.2628 20.4604 59.125 20.4604C57.9872 20.4604 56.8958 20.9116 56.0902 21.7152C55.8009 22.0039 55.4088 22.166 55 22.166C54.5912 22.166 54.1991 22.0039 53.9098 21.7152L53.566 21.3714C51.7568 19.5665 49.3056 18.5529 46.75 18.5529C44.1944 18.5529 41.7432 19.5665 39.934 21.3714C39.566 21.7415 39.1282 22.0348 38.646 22.2345C38.1639 22.4343 37.6469 22.5364 37.125 22.5349V25.2849C38.0082 25.2874 38.883 25.1146 39.699 24.7766C40.5149 24.4387 41.2557 23.9423 41.8785 23.3161C43.1715 22.026 44.9235 21.3014 46.75 21.3014C48.5765 21.3014 50.3285 22.026 51.6215 23.3161L51.9652 23.6598C52.7708 24.4634 53.8622 24.9147 55 24.9147C56.1378 24.9147 57.2292 24.4634 58.0348 23.6598C58.3241 23.371 58.7162 23.2088 59.125 23.2088C59.5338 23.2088 59.9259 23.371 60.2152 23.6598L62.7496 26.1942C67.6781 31.1501 74.2964 34.0621 81.28 34.3474C81.8714 36.6397 82.2496 38.9816 82.4099 41.3435L85.1535 41.1565C84.7898 35.7073 83.3375 30.3863 80.8825 25.5078L78.425 26.7422C79.2042 28.2943 79.8771 29.8975 80.439 31.5409C74.4883 31.0688 68.9031 28.4823 64.6941 24.2495L62.1598 21.7152Z" fill="black"/>
<path d="M50.158 9.42324L73.0604 23.4191C73.8496 23.904 74.7794 24.1082 75.6991 23.9988C76.6189 23.8894 77.4748 23.4727 78.1283 22.8162L83.4722 17.4723C83.7301 17.2144 83.875 16.8647 83.875 16.5C83.875 16.1353 83.7301 15.7855 83.4722 15.5277L80.7222 12.7777C80.4974 12.553 80.2018 12.4131 79.8855 12.3817C79.5692 12.3504 79.2518 12.4297 78.9873 12.606L75.625 14.8474L69.3471 10.6621L72.6 6.32496C72.7986 6.06017 72.895 5.73263 72.8715 5.40247C72.8481 5.07232 72.7063 4.7617 72.4722 4.52766L71.0972 3.15266C70.8932 2.94862 70.6301 2.81395 70.3452 2.76774C70.0604 2.72153 69.7682 2.76612 69.5101 2.89519L61.9352 6.68264L59.3897 5.15524C58.0755 4.3647 56.5344 4.037 55.0122 4.2244C53.49 4.41179 52.0745 5.10349 50.9912 6.18917L49.9027 7.27766C49.7556 7.42475 49.6438 7.60329 49.5758 7.79985C49.5077 7.99641 49.4851 8.20585 49.5096 8.41241C49.5342 8.61897 49.6053 8.81726 49.7176 8.99235C49.83 9.16744 49.9805 9.31477 50.158 9.42324H50.158ZM57.9748 7.51348L61.1675 9.42912C61.3659 9.54809 61.5911 9.6151 61.8222 9.62396C62.0534 9.63282 62.283 9.58324 62.4899 9.4798L69.3803 6.03458L66.275 10.175C66.1628 10.3246 66.0823 10.4955 66.0384 10.6773C65.9945 10.859 65.9882 11.0478 66.0197 11.2321C66.0513 11.4164 66.1201 11.5924 66.222 11.7492C66.3239 11.906 66.4567 12.0403 66.6123 12.144L74.8623 17.644C75.0882 17.7946 75.3535 17.8749 75.625 17.8749C75.8964 17.8749 76.1618 17.7946 76.3877 17.644L79.5748 15.5193L80.5554 16.5L76.1837 20.8717C75.9659 21.0905 75.6806 21.2294 75.374 21.2659C75.0674 21.3023 74.7575 21.2343 74.4945 21.0726L53.0867 7.99017C53.7422 7.39631 54.5716 7.02929 55.4519 6.94344C56.3323 6.85759 57.2169 7.05746 57.9748 7.51348Z" fill="black"/>
</svg>
