<svg width="20" height="21" viewBox="0 0 20 21" fill="none" xmlns="http://www.w3.org/2000/svg">
<g clip-path="url(#clip0_274_4601)">
<path d="M7.78427 18.5502C6.94491 18.5502 6.08097 18.4823 5.21185 18.346C3.68108 18.1058 2.1315 17.3051 1.69301 17.0654L0.542969 16.4366L1.78808 16.0271C3.14915 15.5796 3.9771 15.3019 5.00201 14.8672C3.97577 14.3702 3.18484 13.4762 2.80411 12.3205L2.51445 11.4412L2.75198 11.4774C2.52674 11.2504 2.34889 11.02 2.21102 10.8105C1.7207 10.0657 1.46111 9.15572 1.51634 8.3759L1.57084 7.60836L2.03035 7.78636C1.83651 7.42029 1.69642 7.02934 1.61408 6.61958C1.41342 5.62028 1.58135 4.55865 2.08707 3.63029L2.48735 2.89548L3.02268 3.53847C4.71576 5.5723 6.86021 6.77877 9.40538 7.13196C9.30142 6.41537 9.37931 5.7238 9.63713 5.1039C9.9373 4.38213 10.4713 3.77008 11.1809 3.33381C11.9691 2.84942 12.9248 2.6147 13.8721 2.6729C14.8772 2.73465 15.7897 3.11124 16.5144 3.76268C16.8684 3.67071 17.1291 3.57253 17.4816 3.43984C17.6936 3.36003 17.9341 3.2694 18.2351 3.16573L19.3439 2.78367L18.6208 4.8489C18.6685 4.8449 18.7177 4.84149 18.7691 4.83927L19.9532 4.78566L19.2533 5.74216C19.2132 5.79695 19.203 5.8125 19.1887 5.83397C19.1323 5.91898 19.0621 6.02471 18.1015 7.30744C17.861 7.62865 17.7409 8.04699 17.7633 8.48563C17.8484 10.1525 17.6439 11.6606 17.1551 12.9679C16.6927 14.2048 15.9763 15.266 15.0259 16.1221C13.8498 17.1812 12.3501 17.9064 10.5683 18.2772C9.69429 18.459 8.75572 18.5502 7.78427 18.5502Z" fill="white"/>
</g>
<defs>
<clipPath id="clip0_274_4601">
<rect width="19.4101" height="19.4101" fill="white" transform="translate(0.542969 0.882324)"/>
</clipPath>
</defs>
</svg>
