<svg width="224" height="45" viewBox="0 0 224 45" fill="none" xmlns="http://www.w3.org/2000/svg">
<g clip-path="url(#clip0_251_13160)">
<path d="M36.2461 0.546875H41.2331V21.9471H36.2461V0.546875Z" fill="black"/>
<path d="M44.9297 8.23925L49.9167 6.87203V10.6409H58.8462C59.3035 10.6573 59.7534 10.5193 60.125 10.2485C60.4999 9.97231 60.7758 9.58002 60.9112 9.13096C61.0666 8.71703 61.1463 8.27787 61.1459 7.83503C61.1797 7.37847 61.0985 6.92063 60.9097 6.50468C60.7209 6.0887 60.4306 5.72825 60.0664 5.45723C59.7152 5.23137 59.3091 5.10796 58.893 5.10057H44.9297L46.2674 0.558947H58.893C60.0497 0.498962 61.2031 0.729069 62.2511 1.22887C63.2992 1.72868 64.2093 2.48274 64.9009 3.42421C65.9008 4.76431 66.4296 6.4049 66.4025 8.08471C66.4548 9.55006 66.0354 10.9928 65.208 12.1958C64.3802 13.3987 63.1894 14.2967 61.8146 14.7545L67.013 21.8879H61.1459L56.5814 15.1349H49.9167V21.8879H44.9297V8.23925Z" fill="black"/>
<path d="M67.4922 5.08848V0.546875H89.4112L88.0735 5.08848H80.2353V21.9471H75.225V5.08848H67.4922Z" fill="black"/>
<path d="M108.456 13.4584V0.5469H113.443V13.4584C113.538 15.0682 113.138 16.6683 112.297 18.0376C111.456 19.407 110.217 20.4781 108.75 21.103C106.641 22.029 104.358 22.4715 102.061 22.3989C98.1658 22.3989 95.2323 21.4122 93.2493 19.4148C92.485 18.6388 91.8857 17.7122 91.4892 16.6922C91.0991 15.6654 90.9155 14.57 90.9492 13.4703V1.36724L95.9714 0V13.4584C95.8936 14.316 96.1187 15.1738 96.6064 15.8792C97.094 16.5846 97.8128 17.0917 98.635 17.3104C99.8243 17.655 101.059 17.8114 102.296 17.7741C105.582 17.7741 107.537 16.9221 108.163 15.2179C108.366 14.6547 108.466 14.0582 108.456 13.4584Z" fill="black"/>
<path d="M122.101 19.0819L123.92 14.7186H129.787L125.68 5.80181L118.382 21.8995H113.125L123.087 1.33153L128.097 -0.0357056L138.411 21.9114H133.131L131.817 19.0462L122.101 19.0819Z" fill="black"/>
<path d="M139.891 0.546875H144.878V17.3937H159.615L158.278 21.9471H139.891V0.546875Z" fill="black"/>
<path d="M50.7718 27.6181L37.3834 39.9113H50.7718L49.4341 44.4649H30.7891V39.9113L44.1538 27.6181H31.0589L32.3966 23.0646H50.7718V27.6181Z" fill="black"/>
<path d="M58.1432 36.0594V39.9113H73.3971L72.0598 44.4649H53.1562V23.0646H73.4323L72.0946 27.6181H58.1432V31.5177H71.1445V36.0594H58.1432Z" fill="black"/>
<path d="M75.7541 30.769L80.7292 29.3898V33.1468H89.6706C90.1286 33.1679 90.58 33.0295 90.9493 32.7544C91.3209 32.4801 91.5965 32.0927 91.7356 31.6487C91.8891 31.2343 91.9685 30.7955 91.9703 30.3529C92.003 29.8952 91.9199 29.4367 91.7289 29.0206C91.5379 28.6046 91.2453 28.2447 90.8789 27.9751C90.5277 27.7511 90.1208 27.6316 89.7058 27.6303H75.7422L77.0917 23.0768H89.7173C90.8752 23.0181 92.0293 23.2501 93.0773 23.752C94.1254 24.2539 95.0351 25.0103 95.7253 25.9539C96.7236 27.2948 97.2521 28.9349 97.2273 30.6144C97.2784 32.081 96.8675 33.5259 96.0539 34.7399C95.2257 35.9383 94.0356 36.8314 92.6627 37.2842L97.8488 44.4177H91.9822L87.4176 37.6647H80.7292V44.4177H75.7541V30.769Z" fill="black"/>
<path d="M99.75 30.7689L104.737 29.3897V31.5179H113.936C114.369 31.564 114.806 31.4748 115.188 31.2623C115.569 31.0498 115.878 30.7241 116.072 30.329C116.169 30.0791 116.221 29.8131 116.224 29.5443C116.232 29.1715 116.122 28.8059 115.911 28.5004C115.7 28.1948 115.399 27.965 115.051 27.8442C114.676 27.6997 114.278 27.631 113.878 27.642H99.75L101.088 23.0885H113.995C115.148 23.0115 116.303 23.2017 117.372 23.6446C118.442 24.0875 119.397 24.7715 120.167 25.6447C121.043 26.6479 121.524 27.9432 121.516 29.2827C121.514 30.0693 121.325 30.8439 120.966 31.5411C120.606 32.2384 120.087 32.8379 119.451 33.2894C119.298 33.4357 119.129 33.5634 118.947 33.6698C119.731 34.0517 120.416 34.6139 120.948 35.3115C121.479 36.0092 121.843 36.8231 122.009 37.6883C122.066 37.9538 122.094 38.2249 122.091 38.4968C122.103 39.3315 121.919 40.1569 121.553 40.9054C121.188 41.6535 120.652 42.303 119.991 42.8006C118.434 43.9778 116.522 44.5706 114.581 44.4769H99.75V30.7689ZM104.737 36.0357V39.9116H114.488C114.774 39.9593 115.067 39.9443 115.347 39.867C115.627 39.7898 115.887 39.6521 116.11 39.4635C116.333 39.2753 116.513 39.0401 116.638 38.775C116.763 38.5095 116.83 38.22 116.834 37.926C116.842 37.5611 116.735 37.2031 116.529 36.9036C116.332 36.5976 116.038 36.3675 115.696 36.2497C115.322 36.1054 114.924 36.0329 114.523 36.0357H104.737Z" fill="black"/>
<path d="M130.774 41.6116L132.592 37.2484H138.459L134.352 28.3911L127.054 44.489H121.797L131.736 23.9208L136.746 22.5536L147.06 44.489H141.745L140.43 41.6236H130.726L130.774 41.6116Z" fill="black"/>
<path d="M148.551 23.0646H153.479V44.4649H148.551V23.0646Z" fill="black"/>
<path d="M171.712 35.988V23.0646H176.699V35.988C176.723 37.3681 176.389 38.7304 175.73 39.9383C175.071 41.1465 174.11 42.1579 172.944 42.8719C170.7 44.3322 168.078 45.0852 165.412 45.0357C162.71 45.1362 160.056 44.2973 157.89 42.6578C156.663 41.6869 155.738 40.3785 155.227 38.889L159.92 37.5694C160.202 38.2868 160.668 38.9145 161.271 39.387C161.874 39.8595 162.59 40.1599 163.346 40.2563C164.508 40.5199 165.711 40.5409 166.881 40.3182C168.051 40.0954 169.164 39.6334 170.152 38.9603C170.602 38.6243 170.971 38.1893 171.231 37.6883C171.53 37.1713 171.695 36.5867 171.712 35.988Z" fill="black"/>
<path d="M185.277 41.6116L187.096 37.2484H192.963L188.856 28.3911L181.569 44.489H176.312L186.251 23.9208L191.262 22.5536L201.587 44.465H196.307L194.993 41.6H185.277V41.6116Z" fill="black"/>
<path d="M219.013 23.0647H224V44.4649H219.013L208.042 30.3527V44.4649H203.055V23.897L208.042 22.5297L219.013 36.6301V23.0647Z" fill="black"/>
<path d="M0.293347 32.742L10.6779 29.96L10.3728 30.5782L0 33.3603L0.293347 32.742ZM30.8602 25.0855L31.0244 24.5029L26.4834 25.6918L24.7937 22.0062L24.2892 22.1489L25.9789 25.8345L22.5995 26.7381L22.8224 27.2255L26.2018 26.3101L31.5642 37.9492L31.9514 37.581L26.7533 26.1912L30.8602 25.0855ZM2.96868 27.2017L13.3414 24.4197L13.6465 23.8015L3.2855 26.5954L2.96868 27.2017ZM25.662 21.1383L35.3542 18.5465V17.9996L25.9671 20.5082L25.662 21.1383ZM16.4157 17.6905L13.0481 18.5941L4.61143 0.273074C4.59712 0.239892 4.5762 0.210079 4.54995 0.185521C4.52369 0.160962 4.49268 0.142196 4.4589 0.130408C4.39507 0.107315 4.32483 0.110579 4.26338 0.139496C4.20189 0.168413 4.15413 0.220663 4.13035 0.284966C4.10703 0.350269 4.10703 0.421775 4.13035 0.487077L12.5318 18.7605L6.23069 20.4488L5.93737 21.067L12.7665 19.2361L14.4914 22.9811L14.9959 22.8385L13.2593 19.1053L16.6387 18.2018L16.4157 17.6905ZM28.9358 14.3616L28.6307 14.9798L35.3542 13.1846V12.6377L28.9358 14.3616Z" fill="black"/>
<path d="M22.0615 16.6565L29.3717 0.558777H34.6168L24.6665 21.1268L19.7147 22.4465L9.35373 0.558777H14.6223L22.0615 16.6565ZM13.6249 41.6235L15.4436 37.2602H21.3105L17.2154 28.391L9.91696 44.4649H4.66016L14.6105 23.8969L19.6209 22.5297L29.9232 44.4649H24.6547L23.3288 41.6115L13.6249 41.6235Z" fill="#1DA24F"/>
<path d="M0.293347 32.742L10.6779 29.9599L10.3728 30.5781L0 33.3602L0.293347 32.742ZM30.8602 25.0854L31.0244 24.5029L26.4834 25.6918L24.7937 22.0062L24.2892 22.1488L25.9788 25.8344L22.5995 26.738L22.8224 27.2255L26.2018 26.31L31.5642 37.9492L31.9514 37.5809L26.7533 26.1911L30.8602 25.0854ZM2.96868 27.2017L13.3414 24.4196L13.6465 23.8014L3.28549 26.5954L2.96868 27.2017ZM25.662 21.1383L35.3542 18.5465V17.9996L25.9671 20.5081L25.662 21.1383ZM16.4157 17.6905L13.0481 18.594L4.61143 0.273013C4.59712 0.239831 4.5762 0.210018 4.54994 0.18546C4.52369 0.160901 4.49268 0.142135 4.4589 0.130347C4.39507 0.107254 4.32483 0.110518 4.26338 0.139435C4.20189 0.168352 4.15413 0.220602 4.13035 0.284905C4.10703 0.350208 4.10703 0.421714 4.13035 0.487016L12.5318 18.7605L6.23069 20.4487L5.93737 21.0669L12.7665 19.236L14.4914 22.9811L14.9959 22.8384L13.2593 19.1053L16.6387 18.2017L16.4157 17.6905ZM28.9358 14.3615L28.6307 14.9798L35.3542 13.1845V12.6376L28.9358 14.3615Z" fill="black"/>
<path d="M22.0615 16.6565L29.3717 0.558716H34.6168L24.6665 21.1268L19.7147 22.4464L9.35373 0.558716H14.6223L22.0615 16.6565ZM13.6249 41.6235L15.4436 37.2602H21.3105L17.2154 28.391L9.91696 44.4648H4.66016L14.6105 23.8969L19.6209 22.5297L29.9232 44.4648H24.6547L23.3288 41.6115L13.6249 41.6235Z" fill="#1DA24F"/>
<path d="M0.293347 32.742L10.6779 29.9599L10.3728 30.5781L0 33.3602L0.293347 32.742ZM30.8602 25.0854L31.0244 24.5029L26.4834 25.6918L24.7937 22.0062L24.2892 22.1488L25.9788 25.8344L22.5995 26.738L22.8224 27.2255L26.2018 26.31L31.5642 37.9492L31.9514 37.5809L26.7533 26.1911L30.8602 25.0854ZM2.96868 27.2017L13.3414 24.4196L13.6465 23.8014L3.28549 26.5954L2.96868 27.2017ZM25.662 21.1383L35.3542 18.5465V17.9996L25.9671 20.5081L25.662 21.1383ZM16.4157 17.6905L13.0481 18.594L4.61143 0.273013C4.59712 0.239831 4.5762 0.210018 4.54994 0.18546C4.52369 0.160901 4.49268 0.142135 4.4589 0.130347C4.39507 0.107254 4.32483 0.110518 4.26338 0.139435C4.20189 0.168352 4.15413 0.220602 4.13035 0.284905C4.10703 0.350208 4.10703 0.421714 4.13035 0.487016L12.5318 18.7605L6.23069 20.4487L5.93737 21.0669L12.7665 19.236L14.4914 22.9811L14.9959 22.8384L13.2593 19.1053L16.6387 18.2017L16.4157 17.6905ZM28.9358 14.3615L28.6307 14.9798L35.3542 13.1845V12.6376L28.9358 14.3615Z" fill="black"/>
<path d="M22.0615 16.6565L29.3717 0.558716H34.6168L24.6665 21.1268L19.7147 22.4464L9.35373 0.558716H14.6223L22.0615 16.6565ZM13.6249 41.6235L15.4436 37.2602H21.3105L17.2154 28.391L9.91696 44.4648H4.66016L14.6105 23.8969L19.6209 22.5297L29.9232 44.4648H24.6547L23.3288 41.6115L13.6249 41.6235Z" fill="#1DA24F"/>
</g>
<defs>
<clipPath id="clip0_251_13160">
<rect width="224" height="45" fill="white"/>
</clipPath>
</defs>
</svg>
