<svg width="19" height="19" viewBox="0 0 19 19" fill="none" xmlns="http://www.w3.org/2000/svg">
<g clip-path="url(#clip0_274_4607)">
<path d="M15.1253 0.765015H4.09742C2.26985 0.765015 0.789062 2.2458 0.789062 4.07337V15.1012C0.789062 16.9288 2.26985 18.4096 4.09742 18.4096H15.1253C16.9529 18.4096 18.4336 16.9288 18.4336 15.1012V4.07337C18.4336 2.2458 16.9529 0.765015 15.1253 0.765015ZM17.246 6.75603C17.246 6.84968 17.1707 6.92569 17.0764 6.92569H16.1602L12.0056 15.7683C11.9784 15.8267 11.9194 15.8654 11.8542 15.8661C11.8536 15.8661 11.8522 15.8661 11.8522 15.8661C11.7877 15.8661 11.7287 15.8301 11.7002 15.7724L9.72876 11.8621L7.60123 15.7772C7.57069 15.8335 7.5164 15.8647 7.44718 15.8661C7.38338 15.864 7.3257 15.8267 7.29855 15.769L3.09779 6.92569H2.14634C2.05269 6.92569 1.97668 6.84968 1.97668 6.75603V6.30813C1.97668 6.21448 2.05269 6.13847 2.14634 6.13847H5.53478C5.62843 6.13847 5.70443 6.21448 5.70443 6.30813V6.75603C5.70443 6.84968 5.62843 6.92569 5.53478 6.92569H4.80524L7.70438 13.613L9.21299 10.7946L7.30059 6.92637H6.84047C6.74682 6.92637 6.67081 6.85036 6.67081 6.75671V6.3088C6.67081 6.21515 6.74682 6.13915 6.84047 6.13915H9.34668C9.44033 6.13915 9.51634 6.21515 9.51634 6.3088V6.75671C9.51634 6.85036 9.44033 6.92637 9.34668 6.92637H8.90557L10.0056 9.33349L11.3154 6.92637H10.5119C10.4176 6.92637 10.3422 6.85036 10.3422 6.75671V6.3088C10.3422 6.21515 10.4176 6.13915 10.5119 6.13915H12.9469C13.0412 6.13915 13.1165 6.21515 13.1165 6.3088V6.75671C13.1165 6.85036 13.0412 6.92637 12.9469 6.92637H12.4128L10.501 10.3996L12.0592 13.6028L15.0656 6.92637H14.1128C14.0191 6.92637 13.9431 6.85036 13.9431 6.75671V6.3088C13.9431 6.21515 14.0191 6.13915 14.1128 6.13915H17.0764C17.1707 6.13915 17.246 6.21515 17.246 6.3088V6.75603Z" fill="white"/>
</g>
<defs>
<clipPath id="clip0_274_4607">
<rect width="17.6446" height="17.6446" fill="white" transform="translate(0.789062 0.765015)"/>
</clipPath>
</defs>
</svg>
